ISO-10303-21;
HEADER;
FILE_DESCRIPTION(('FreeCAD Model'),'2;1');
FILE_NAME('Open CASCADE Shape Model','2025-11-24T19:23:06',(''),(''),
  'Open CASCADE STEP processor 7.8','FreeCAD','Unknown');
FILE_SCHEMA(('AUTOMOTIVE_DESIGN { 1 0 10303 214 1 1 1 1 }'));
ENDSEC;
DATA;
#1 = APPLICATION_PROTOCOL_DEFINITION('international standard',
  'automotive_design',2000,#2);
#2 = APPLICATION_CONTEXT(
  'core data for automotive mechanical design processes');
#3 = SHAPE_DEFINITION_REPRESENTATION(#4,#10);
#4 = PRODUCT_DEFINITION_SHAPE('','',#5);
#5 = PRODUCT_DEFINITION('design','',#6,#9);
#6 = PRODUCT_DEFINITION_FORMATION('','',#7);
#7 = PRODUCT('Pad003','Pad003','',(#8));
#8 = PRODUCT_CONTEXT('',#2,'mechanical');
#9 = PRODUCT_DEFINITION_CONTEXT('part definition',#2,'design');
#10 = ADVANCED_BREP_SHAPE_REPRESENTATION('',(#11,#15),#1891);
#11 = AXIS2_PLACEMENT_3D('',#12,#13,#14);
#12 = CARTESIAN_POINT('',(0.,0.,0.));
#13 = DIRECTION('',(0.,0.,1.));
#14 = DIRECTION('',(1.,0.,-0.));
#15 = MANIFOLD_SOLID_BREP('',#16);
#16 = CLOSED_SHELL('',(#17,#219,#344,#394,#429,#455,#545,#570,#594,#627,
    #726,#759,#794,#819,#891,#922,#947,#972,#996,#1020,#1045,#1070,#1087
    ,#1124,#1173,#1259,#1281,#1297,#1322,#1348,#1382,#1408,#1439,#1520,
    #1538,#1579,#1606,#1684,#1709,#1727,#1745,#1763,#1787,#1805,#1823,
    #1835,#1853,#1864,#1876));
#17 = ADVANCED_FACE('',(#18,#144),#214,.T.);
#18 = FACE_BOUND('',#19,.T.);
#19 = EDGE_LOOP('',(#20,#30,#43,#52,#60,#68,#76,#85,#98,#106,#114,#122,
    #130,#138));
#20 = ORIENTED_EDGE('',*,*,#21,.T.);
#21 = EDGE_CURVE('',#22,#24,#26,.T.);
#22 = VERTEX_POINT('',#23);
#23 = CARTESIAN_POINT('',(-6.,6.,7.5));
#24 = VERTEX_POINT('',#25);
#25 = CARTESIAN_POINT('',(-6.,15.238226403308,7.5));
#26 = LINE('',#27,#28);
#27 = CARTESIAN_POINT('',(-6.,1.67E-15,7.5));
#28 = VECTOR('',#29,1.);
#29 = DIRECTION('',(0.,1.,-2.2E-16));
#30 = ORIENTED_EDGE('',*,*,#31,.F.);
#31 = EDGE_CURVE('',#32,#24,#34,.T.);
#32 = VERTEX_POINT('',#33);
#33 = CARTESIAN_POINT('',(-6.,20.433147884081,3.932220637822));
#34 = B_SPLINE_CURVE_WITH_KNOTS('',4,(#35,#36,#37,#38,#39,#40,#41,#42),
  .UNSPECIFIED.,.F.,.F.,(5,3,5),(133.40817360362,139.75580322769,
    142.00166957042),.UNSPECIFIED.);
#35 = CARTESIAN_POINT('',(-6.,20.433147884081,3.932220637822));
#36 = CARTESIAN_POINT('',(-6.,19.13160340304,4.825900148231));
#37 = CARTESIAN_POINT('',(-6.,17.832533651392,5.718024744002));
#38 = CARTESIAN_POINT('',(-6.,16.534967889659,6.609241616347));
#39 = CARTESIAN_POINT('',(-6.,14.779423947606,7.815160838269));
#40 = CARTESIAN_POINT('',(-6.,14.317958355195,8.132151039889));
#41 = CARTESIAN_POINT('',(-6.,13.853829626075,8.45097060486));
#42 = CARTESIAN_POINT('',(-6.,13.387037760245,8.771619533181));
#43 = ORIENTED_EDGE('',*,*,#44,.F.);
#44 = EDGE_CURVE('',#45,#32,#47,.T.);
#45 = VERTEX_POINT('',#46);
#46 = CARTESIAN_POINT('',(-6.,23.,3.));
#47 = CIRCLE('',#48,4.);
#48 = AXIS2_PLACEMENT_3D('',#49,#50,#51);
#49 = CARTESIAN_POINT('',(-6.,23.,7.));
#50 = DIRECTION('',(-1.,-0.,-0.));
#51 = DIRECTION('',(0.,0.,-1.));
#52 = ORIENTED_EDGE('',*,*,#53,.F.);
#53 = EDGE_CURVE('',#54,#45,#56,.T.);
#54 = VERTEX_POINT('',#55);
#55 = CARTESIAN_POINT('',(-6.,78.,3.));
#56 = LINE('',#57,#58);
#57 = CARTESIAN_POINT('',(-6.,78.,3.));
#58 = VECTOR('',#59,1.);
#59 = DIRECTION('',(-0.,-1.,-0.));
#60 = ORIENTED_EDGE('',*,*,#61,.T.);
#61 = EDGE_CURVE('',#54,#62,#64,.T.);
#62 = VERTEX_POINT('',#63);
#63 = CARTESIAN_POINT('',(-6.,78.,-3.));
#64 = LINE('',#65,#66);
#65 = CARTESIAN_POINT('',(-6.,78.,4.));
#66 = VECTOR('',#67,1.);
#67 = DIRECTION('',(0.,-2.2E-16,-1.));
#68 = ORIENTED_EDGE('',*,*,#69,.F.);
#69 = EDGE_CURVE('',#70,#62,#72,.T.);
#70 = VERTEX_POINT('',#71);
#71 = CARTESIAN_POINT('',(-6.,23.,-3.));
#72 = LINE('',#73,#74);
#73 = CARTESIAN_POINT('',(-6.,23.,-3.));
#74 = VECTOR('',#75,1.);
#75 = DIRECTION('',(0.,1.,0.));
#76 = ORIENTED_EDGE('',*,*,#77,.F.);
#77 = EDGE_CURVE('',#78,#70,#80,.T.);
#78 = VERTEX_POINT('',#79);
#79 = CARTESIAN_POINT('',(-6.,20.433147884081,-3.932220637822));
#80 = CIRCLE('',#81,4.);
#81 = AXIS2_PLACEMENT_3D('',#82,#83,#84);
#82 = CARTESIAN_POINT('',(-6.,23.,-7.));
#83 = DIRECTION('',(-1.,0.,0.));
#84 = DIRECTION('',(0.,-0.64171302898,0.766944840544));
#85 = ORIENTED_EDGE('',*,*,#86,.F.);
#86 = EDGE_CURVE('',#87,#78,#89,.T.);
#87 = VERTEX_POINT('',#88);
#88 = CARTESIAN_POINT('',(-6.,15.238226403308,-7.5));
#89 = B_SPLINE_CURVE_WITH_KNOTS('',4,(#90,#91,#92,#93,#94,#95,#96,#97),
  .UNSPECIFIED.,.F.,.F.,(5,3,5),(-3.648886227112,-1.403019884329,
    4.944609739744),.UNSPECIFIED.);
#90 = CARTESIAN_POINT('',(-6.,13.387037760195,-8.771619533215));
#91 = CARTESIAN_POINT('',(-6.,13.853829626038,-8.450970604885));
#92 = CARTESIAN_POINT('',(-6.,14.317958355171,-8.132151039906));
#93 = CARTESIAN_POINT('',(-6.,14.779423947594,-7.815160838277));
#94 = CARTESIAN_POINT('',(-6.,16.534967889659,-6.609241616347));
#95 = CARTESIAN_POINT('',(-6.,17.832533651392,-5.718024744002));
#96 = CARTESIAN_POINT('',(-6.,19.13160340304,-4.825900148231));
#97 = CARTESIAN_POINT('',(-6.,20.433147884081,-3.932220637822));
#98 = ORIENTED_EDGE('',*,*,#99,.F.);
#99 = EDGE_CURVE('',#100,#87,#102,.T.);
#100 = VERTEX_POINT('',#101);
#101 = CARTESIAN_POINT('',(-6.,6.,-7.5));
#102 = LINE('',#103,#104);
#103 = CARTESIAN_POINT('',(-6.,-1.67E-15,-7.5));
#104 = VECTOR('',#105,1.);
#105 = DIRECTION('',(0.,1.,-2.2E-16));
#106 = ORIENTED_EDGE('',*,*,#107,.F.);
#107 = EDGE_CURVE('',#108,#100,#110,.T.);
#108 = VERTEX_POINT('',#109);
#109 = CARTESIAN_POINT('',(-6.,6.,-3.25));
#110 = LINE('',#111,#112);
#111 = CARTESIAN_POINT('',(-6.,6.,7.5));
#112 = VECTOR('',#113,1.);
#113 = DIRECTION('',(-0.,-0.,-1.));
#114 = ORIENTED_EDGE('',*,*,#115,.F.);
#115 = EDGE_CURVE('',#116,#108,#118,.T.);
#116 = VERTEX_POINT('',#117);
#117 = CARTESIAN_POINT('',(-6.,12.,-3.25));
#118 = LINE('',#119,#120);
#119 = CARTESIAN_POINT('',(-6.,8.3E-16,-3.25));
#120 = VECTOR('',#121,1.);
#121 = DIRECTION('',(-0.,-1.,-0.));
#122 = ORIENTED_EDGE('',*,*,#123,.F.);
#123 = EDGE_CURVE('',#124,#116,#126,.T.);
#124 = VERTEX_POINT('',#125);
#125 = CARTESIAN_POINT('',(-6.,12.,3.25));
#126 = LINE('',#127,#128);
#127 = CARTESIAN_POINT('',(-6.,12.,2.125));
#128 = VECTOR('',#129,1.);
#129 = DIRECTION('',(0.,0.,-1.));
#130 = ORIENTED_EDGE('',*,*,#131,.F.);
#131 = EDGE_CURVE('',#132,#124,#134,.T.);
#132 = VERTEX_POINT('',#133);
#133 = CARTESIAN_POINT('',(-6.,6.,3.25));
#134 = LINE('',#135,#136);
#135 = CARTESIAN_POINT('',(-6.,6.,3.25));
#136 = VECTOR('',#137,1.);
#137 = DIRECTION('',(0.,1.,0.));
#138 = ORIENTED_EDGE('',*,*,#139,.F.);
#139 = EDGE_CURVE('',#22,#132,#140,.T.);
#140 = LINE('',#141,#142);
#141 = CARTESIAN_POINT('',(-6.,6.,7.5));
#142 = VECTOR('',#143,1.);
#143 = DIRECTION('',(-0.,-0.,-1.));
#144 = FACE_BOUND('',#145,.T.);
#145 = EDGE_LOOP('',(#146,#156,#165,#173,#182,#190,#199,#207));
#146 = ORIENTED_EDGE('',*,*,#147,.F.);
#147 = EDGE_CURVE('',#148,#150,#152,.T.);
#148 = VERTEX_POINT('',#149);
#149 = CARTESIAN_POINT('',(-6.,73.,-0.25));
#150 = VERTEX_POINT('',#151);
#151 = CARTESIAN_POINT('',(-6.,73.,0.25));
#152 = LINE('',#153,#154);
#153 = CARTESIAN_POINT('',(-6.,73.,4.375));
#154 = VECTOR('',#155,1.);
#155 = DIRECTION('',(0.,0.,1.));
#156 = ORIENTED_EDGE('',*,*,#157,.T.);
#157 = EDGE_CURVE('',#148,#158,#160,.T.);
#158 = VERTEX_POINT('',#159);
#159 = CARTESIAN_POINT('',(-6.,74.,-1.25));
#160 = CIRCLE('',#161,1.);
#161 = AXIS2_PLACEMENT_3D('',#162,#163,#164);
#162 = CARTESIAN_POINT('',(-6.,74.,-0.25));
#163 = DIRECTION('',(1.,-0.,0.));
#164 = DIRECTION('',(0.,0.,-1.));
#165 = ORIENTED_EDGE('',*,*,#166,.F.);
#166 = EDGE_CURVE('',#167,#158,#169,.T.);
#167 = VERTEX_POINT('',#168);
#168 = CARTESIAN_POINT('',(-6.,76.,-1.25));
#169 = LINE('',#170,#171);
#170 = CARTESIAN_POINT('',(-6.,36.5,-1.25));
#171 = VECTOR('',#172,1.);
#172 = DIRECTION('',(-0.,-1.,-0.));
#173 = ORIENTED_EDGE('',*,*,#174,.F.);
#174 = EDGE_CURVE('',#175,#167,#177,.T.);
#175 = VERTEX_POINT('',#176);
#176 = CARTESIAN_POINT('',(-6.,77.,-0.25));
#177 = CIRCLE('',#178,1.);
#178 = AXIS2_PLACEMENT_3D('',#179,#180,#181);
#179 = CARTESIAN_POINT('',(-6.,76.,-0.25));
#180 = DIRECTION('',(-1.,-0.,-0.));
#181 = DIRECTION('',(0.,0.,-1.));
#182 = ORIENTED_EDGE('',*,*,#183,.F.);
#183 = EDGE_CURVE('',#184,#175,#186,.T.);
#184 = VERTEX_POINT('',#185);
#185 = CARTESIAN_POINT('',(-6.,77.,0.25));
#186 = LINE('',#187,#188);
#187 = CARTESIAN_POINT('',(-6.,77.,3.125));
#188 = VECTOR('',#189,1.);
#189 = DIRECTION('',(0.,0.,-1.));
#190 = ORIENTED_EDGE('',*,*,#191,.F.);
#191 = EDGE_CURVE('',#192,#184,#194,.T.);
#192 = VERTEX_POINT('',#193);
#193 = CARTESIAN_POINT('',(-6.,76.,1.25));
#194 = CIRCLE('',#195,1.);
#195 = AXIS2_PLACEMENT_3D('',#196,#197,#198);
#196 = CARTESIAN_POINT('',(-6.,76.,0.25));
#197 = DIRECTION('',(-1.,-0.,-0.));
#198 = DIRECTION('',(0.,0.,-1.));
#199 = ORIENTED_EDGE('',*,*,#200,.F.);
#200 = EDGE_CURVE('',#201,#192,#203,.T.);
#201 = VERTEX_POINT('',#202);
#202 = CARTESIAN_POINT('',(-6.,74.,1.25));
#203 = LINE('',#204,#205);
#204 = CARTESIAN_POINT('',(-6.,38.5,1.25));
#205 = VECTOR('',#206,1.);
#206 = DIRECTION('',(0.,1.,0.));
#207 = ORIENTED_EDGE('',*,*,#208,.F.);
#208 = EDGE_CURVE('',#150,#201,#209,.T.);
#209 = CIRCLE('',#210,1.);
#210 = AXIS2_PLACEMENT_3D('',#211,#212,#213);
#211 = CARTESIAN_POINT('',(-6.,74.,0.25));
#212 = DIRECTION('',(-1.,-0.,-0.));
#213 = DIRECTION('',(0.,0.,-1.));
#214 = PLANE('',#215);
#215 = AXIS2_PLACEMENT_3D('',#216,#217,#218);
#216 = CARTESIAN_POINT('',(-6.,1.67E-15,7.5));
#217 = DIRECTION('',(-1.,0.,0.));
#218 = DIRECTION('',(0.,-2.2E-16,-1.));
#219 = ADVANCED_FACE('',(#220,#319),#339,.T.);
#220 = FACE_BOUND('',#221,.T.);
#221 = EDGE_LOOP('',(#222,#223,#232,#241,#249,#280,#290));
#222 = ORIENTED_EDGE('',*,*,#21,.F.);
#223 = ORIENTED_EDGE('',*,*,#224,.T.);
#224 = EDGE_CURVE('',#22,#225,#227,.T.);
#225 = VERTEX_POINT('',#226);
#226 = CARTESIAN_POINT('',(-2.479096E-08,1.E-15,7.5));
#227 = CIRCLE('',#228,6.);
#228 = AXIS2_PLACEMENT_3D('',#229,#230,#231);
#229 = CARTESIAN_POINT('',(0.,6.,7.5));
#230 = DIRECTION('',(0.,0.,1.));
#231 = DIRECTION('',(1.,0.,0.));
#232 = ORIENTED_EDGE('',*,*,#233,.T.);
#233 = EDGE_CURVE('',#225,#234,#236,.T.);
#234 = VERTEX_POINT('',#235);
#235 = CARTESIAN_POINT('',(6.,6.,7.5));
#236 = CIRCLE('',#237,6.);
#237 = AXIS2_PLACEMENT_3D('',#238,#239,#240);
#238 = CARTESIAN_POINT('',(0.,6.,7.5));
#239 = DIRECTION('',(0.,0.,1.));
#240 = DIRECTION('',(1.,0.,0.));
#241 = ORIENTED_EDGE('',*,*,#242,.T.);
#242 = EDGE_CURVE('',#234,#243,#245,.T.);
#243 = VERTEX_POINT('',#244);
#244 = CARTESIAN_POINT('',(6.,15.238226403308,7.5));
#245 = LINE('',#246,#247);
#246 = CARTESIAN_POINT('',(6.,1.67E-15,7.5));
#247 = VECTOR('',#248,1.);
#248 = DIRECTION('',(0.,1.,-2.2E-16));
#249 = ORIENTED_EDGE('',*,*,#250,.F.);
#250 = EDGE_CURVE('',#251,#243,#253,.T.);
#251 = VERTEX_POINT('',#252);
#252 = CARTESIAN_POINT('',(5.,17.,7.5));
#253 = B_SPLINE_CURVE_WITH_KNOTS('',7,(#254,#255,#256,#257,#258,#259,
    #260,#261,#262,#263,#264,#265,#266,#267,#268,#269,#270,#271,#272,
    #273,#274,#275,#276,#277,#278,#279),.UNSPECIFIED.,.F.,.F.,(8,6,6,6,8
    ),(0.,0.206584186394,0.527056820522,0.863410830205,1.),
  .UNSPECIFIED.);
#254 = CARTESIAN_POINT('',(5.,17.,7.5));
#255 = CARTESIAN_POINT('',(5.044330064948,17.,7.5));
#256 = CARTESIAN_POINT('',(5.089568521582,16.995962441646,7.5));
#257 = CARTESIAN_POINT('',(5.13550377483,16.987589987687,7.5));
#258 = CARTESIAN_POINT('',(5.181880586581,16.974631730541,7.5));
#259 = CARTESIAN_POINT('',(5.228404423325,16.956915151665,7.5));
#260 = CARTESIAN_POINT('',(5.274754087612,16.934369413688,7.5));
#261 = CARTESIAN_POINT('',(5.391727168426,16.86464403023,7.5));
#262 = CARTESIAN_POINT('',(5.461668523451,16.810722281769,7.5));
#263 = CARTESIAN_POINT('',(5.529187111958,16.745439319066,7.5));
#264 = CARTESIAN_POINT('',(5.593116345381,16.669575997215,7.5));
#265 = CARTESIAN_POINT('',(5.652539471561,16.584432932394,7.5));
#266 = CARTESIAN_POINT('',(5.706833045586,16.491514413278,7.5));
#267 = CARTESIAN_POINT('',(5.806830247765,16.288305272297,7.5));
#268 = CARTESIAN_POINT('',(5.851981834367,16.177367849064,7.5));
#269 = CARTESIAN_POINT('',(5.890682799937,16.06125547138,7.5));
#270 = CARTESIAN_POINT('',(5.92281118103,15.941690968131,7.5));
#271 = CARTESIAN_POINT('',(5.948453805654,15.820269856421,7.5));
#272 = CARTESIAN_POINT('',(5.967847162033,15.698387782164,7.5));
#273 = CARTESIAN_POINT('',(5.986795474351,15.528049491478,7.5));
#274 = CARTESIAN_POINT('',(5.991291714165,15.478979600542,7.5));
#275 = CARTESIAN_POINT('',(5.994834063481,15.430116949947,7.5));
#276 = CARTESIAN_POINT('',(5.997447553179,15.381539446897,7.5));
#277 = CARTESIAN_POINT('',(5.999159661467,15.333320390258,7.5));
#278 = CARTESIAN_POINT('',(6.,15.285528242777,7.5));
#279 = CARTESIAN_POINT('',(6.,15.238226403308,7.5));
#280 = ORIENTED_EDGE('',*,*,#281,.F.);
#281 = EDGE_CURVE('',#282,#251,#284,.T.);
#282 = VERTEX_POINT('',#283);
#283 = CARTESIAN_POINT('',(-5.,17.,7.5));
#284 = B_SPLINE_CURVE_WITH_KNOTS('',2,(#285,#286,#287,#288,#289),
  .UNSPECIFIED.,.F.,.F.,(3,1,1,3),(-0.7344,-1.376E-14,12.,12.7344),
  .UNSPECIFIED.);
#285 = CARTESIAN_POINT('',(-6.7344,17.,7.5));
#286 = CARTESIAN_POINT('',(-6.3672,17.,7.5));
#287 = CARTESIAN_POINT('',(0.,17.,7.5));
#288 = CARTESIAN_POINT('',(6.3672,17.,7.5));
#289 = CARTESIAN_POINT('',(6.7344,17.,7.5));
#290 = ORIENTED_EDGE('',*,*,#291,.T.);
#291 = EDGE_CURVE('',#282,#24,#292,.T.);
#292 = B_SPLINE_CURVE_WITH_KNOTS('',7,(#293,#294,#295,#296,#297,#298,
    #299,#300,#301,#302,#303,#304,#305,#306,#307,#308,#309,#310,#311,
    #312,#313,#314,#315,#316,#317,#318),.UNSPECIFIED.,.F.,.F.,(8,6,6,6,8
    ),(0.,0.206584186394,0.527056820522,0.863410830205,1.),
  .UNSPECIFIED.);
#293 = CARTESIAN_POINT('',(-5.,17.,7.5));
#294 = CARTESIAN_POINT('',(-5.044330064948,17.,7.5));
#295 = CARTESIAN_POINT('',(-5.089568521582,16.995962441646,7.5));
#296 = CARTESIAN_POINT('',(-5.13550377483,16.987589987687,7.5));
#297 = CARTESIAN_POINT('',(-5.181880586581,16.974631730541,7.5));
#298 = CARTESIAN_POINT('',(-5.228404423326,16.956915151665,7.5));
#299 = CARTESIAN_POINT('',(-5.274754087612,16.934369413688,7.5));
#300 = CARTESIAN_POINT('',(-5.391727168426,16.86464403023,7.5));
#301 = CARTESIAN_POINT('',(-5.461668523451,16.810722281769,7.5));
#302 = CARTESIAN_POINT('',(-5.529187111958,16.745439319066,7.5));
#303 = CARTESIAN_POINT('',(-5.593116345381,16.669575997215,7.5));
#304 = CARTESIAN_POINT('',(-5.652539471561,16.584432932394,7.5));
#305 = CARTESIAN_POINT('',(-5.706833045586,16.491514413278,7.5));
#306 = CARTESIAN_POINT('',(-5.806830247766,16.288305272297,7.5));
#307 = CARTESIAN_POINT('',(-5.851981834367,16.177367849064,7.5));
#308 = CARTESIAN_POINT('',(-5.890682799937,16.061255471379,7.5));
#309 = CARTESIAN_POINT('',(-5.922811181031,15.94169096813,7.5));
#310 = CARTESIAN_POINT('',(-5.948453805654,15.820269856421,7.5));
#311 = CARTESIAN_POINT('',(-5.967847162033,15.698387782164,7.5));
#312 = CARTESIAN_POINT('',(-5.986795474351,15.528049491478,7.5));
#313 = CARTESIAN_POINT('',(-5.991291714165,15.478979600541,7.5));
#314 = CARTESIAN_POINT('',(-5.994834063481,15.430116949947,7.5));
#315 = CARTESIAN_POINT('',(-5.997447553179,15.381539446897,7.5));
#316 = CARTESIAN_POINT('',(-5.999159661467,15.333320390258,7.5));
#317 = CARTESIAN_POINT('',(-6.,15.285528242777,7.5));
#318 = CARTESIAN_POINT('',(-6.,15.238226403308,7.5));
#319 = FACE_BOUND('',#320,.T.);
#320 = EDGE_LOOP('',(#321,#332));
#321 = ORIENTED_EDGE('',*,*,#322,.F.);
#322 = EDGE_CURVE('',#323,#325,#327,.T.);
#323 = VERTEX_POINT('',#324);
#324 = CARTESIAN_POINT('',(-7.4E-14,3.,7.5));
#325 = VERTEX_POINT('',#326);
#326 = CARTESIAN_POINT('',(7.4E-14,6.,7.5));
#327 = CIRCLE('',#328,1.5);
#328 = AXIS2_PLACEMENT_3D('',#329,#330,#331);
#329 = CARTESIAN_POINT('',(0.,4.5,7.5));
#330 = DIRECTION('',(0.,0.,1.));
#331 = DIRECTION('',(1.,0.,0.));
#332 = ORIENTED_EDGE('',*,*,#333,.F.);
#333 = EDGE_CURVE('',#325,#323,#334,.T.);
#334 = ELLIPSE('',#335,1.8,1.5);
#335 = AXIS2_PLACEMENT_3D('',#336,#337,#338);
#336 = CARTESIAN_POINT('',(0.,4.5,7.5));
#337 = DIRECTION('',(0.,0.,1.));
#338 = DIRECTION('',(-1.,-1.339E-14,0.));
#339 = PLANE('',#340);
#340 = AXIS2_PLACEMENT_3D('',#341,#342,#343);
#341 = CARTESIAN_POINT('',(6.,1.67E-15,7.5));
#342 = DIRECTION('',(0.,2.2E-16,1.));
#343 = DIRECTION('',(-1.,0.,0.));
#344 = ADVANCED_FACE('',(#345),#369,.T.);
#345 = FACE_BOUND('',#346,.T.);
#346 = EDGE_LOOP('',(#347,#356,#357,#358));
#347 = ORIENTED_EDGE('',*,*,#348,.T.);
#348 = EDGE_CURVE('',#349,#32,#351,.T.);
#349 = VERTEX_POINT('',#350);
#350 = CARTESIAN_POINT('',(-5.,21.074860913061,4.699165478367));
#351 = CIRCLE('',#352,1.);
#352 = AXIS2_PLACEMENT_3D('',#353,#354,#355);
#353 = CARTESIAN_POINT('',(-5.,20.433147884081,3.932220637822));
#354 = DIRECTION('',(0.,-0.766944840544,0.64171302898));
#355 = DIRECTION('',(-0.,-0.64171302898,-0.766944840544));
#356 = ORIENTED_EDGE('',*,*,#31,.T.);
#357 = ORIENTED_EDGE('',*,*,#291,.F.);
#358 = ORIENTED_EDGE('',*,*,#359,.F.);
#359 = EDGE_CURVE('',#349,#282,#360,.T.);
#360 = B_SPLINE_CURVE_WITH_KNOTS('',4,(#361,#362,#363,#364,#365,#366,
    #367,#368),.UNSPECIFIED.,.F.,.F.,(5,3,5),(133.40817360362,
    139.75580322769,142.00166957042),.UNSPECIFIED.);
#361 = CARTESIAN_POINT('',(-5.,21.074860913061,4.699165478367));
#362 = CARTESIAN_POINT('',(-5.,19.767087943749,5.598056448404));
#363 = CARTESIAN_POINT('',(-5.,18.461999981002,6.4951018931));
#364 = CARTESIAN_POINT('',(-5.,17.15864039743,7.39095934533));
#365 = CARTESIAN_POINT('',(-5.,15.39557095316,8.602795986851));
#366 = CARTESIAN_POINT('',(-5.,14.933510867596,8.920390591017));
#367 = CARTESIAN_POINT('',(-5.,14.470159903794,9.238872473648));
#368 = CARTESIAN_POINT('',(-5.,14.005518061753,9.558241634743));
#369 = ( BOUNDED_SURFACE() B_SPLINE_SURFACE(2,4,(
    (#370,#371,#372,#373,#374,#375,#376,#377)
    ,(#378,#379,#380,#381,#382,#383,#384,#385)
    ,(#386,#387,#388,#389,#390,#391,#392,#393
)),.UNSPECIFIED.,.F.,.F.,.F.) B_SPLINE_SURFACE_WITH_KNOTS((3,3),(5,3,5),
  (0.,6.347629624074),(133.40817360362,139.75580322769,142.00166957042),
.UNSPECIFIED.) GEOMETRIC_REPRESENTATION_ITEM() RATIONAL_B_SPLINE_SURFACE
((
    (1.,1.,1.,1.,1.,1.,1.,1.)
    ,(0.707106781187,0.707106781187,0.707106781187,0.707106781187
      ,0.707106781187,0.707106781187,0.707106781187,0.707106781187)
,(1.,1.,1.,1.,1.,1.,1.,1.))) REPRESENTATION_ITEM('') SURFACE() );
#370 = CARTESIAN_POINT('',(-5.,21.074860913061,4.699165478367));
#371 = CARTESIAN_POINT('',(-5.,19.767087943749,5.598056448404));
#372 = CARTESIAN_POINT('',(-5.,18.461999981002,6.4951018931));
#373 = CARTESIAN_POINT('',(-5.,17.15864039743,7.39095934533));
#374 = CARTESIAN_POINT('',(-5.,15.39557095316,8.602795986851));
#375 = CARTESIAN_POINT('',(-5.,14.933510867596,8.920390591017));
#376 = CARTESIAN_POINT('',(-5.,14.470159903794,9.238872473648));
#377 = CARTESIAN_POINT('',(-5.,14.005518061753,9.558241634743));
#378 = CARTESIAN_POINT('',(-6.,21.074860913061,4.699165478367));
#379 = CARTESIAN_POINT('',(-6.,19.767087943749,5.598056448404));
#380 = CARTESIAN_POINT('',(-6.,18.461999981002,6.4951018931));
#381 = CARTESIAN_POINT('',(-6.,17.15864039743,7.39095934533));
#382 = CARTESIAN_POINT('',(-6.,15.39557095316,8.602795986851));
#383 = CARTESIAN_POINT('',(-6.,14.933510867596,8.920390591017));
#384 = CARTESIAN_POINT('',(-6.,14.470159903794,9.238872473648));
#385 = CARTESIAN_POINT('',(-6.,14.005518061753,9.558241634743));
#386 = CARTESIAN_POINT('',(-6.,20.433147884081,3.932220637822));
#387 = CARTESIAN_POINT('',(-6.,19.13160340304,4.825900148231));
#388 = CARTESIAN_POINT('',(-6.,17.832533651392,5.718024744002));
#389 = CARTESIAN_POINT('',(-6.,16.534967889659,6.609241616347));
#390 = CARTESIAN_POINT('',(-6.,14.779423947606,7.815160838269));
#391 = CARTESIAN_POINT('',(-6.,14.317958355195,8.132151039889));
#392 = CARTESIAN_POINT('',(-6.,13.853829626075,8.45097060486));
#393 = CARTESIAN_POINT('',(-6.,13.387037760245,8.771619533181));
#394 = ADVANCED_FACE('',(#395),#424,.T.);
#395 = FACE_BOUND('',#396,.T.);
#396 = EDGE_LOOP('',(#397,#408,#414,#415,#416,#417));
#397 = ORIENTED_EDGE('',*,*,#398,.T.);
#398 = EDGE_CURVE('',#399,#401,#403,.T.);
#399 = VERTEX_POINT('',#400);
#400 = CARTESIAN_POINT('',(0.,0.,3.25));
#401 = VERTEX_POINT('',#402);
#402 = CARTESIAN_POINT('',(6.,6.,3.25));
#403 = CIRCLE('',#404,6.);
#404 = AXIS2_PLACEMENT_3D('',#405,#406,#407);
#405 = CARTESIAN_POINT('',(0.,6.,3.25));
#406 = DIRECTION('',(0.,0.,1.));
#407 = DIRECTION('',(1.,0.,0.));
#408 = ORIENTED_EDGE('',*,*,#409,.F.);
#409 = EDGE_CURVE('',#234,#401,#410,.T.);
#410 = LINE('',#411,#412);
#411 = CARTESIAN_POINT('',(6.,6.,7.5));
#412 = VECTOR('',#413,1.);
#413 = DIRECTION('',(-0.,-0.,-1.));
#414 = ORIENTED_EDGE('',*,*,#233,.F.);
#415 = ORIENTED_EDGE('',*,*,#224,.F.);
#416 = ORIENTED_EDGE('',*,*,#139,.T.);
#417 = ORIENTED_EDGE('',*,*,#418,.T.);
#418 = EDGE_CURVE('',#132,#399,#419,.T.);
#419 = CIRCLE('',#420,6.);
#420 = AXIS2_PLACEMENT_3D('',#421,#422,#423);
#421 = CARTESIAN_POINT('',(0.,6.,3.25));
#422 = DIRECTION('',(0.,0.,1.));
#423 = DIRECTION('',(1.,0.,0.));
#424 = CYLINDRICAL_SURFACE('',#425,6.);
#425 = AXIS2_PLACEMENT_3D('',#426,#427,#428);
#426 = CARTESIAN_POINT('',(0.,6.,7.5));
#427 = DIRECTION('',(0.,0.,1.));
#428 = DIRECTION('',(1.,0.,0.));
#429 = ADVANCED_FACE('',(#430),#450,.T.);
#430 = FACE_BOUND('',#431,.F.);
#431 = EDGE_LOOP('',(#432,#441,#448,#449));
#432 = ORIENTED_EDGE('',*,*,#433,.F.);
#433 = EDGE_CURVE('',#434,#45,#436,.T.);
#434 = VERTEX_POINT('',#435);
#435 = CARTESIAN_POINT('',(-5.,23.,4.));
#436 = CIRCLE('',#437,1.);
#437 = AXIS2_PLACEMENT_3D('',#438,#439,#440);
#438 = CARTESIAN_POINT('',(-5.,23.,3.));
#439 = DIRECTION('',(0.,-1.,0.));
#440 = DIRECTION('',(0.,0.,1.));
#441 = ORIENTED_EDGE('',*,*,#442,.T.);
#442 = EDGE_CURVE('',#434,#349,#443,.T.);
#443 = CIRCLE('',#444,3.);
#444 = AXIS2_PLACEMENT_3D('',#445,#446,#447);
#445 = CARTESIAN_POINT('',(-5.,23.,7.));
#446 = DIRECTION('',(-1.,-0.,-0.));
#447 = DIRECTION('',(0.,0.,-1.));
#448 = ORIENTED_EDGE('',*,*,#348,.T.);
#449 = ORIENTED_EDGE('',*,*,#44,.F.);
#450 = TOROIDAL_SURFACE('',#451,4.,1.);
#451 = AXIS2_PLACEMENT_3D('',#452,#453,#454);
#452 = CARTESIAN_POINT('',(-5.,23.,7.));
#453 = DIRECTION('',(1.,0.,0.));
#454 = DIRECTION('',(0.,0.,-1.));
#455 = ADVANCED_FACE('',(#456,#475),#540,.F.);
#456 = FACE_BOUND('',#457,.F.);
#457 = EDGE_LOOP('',(#458,#466,#472,#473,#474));
#458 = ORIENTED_EDGE('',*,*,#459,.F.);
#459 = EDGE_CURVE('',#460,#401,#462,.T.);
#460 = VERTEX_POINT('',#461);
#461 = CARTESIAN_POINT('',(6.,12.,3.25));
#462 = LINE('',#463,#464);
#463 = CARTESIAN_POINT('',(6.,6.,3.25));
#464 = VECTOR('',#465,1.);
#465 = DIRECTION('',(0.,-1.,0.));
#466 = ORIENTED_EDGE('',*,*,#467,.T.);
#467 = EDGE_CURVE('',#460,#124,#468,.T.);
#468 = LINE('',#469,#470);
#469 = CARTESIAN_POINT('',(8.5,12.,3.25));
#470 = VECTOR('',#471,1.);
#471 = DIRECTION('',(-1.,-0.,-0.));
#472 = ORIENTED_EDGE('',*,*,#131,.F.);
#473 = ORIENTED_EDGE('',*,*,#418,.T.);
#474 = ORIENTED_EDGE('',*,*,#398,.T.);
#475 = FACE_BOUND('',#476,.F.);
#476 = EDGE_LOOP('',(#477,#488,#515));
#477 = ORIENTED_EDGE('',*,*,#478,.F.);
#478 = EDGE_CURVE('',#479,#481,#483,.T.);
#479 = VERTEX_POINT('',#480);
#480 = CARTESIAN_POINT('',(-7.4E-14,3.,3.25));
#481 = VERTEX_POINT('',#482);
#482 = CARTESIAN_POINT('',(7.4E-14,6.,3.25));
#483 = CIRCLE('',#484,1.5);
#484 = AXIS2_PLACEMENT_3D('',#485,#486,#487);
#485 = CARTESIAN_POINT('',(0.,4.5,3.25));
#486 = DIRECTION('',(0.,0.,1.));
#487 = DIRECTION('',(1.,0.,0.));
#488 = ORIENTED_EDGE('',*,*,#489,.T.);
#489 = EDGE_CURVE('',#479,#490,#492,.T.);
#490 = VERTEX_POINT('',#491);
#491 = CARTESIAN_POINT('',(-1.8,4.5,3.25));
#492 = B_SPLINE_CURVE_WITH_KNOTS('',6,(#493,#494,#495,#496,#497,#498,
    #499,#500,#501,#502,#503,#504,#505,#506,#507,#508,#509,#510,#511,
    #512,#513,#514),.UNSPECIFIED.,.F.,.F.,(7,5,5,5,7),(0.,0.401598813675
    ,0.574901309844,0.728809140722,1.),.UNSPECIFIED.);
#493 = CARTESIAN_POINT('',(-1.4744E-13,3.,3.25));
#494 = CARTESIAN_POINT('',(-0.177652198579,3.,3.25));
#495 = CARTESIAN_POINT('',(-0.355246713117,3.017533184755,3.25));
#496 = CARTESIAN_POINT('',(-0.530538788527,3.052580622873,3.25));
#497 = CARTESIAN_POINT('',(-0.701040592384,3.105170981021,3.25));
#498 = CARTESIAN_POINT('',(-0.864008657039,3.175132726412,3.25));
#499 = CARTESIAN_POINT('',(-1.082193300096,3.299534644914,3.25));
#500 = CARTESIAN_POINT('',(-1.145984047124,3.340181241913,3.25));
#501 = CARTESIAN_POINT('',(-1.207542036759,3.383929770309,3.25));
#502 = CARTESIAN_POINT('',(-1.266595872464,3.430717147831,3.25));
#503 = CARTESIAN_POINT('',(-1.32286152079,3.480453391588,3.25));
#504 = CARTESIAN_POINT('',(-1.423283691251,3.579691994768,3.25));
#505 = CARTESIAN_POINT('',(-1.468090410514,3.628597364421,3.25));
#506 = CARTESIAN_POINT('',(-1.510264357408,3.679640468334,3.25));
#507 = CARTESIAN_POINT('',(-1.549596621568,3.732708822177,3.25));
#508 = CARTESIAN_POINT('',(-1.585882399155,3.787661930126,3.25));
#509 = CARTESIAN_POINT('',(-1.677159491075,3.944170994931,3.25));
#510 = CARTESIAN_POINT('',(-1.725363666808,4.049378875438,3.25));
#511 = CARTESIAN_POINT('',(-1.76242002525,4.158920692023,3.25));
#512 = CARTESIAN_POINT('',(-1.787478087417,4.27154576331,3.25));
#513 = CARTESIAN_POINT('',(-1.8,4.38579220429,3.25));
#514 = CARTESIAN_POINT('',(-1.8,4.5,3.25));
#515 = ORIENTED_EDGE('',*,*,#516,.T.);
#516 = EDGE_CURVE('',#490,#481,#517,.T.);
#517 = B_SPLINE_CURVE_WITH_KNOTS('',6,(#518,#519,#520,#521,#522,#523,
    #524,#525,#526,#527,#528,#529,#530,#531,#532,#533,#534,#535,#536,
    #537,#538,#539),.UNSPECIFIED.,.F.,.F.,(7,5,5,5,7),(0.,0.271190859278
    ,0.425098690156,0.598401186325,1.),.UNSPECIFIED.);
#518 = CARTESIAN_POINT('',(-1.8,4.5,3.25));
#519 = CARTESIAN_POINT('',(-1.8,4.61420779571,3.25));
#520 = CARTESIAN_POINT('',(-1.787478087417,4.728454236689,3.25));
#521 = CARTESIAN_POINT('',(-1.76242002525,4.841079307977,3.25));
#522 = CARTESIAN_POINT('',(-1.725363666808,4.950621124562,3.25));
#523 = CARTESIAN_POINT('',(-1.677159491075,5.055829005069,3.25));
#524 = CARTESIAN_POINT('',(-1.585882399155,5.212338069874,3.25));
#525 = CARTESIAN_POINT('',(-1.549596621568,5.267291177823,3.25));
#526 = CARTESIAN_POINT('',(-1.510264357408,5.320359531666,3.25));
#527 = CARTESIAN_POINT('',(-1.468090410514,5.371402635579,3.25));
#528 = CARTESIAN_POINT('',(-1.423283691251,5.420308005232,3.25));
#529 = CARTESIAN_POINT('',(-1.32286152079,5.519546608412,3.25));
#530 = CARTESIAN_POINT('',(-1.266595872464,5.569282852169,3.25));
#531 = CARTESIAN_POINT('',(-1.207542036759,5.616070229691,3.25));
#532 = CARTESIAN_POINT('',(-1.145984047124,5.659818758087,3.25));
#533 = CARTESIAN_POINT('',(-1.082193300096,5.700465355086,3.25));
#534 = CARTESIAN_POINT('',(-0.864008657039,5.824867273588,3.25));
#535 = CARTESIAN_POINT('',(-0.701040592383,5.894829018979,3.25));
#536 = CARTESIAN_POINT('',(-0.530538788527,5.947419377127,3.25));
#537 = CARTESIAN_POINT('',(-0.355246713117,5.982466815245,3.25));
#538 = CARTESIAN_POINT('',(-0.177652198579,6.,3.25));
#539 = CARTESIAN_POINT('',(1.4744E-13,6.,3.25));
#540 = PLANE('',#541);
#541 = AXIS2_PLACEMENT_3D('',#542,#543,#544);
#542 = CARTESIAN_POINT('',(8.5,12.,3.25));
#543 = DIRECTION('',(0.,0.,1.));
#544 = DIRECTION('',(0.,-1.,0.));
#545 = ADVANCED_FACE('',(#546),#565,.T.);
#546 = FACE_BOUND('',#547,.T.);
#547 = EDGE_LOOP('',(#548,#557,#558,#559));
#548 = ORIENTED_EDGE('',*,*,#549,.T.);
#549 = EDGE_CURVE('',#550,#54,#552,.T.);
#550 = VERTEX_POINT('',#551);
#551 = CARTESIAN_POINT('',(-5.,78.,4.));
#552 = CIRCLE('',#553,1.);
#553 = AXIS2_PLACEMENT_3D('',#554,#555,#556);
#554 = CARTESIAN_POINT('',(-5.,78.,3.));
#555 = DIRECTION('',(-2.8E-16,-1.,-0.));
#556 = DIRECTION('',(-1.,2.8E-16,0.));
#557 = ORIENTED_EDGE('',*,*,#53,.T.);
#558 = ORIENTED_EDGE('',*,*,#433,.F.);
#559 = ORIENTED_EDGE('',*,*,#560,.F.);
#560 = EDGE_CURVE('',#550,#434,#561,.T.);
#561 = LINE('',#562,#563);
#562 = CARTESIAN_POINT('',(-5.,78.,4.));
#563 = VECTOR('',#564,1.);
#564 = DIRECTION('',(-0.,-1.,-0.));
#565 = CYLINDRICAL_SURFACE('',#566,1.);
#566 = AXIS2_PLACEMENT_3D('',#567,#568,#569);
#567 = CARTESIAN_POINT('',(-5.,78.,3.));
#568 = DIRECTION('',(-0.,-1.,-0.));
#569 = DIRECTION('',(0.,0.,1.));
#570 = ADVANCED_FACE('',(#571),#589,.F.);
#571 = FACE_BOUND('',#572,.F.);
#572 = EDGE_LOOP('',(#573,#581,#587,#588));
#573 = ORIENTED_EDGE('',*,*,#574,.F.);
#574 = EDGE_CURVE('',#575,#460,#577,.T.);
#575 = VERTEX_POINT('',#576);
#576 = CARTESIAN_POINT('',(6.,12.,-3.25));
#577 = LINE('',#578,#579);
#578 = CARTESIAN_POINT('',(6.,12.,-5.375));
#579 = VECTOR('',#580,1.);
#580 = DIRECTION('',(0.,0.,1.));
#581 = ORIENTED_EDGE('',*,*,#582,.T.);
#582 = EDGE_CURVE('',#575,#116,#583,.T.);
#583 = LINE('',#584,#585);
#584 = CARTESIAN_POINT('',(8.5,12.,-3.25));
#585 = VECTOR('',#586,1.);
#586 = DIRECTION('',(-1.,-0.,-0.));
#587 = ORIENTED_EDGE('',*,*,#123,.F.);
#588 = ORIENTED_EDGE('',*,*,#467,.F.);
#589 = PLANE('',#590);
#590 = AXIS2_PLACEMENT_3D('',#591,#592,#593);
#591 = CARTESIAN_POINT('',(8.5,12.,-3.25));
#592 = DIRECTION('',(0.,1.,0.));
#593 = DIRECTION('',(0.,0.,1.));
#594 = ADVANCED_FACE('',(#595),#622,.T.);
#595 = FACE_BOUND('',#596,.T.);
#596 = EDGE_LOOP('',(#597,#598,#607,#615));
#597 = ORIENTED_EDGE('',*,*,#61,.F.);
#598 = ORIENTED_EDGE('',*,*,#599,.F.);
#599 = EDGE_CURVE('',#600,#54,#602,.T.);
#600 = VERTEX_POINT('',#601);
#601 = CARTESIAN_POINT('',(-4.,80.,3.));
#602 = CIRCLE('',#603,2.);
#603 = AXIS2_PLACEMENT_3D('',#604,#605,#606);
#604 = CARTESIAN_POINT('',(-4.,78.,3.));
#605 = DIRECTION('',(0.,-0.,1.));
#606 = DIRECTION('',(0.,1.,0.));
#607 = ORIENTED_EDGE('',*,*,#608,.T.);
#608 = EDGE_CURVE('',#600,#609,#611,.T.);
#609 = VERTEX_POINT('',#610);
#610 = CARTESIAN_POINT('',(-4.,80.,-3.));
#611 = LINE('',#612,#613);
#612 = CARTESIAN_POINT('',(-4.,80.,4.));
#613 = VECTOR('',#614,1.);
#614 = DIRECTION('',(0.,-2.2E-16,-1.));
#615 = ORIENTED_EDGE('',*,*,#616,.F.);
#616 = EDGE_CURVE('',#62,#609,#617,.T.);
#617 = CIRCLE('',#618,2.);
#618 = AXIS2_PLACEMENT_3D('',#619,#620,#621);
#619 = CARTESIAN_POINT('',(-4.,78.,-3.));
#620 = DIRECTION('',(0.,0.,-1.));
#621 = DIRECTION('',(-1.,0.,0.));
#622 = CYLINDRICAL_SURFACE('',#623,2.);
#623 = AXIS2_PLACEMENT_3D('',#624,#625,#626);
#624 = CARTESIAN_POINT('',(-4.,78.,4.));
#625 = DIRECTION('',(0.,-2.2E-16,-1.));
#626 = DIRECTION('',(-1.,0.,0.));
#627 = ADVANCED_FACE('',(#628,#656),#721,.F.);
#628 = FACE_BOUND('',#629,.F.);
#629 = EDGE_LOOP('',(#630,#638,#647,#654,#655));
#630 = ORIENTED_EDGE('',*,*,#631,.F.);
#631 = EDGE_CURVE('',#632,#575,#634,.T.);
#632 = VERTEX_POINT('',#633);
#633 = CARTESIAN_POINT('',(6.,6.,-3.25));
#634 = LINE('',#635,#636);
#635 = CARTESIAN_POINT('',(6.,-8.3E-16,-3.25));
#636 = VECTOR('',#637,1.);
#637 = DIRECTION('',(0.,1.,0.));
#638 = ORIENTED_EDGE('',*,*,#639,.F.);
#639 = EDGE_CURVE('',#640,#632,#642,.T.);
#640 = VERTEX_POINT('',#641);
#641 = CARTESIAN_POINT('',(0.,0.,-3.25));
#642 = CIRCLE('',#643,6.);
#643 = AXIS2_PLACEMENT_3D('',#644,#645,#646);
#644 = CARTESIAN_POINT('',(0.,6.,-3.25));
#645 = DIRECTION('',(0.,0.,1.));
#646 = DIRECTION('',(1.,0.,0.));
#647 = ORIENTED_EDGE('',*,*,#648,.F.);
#648 = EDGE_CURVE('',#108,#640,#649,.T.);
#649 = CIRCLE('',#650,6.);
#650 = AXIS2_PLACEMENT_3D('',#651,#652,#653);
#651 = CARTESIAN_POINT('',(0.,6.,-3.25));
#652 = DIRECTION('',(0.,0.,1.));
#653 = DIRECTION('',(1.,0.,0.));
#654 = ORIENTED_EDGE('',*,*,#115,.F.);
#655 = ORIENTED_EDGE('',*,*,#582,.F.);
#656 = FACE_BOUND('',#657,.F.);
#657 = EDGE_LOOP('',(#658,#687,#696));
#658 = ORIENTED_EDGE('',*,*,#659,.F.);
#659 = EDGE_CURVE('',#660,#662,#664,.T.);
#660 = VERTEX_POINT('',#661);
#661 = CARTESIAN_POINT('',(-7.4E-14,3.,-3.25));
#662 = VERTEX_POINT('',#663);
#663 = CARTESIAN_POINT('',(-1.8,4.5,-3.25));
#664 = B_SPLINE_CURVE_WITH_KNOTS('',6,(#665,#666,#667,#668,#669,#670,
    #671,#672,#673,#674,#675,#676,#677,#678,#679,#680,#681,#682,#683,
    #684,#685,#686),.UNSPECIFIED.,.F.,.F.,(7,5,5,5,7),(0.,0.401598813675
    ,0.574901309844,0.728809140722,1.),.UNSPECIFIED.);
#665 = CARTESIAN_POINT('',(-1.4744E-13,3.,-3.25));
#666 = CARTESIAN_POINT('',(-0.177652198579,3.,-3.25));
#667 = CARTESIAN_POINT('',(-0.355246713117,3.017533184755,-3.25));
#668 = CARTESIAN_POINT('',(-0.530538788527,3.052580622873,-3.25));
#669 = CARTESIAN_POINT('',(-0.701040592383,3.105170981021,-3.25));
#670 = CARTESIAN_POINT('',(-0.864008657039,3.175132726412,-3.25));
#671 = CARTESIAN_POINT('',(-1.082193300096,3.299534644914,-3.25));
#672 = CARTESIAN_POINT('',(-1.145984047124,3.340181241913,-3.25));
#673 = CARTESIAN_POINT('',(-1.207542036759,3.383929770309,-3.25));
#674 = CARTESIAN_POINT('',(-1.266595872464,3.430717147831,-3.25));
#675 = CARTESIAN_POINT('',(-1.32286152079,3.480453391588,-3.25));
#676 = CARTESIAN_POINT('',(-1.423283691251,3.579691994768,-3.25));
#677 = CARTESIAN_POINT('',(-1.468090410514,3.628597364421,-3.25));
#678 = CARTESIAN_POINT('',(-1.510264357408,3.679640468334,-3.25));
#679 = CARTESIAN_POINT('',(-1.549596621568,3.732708822177,-3.25));
#680 = CARTESIAN_POINT('',(-1.585882399155,3.787661930126,-3.25));
#681 = CARTESIAN_POINT('',(-1.677159491075,3.944170994931,-3.25));
#682 = CARTESIAN_POINT('',(-1.725363666808,4.049378875438,-3.25));
#683 = CARTESIAN_POINT('',(-1.76242002525,4.158920692023,-3.25));
#684 = CARTESIAN_POINT('',(-1.787478087417,4.27154576331,-3.25));
#685 = CARTESIAN_POINT('',(-1.8,4.38579220429,-3.25));
#686 = CARTESIAN_POINT('',(-1.8,4.5,-3.25));
#687 = ORIENTED_EDGE('',*,*,#688,.T.);
#688 = EDGE_CURVE('',#660,#689,#691,.T.);
#689 = VERTEX_POINT('',#690);
#690 = CARTESIAN_POINT('',(7.4E-14,6.,-3.25));
#691 = CIRCLE('',#692,1.5);
#692 = AXIS2_PLACEMENT_3D('',#693,#694,#695);
#693 = CARTESIAN_POINT('',(0.,4.5,-3.25));
#694 = DIRECTION('',(0.,0.,1.));
#695 = DIRECTION('',(1.,0.,0.));
#696 = ORIENTED_EDGE('',*,*,#697,.F.);
#697 = EDGE_CURVE('',#662,#689,#698,.T.);
#698 = B_SPLINE_CURVE_WITH_KNOTS('',6,(#699,#700,#701,#702,#703,#704,
    #705,#706,#707,#708,#709,#710,#711,#712,#713,#714,#715,#716,#717,
    #718,#719,#720),.UNSPECIFIED.,.F.,.F.,(7,5,5,5,7),(0.,0.271190859278
    ,0.425098690156,0.598401186325,1.),.UNSPECIFIED.);
#699 = CARTESIAN_POINT('',(-1.8,4.5,-3.25));
#700 = CARTESIAN_POINT('',(-1.8,4.61420779571,-3.25));
#701 = CARTESIAN_POINT('',(-1.787478087417,4.728454236689,-3.25));
#702 = CARTESIAN_POINT('',(-1.76242002525,4.841079307977,-3.25));
#703 = CARTESIAN_POINT('',(-1.725363666808,4.950621124562,-3.25));
#704 = CARTESIAN_POINT('',(-1.677159491075,5.055829005069,-3.25));
#705 = CARTESIAN_POINT('',(-1.585882399155,5.212338069874,-3.25));
#706 = CARTESIAN_POINT('',(-1.549596621568,5.267291177823,-3.25));
#707 = CARTESIAN_POINT('',(-1.510264357408,5.320359531666,-3.25));
#708 = CARTESIAN_POINT('',(-1.468090410514,5.371402635579,-3.25));
#709 = CARTESIAN_POINT('',(-1.423283691251,5.420308005232,-3.25));
#710 = CARTESIAN_POINT('',(-1.32286152079,5.519546608412,-3.25));
#711 = CARTESIAN_POINT('',(-1.266595872464,5.569282852169,-3.25));
#712 = CARTESIAN_POINT('',(-1.207542036759,5.616070229691,-3.25));
#713 = CARTESIAN_POINT('',(-1.145984047124,5.659818758087,-3.25));
#714 = CARTESIAN_POINT('',(-1.082193300096,5.700465355086,-3.25));
#715 = CARTESIAN_POINT('',(-0.864008657039,5.824867273588,-3.25));
#716 = CARTESIAN_POINT('',(-0.701040592383,5.894829018979,-3.25));
#717 = CARTESIAN_POINT('',(-0.530538788527,5.947419377127,-3.25));
#718 = CARTESIAN_POINT('',(-0.355246713117,5.982466815245,-3.25));
#719 = CARTESIAN_POINT('',(-0.177652198579,6.,-3.25));
#720 = CARTESIAN_POINT('',(1.4744E-13,6.,-3.25));
#721 = PLANE('',#722);
#722 = AXIS2_PLACEMENT_3D('',#723,#724,#725);
#723 = CARTESIAN_POINT('',(8.5,0.,-3.25));
#724 = DIRECTION('',(0.,0.,-1.));
#725 = DIRECTION('',(0.,1.,0.));
#726 = ADVANCED_FACE('',(#727),#754,.T.);
#727 = FACE_BOUND('',#728,.T.);
#728 = EDGE_LOOP('',(#729,#738,#739,#748));
#729 = ORIENTED_EDGE('',*,*,#730,.T.);
#730 = EDGE_CURVE('',#731,#70,#733,.T.);
#731 = VERTEX_POINT('',#732);
#732 = CARTESIAN_POINT('',(-5.,23.,-4.));
#733 = CIRCLE('',#734,1.);
#734 = AXIS2_PLACEMENT_3D('',#735,#736,#737);
#735 = CARTESIAN_POINT('',(-5.,23.,-3.));
#736 = DIRECTION('',(0.,1.,-8.9E-16));
#737 = DIRECTION('',(0.,8.9E-16,1.));
#738 = ORIENTED_EDGE('',*,*,#69,.T.);
#739 = ORIENTED_EDGE('',*,*,#740,.F.);
#740 = EDGE_CURVE('',#741,#62,#743,.T.);
#741 = VERTEX_POINT('',#742);
#742 = CARTESIAN_POINT('',(-5.,78.,-4.));
#743 = CIRCLE('',#744,1.);
#744 = AXIS2_PLACEMENT_3D('',#745,#746,#747);
#745 = CARTESIAN_POINT('',(-5.,78.,-3.));
#746 = DIRECTION('',(0.,1.,0.));
#747 = DIRECTION('',(0.,0.,-1.));
#748 = ORIENTED_EDGE('',*,*,#749,.F.);
#749 = EDGE_CURVE('',#731,#741,#750,.T.);
#750 = LINE('',#751,#752);
#751 = CARTESIAN_POINT('',(-5.,23.,-4.));
#752 = VECTOR('',#753,1.);
#753 = DIRECTION('',(0.,1.,0.));
#754 = CYLINDRICAL_SURFACE('',#755,1.);
#755 = AXIS2_PLACEMENT_3D('',#756,#757,#758);
#756 = CARTESIAN_POINT('',(-5.,23.,-3.));
#757 = DIRECTION('',(0.,1.,0.));
#758 = DIRECTION('',(0.,0.,-1.));
#759 = ADVANCED_FACE('',(#760),#789,.T.);
#760 = FACE_BOUND('',#761,.T.);
#761 = EDGE_LOOP('',(#762,#773,#779,#780,#781,#782));
#762 = ORIENTED_EDGE('',*,*,#763,.T.);
#763 = EDGE_CURVE('',#764,#766,#768,.T.);
#764 = VERTEX_POINT('',#765);
#765 = CARTESIAN_POINT('',(1.E-14,-1.E-15,-7.5));
#766 = VERTEX_POINT('',#767);
#767 = CARTESIAN_POINT('',(6.,6.,-7.5));
#768 = CIRCLE('',#769,6.);
#769 = AXIS2_PLACEMENT_3D('',#770,#771,#772);
#770 = CARTESIAN_POINT('',(0.,6.,-7.5));
#771 = DIRECTION('',(0.,0.,1.));
#772 = DIRECTION('',(1.,0.,0.));
#773 = ORIENTED_EDGE('',*,*,#774,.F.);
#774 = EDGE_CURVE('',#632,#766,#775,.T.);
#775 = LINE('',#776,#777);
#776 = CARTESIAN_POINT('',(6.,6.,7.5));
#777 = VECTOR('',#778,1.);
#778 = DIRECTION('',(-0.,-0.,-1.));
#779 = ORIENTED_EDGE('',*,*,#639,.F.);
#780 = ORIENTED_EDGE('',*,*,#648,.F.);
#781 = ORIENTED_EDGE('',*,*,#107,.T.);
#782 = ORIENTED_EDGE('',*,*,#783,.T.);
#783 = EDGE_CURVE('',#100,#764,#784,.T.);
#784 = CIRCLE('',#785,6.);
#785 = AXIS2_PLACEMENT_3D('',#786,#787,#788);
#786 = CARTESIAN_POINT('',(0.,6.,-7.5));
#787 = DIRECTION('',(0.,0.,1.));
#788 = DIRECTION('',(1.,0.,0.));
#789 = CYLINDRICAL_SURFACE('',#790,6.);
#790 = AXIS2_PLACEMENT_3D('',#791,#792,#793);
#791 = CARTESIAN_POINT('',(0.,6.,7.5));
#792 = DIRECTION('',(0.,0.,1.));
#793 = DIRECTION('',(1.,0.,0.));
#794 = ADVANCED_FACE('',(#795),#814,.T.);
#795 = FACE_BOUND('',#796,.F.);
#796 = EDGE_LOOP('',(#797,#805,#812,#813));
#797 = ORIENTED_EDGE('',*,*,#798,.F.);
#798 = EDGE_CURVE('',#799,#78,#801,.T.);
#799 = VERTEX_POINT('',#800);
#800 = CARTESIAN_POINT('',(-5.,21.074860913061,-4.699165478367));
#801 = ( BOUNDED_CURVE() B_SPLINE_CURVE(2,(#802,#803,#804),
.UNSPECIFIED.,.F.,.F.) B_SPLINE_CURVE_WITH_KNOTS((3,3),(0.,
6.347629624073),.PIECEWISE_BEZIER_KNOTS.) CURVE() 
GEOMETRIC_REPRESENTATION_ITEM() RATIONAL_B_SPLINE_CURVE((1.,
0.707106781187,1.)) REPRESENTATION_ITEM('') );
#802 = CARTESIAN_POINT('',(-5.,21.074860913061,-4.699165478367));
#803 = CARTESIAN_POINT('',(-6.,21.074860913061,-4.699165478367));
#804 = CARTESIAN_POINT('',(-6.,20.433147884081,-3.932220637822));
#805 = ORIENTED_EDGE('',*,*,#806,.T.);
#806 = EDGE_CURVE('',#799,#731,#807,.T.);
#807 = CIRCLE('',#808,3.);
#808 = AXIS2_PLACEMENT_3D('',#809,#810,#811);
#809 = CARTESIAN_POINT('',(-5.,23.,-7.));
#810 = DIRECTION('',(-1.,0.,0.));
#811 = DIRECTION('',(0.,-0.64171302898,0.766944840544));
#812 = ORIENTED_EDGE('',*,*,#730,.T.);
#813 = ORIENTED_EDGE('',*,*,#77,.F.);
#814 = TOROIDAL_SURFACE('',#815,4.,1.);
#815 = AXIS2_PLACEMENT_3D('',#816,#817,#818);
#816 = CARTESIAN_POINT('',(-5.,23.,-7.));
#817 = DIRECTION('',(1.,0.,0.));
#818 = DIRECTION('',(0.,-0.64171302898,0.766944840544));
#819 = ADVANCED_FACE('',(#820),#866,.T.);
#820 = FACE_BOUND('',#821,.T.);
#821 = EDGE_LOOP('',(#822,#853,#854,#855));
#822 = ORIENTED_EDGE('',*,*,#823,.T.);
#823 = EDGE_CURVE('',#824,#87,#826,.T.);
#824 = VERTEX_POINT('',#825);
#825 = CARTESIAN_POINT('',(-5.,17.,-7.5));
#826 = B_SPLINE_CURVE_WITH_KNOTS('',7,(#827,#828,#829,#830,#831,#832,
    #833,#834,#835,#836,#837,#838,#839,#840,#841,#842,#843,#844,#845,
    #846,#847,#848,#849,#850,#851,#852),.UNSPECIFIED.,.F.,.F.,(8,6,6,6,8
    ),(0.,0.206584186394,0.527056820522,0.863410830205,1.),
  .UNSPECIFIED.);
#827 = CARTESIAN_POINT('',(-5.,17.,-7.5));
#828 = CARTESIAN_POINT('',(-5.044330064948,17.,-7.5));
#829 = CARTESIAN_POINT('',(-5.089568521582,16.995962441646,-7.5));
#830 = CARTESIAN_POINT('',(-5.13550377483,16.987589987687,-7.5));
#831 = CARTESIAN_POINT('',(-5.181880586581,16.974631730541,-7.5));
#832 = CARTESIAN_POINT('',(-5.228404423326,16.956915151665,-7.5));
#833 = CARTESIAN_POINT('',(-5.274754087612,16.934369413688,-7.5));
#834 = CARTESIAN_POINT('',(-5.391727168426,16.86464403023,-7.5));
#835 = CARTESIAN_POINT('',(-5.46166852345,16.81072228177,-7.5));
#836 = CARTESIAN_POINT('',(-5.529187111959,16.745439319065,-7.5));
#837 = CARTESIAN_POINT('',(-5.59311634538,16.669575997216,-7.5));
#838 = CARTESIAN_POINT('',(-5.652539471562,16.584432932393,-7.5));
#839 = CARTESIAN_POINT('',(-5.706833045586,16.491514413278,-7.5));
#840 = CARTESIAN_POINT('',(-5.806830247766,16.288305272297,-7.5));
#841 = CARTESIAN_POINT('',(-5.851981834367,16.177367849064,-7.5));
#842 = CARTESIAN_POINT('',(-5.890682799937,16.061255471379,-7.5));
#843 = CARTESIAN_POINT('',(-5.922811181031,15.94169096813,-7.5));
#844 = CARTESIAN_POINT('',(-5.948453805654,15.820269856422,-7.5));
#845 = CARTESIAN_POINT('',(-5.967847162033,15.698387782164,-7.5));
#846 = CARTESIAN_POINT('',(-5.986795474351,15.528049491478,-7.5));
#847 = CARTESIAN_POINT('',(-5.991291714165,15.478979600542,-7.5));
#848 = CARTESIAN_POINT('',(-5.994834063481,15.430116949947,-7.5));
#849 = CARTESIAN_POINT('',(-5.997447553179,15.381539446897,-7.5));
#850 = CARTESIAN_POINT('',(-5.999159661467,15.333320390258,-7.5));
#851 = CARTESIAN_POINT('',(-6.,15.285528242777,-7.5));
#852 = CARTESIAN_POINT('',(-6.,15.238226403308,-7.5));
#853 = ORIENTED_EDGE('',*,*,#86,.T.);
#854 = ORIENTED_EDGE('',*,*,#798,.F.);
#855 = ORIENTED_EDGE('',*,*,#856,.F.);
#856 = EDGE_CURVE('',#824,#799,#857,.T.);
#857 = B_SPLINE_CURVE_WITH_KNOTS('',4,(#858,#859,#860,#861,#862,#863,
    #864,#865),.UNSPECIFIED.,.F.,.F.,(5,3,5),(-3.648886227112,
    -1.403019884329,4.944609739744),.UNSPECIFIED.);
#858 = CARTESIAN_POINT('',(-5.,14.005518061704,-9.558241634777));
#859 = CARTESIAN_POINT('',(-5.,14.470159903758,-9.238872473673));
#860 = CARTESIAN_POINT('',(-5.,14.933510867572,-8.920390591034));
#861 = CARTESIAN_POINT('',(-5.,15.395570953148,-8.602795986859));
#862 = CARTESIAN_POINT('',(-5.,17.15864039743,-7.39095934533));
#863 = CARTESIAN_POINT('',(-5.,18.461999981002,-6.4951018931));
#864 = CARTESIAN_POINT('',(-5.,19.76708794375,-5.598056448403));
#865 = CARTESIAN_POINT('',(-5.,21.074860913061,-4.699165478367));
#866 = ( BOUNDED_SURFACE() B_SPLINE_SURFACE(2,4,(
    (#867,#868,#869,#870,#871,#872,#873,#874)
    ,(#875,#876,#877,#878,#879,#880,#881,#882)
    ,(#883,#884,#885,#886,#887,#888,#889,#890
)),.UNSPECIFIED.,.F.,.F.,.F.) B_SPLINE_SURFACE_WITH_KNOTS((3,3),(5,3,5),
  (0.,6.347629624073),(-3.648886227112,-1.403019884329,4.944609739744),
.UNSPECIFIED.) GEOMETRIC_REPRESENTATION_ITEM() RATIONAL_B_SPLINE_SURFACE
((
    (1.,1.,1.,1.,1.,1.,1.,1.)
    ,(0.707106781187,0.707106781187,0.707106781187,0.707106781187
      ,0.707106781187,0.707106781187,0.707106781187,0.707106781187)
,(1.,1.,1.,1.,1.,1.,1.,1.))) REPRESENTATION_ITEM('') SURFACE() );
#867 = CARTESIAN_POINT('',(-5.,14.005518061704,-9.558241634777));
#868 = CARTESIAN_POINT('',(-5.,14.470159903758,-9.238872473673));
#869 = CARTESIAN_POINT('',(-5.,14.933510867572,-8.920390591034));
#870 = CARTESIAN_POINT('',(-5.,15.395570953148,-8.602795986859));
#871 = CARTESIAN_POINT('',(-5.,17.15864039743,-7.39095934533));
#872 = CARTESIAN_POINT('',(-5.,18.461999981002,-6.4951018931));
#873 = CARTESIAN_POINT('',(-5.,19.76708794375,-5.598056448403));
#874 = CARTESIAN_POINT('',(-5.,21.074860913061,-4.699165478367));
#875 = CARTESIAN_POINT('',(-6.,14.005518061704,-9.558241634777));
#876 = CARTESIAN_POINT('',(-6.,14.470159903758,-9.238872473673));
#877 = CARTESIAN_POINT('',(-6.,14.933510867572,-8.920390591034));
#878 = CARTESIAN_POINT('',(-6.,15.395570953148,-8.602795986859));
#879 = CARTESIAN_POINT('',(-6.,17.15864039743,-7.39095934533));
#880 = CARTESIAN_POINT('',(-6.,18.461999981002,-6.4951018931));
#881 = CARTESIAN_POINT('',(-6.,19.76708794375,-5.598056448403));
#882 = CARTESIAN_POINT('',(-6.,21.074860913061,-4.699165478367));
#883 = CARTESIAN_POINT('',(-6.,13.387037760195,-8.771619533215));
#884 = CARTESIAN_POINT('',(-6.,13.853829626038,-8.450970604885));
#885 = CARTESIAN_POINT('',(-6.,14.317958355171,-8.132151039906));
#886 = CARTESIAN_POINT('',(-6.,14.779423947594,-7.815160838277));
#887 = CARTESIAN_POINT('',(-6.,16.534967889659,-6.609241616347));
#888 = CARTESIAN_POINT('',(-6.,17.832533651392,-5.718024744002));
#889 = CARTESIAN_POINT('',(-6.,19.13160340304,-4.825900148231));
#890 = CARTESIAN_POINT('',(-6.,20.433147884081,-3.932220637822));
#891 = ADVANCED_FACE('',(#892),#917,.F.);
#892 = FACE_BOUND('',#893,.F.);
#893 = EDGE_LOOP('',(#894,#904,#910,#911));
#894 = ORIENTED_EDGE('',*,*,#895,.F.);
#895 = EDGE_CURVE('',#896,#898,#900,.T.);
#896 = VERTEX_POINT('',#897);
#897 = CARTESIAN_POINT('',(6.,73.,0.25));
#898 = VERTEX_POINT('',#899);
#899 = CARTESIAN_POINT('',(6.,73.,-0.25));
#900 = LINE('',#901,#902);
#901 = CARTESIAN_POINT('',(6.,73.,-3.125));
#902 = VECTOR('',#903,1.);
#903 = DIRECTION('',(0.,0.,-1.));
#904 = ORIENTED_EDGE('',*,*,#905,.T.);
#905 = EDGE_CURVE('',#896,#150,#906,.T.);
#906 = LINE('',#907,#908);
#907 = CARTESIAN_POINT('',(6.,73.,0.25));
#908 = VECTOR('',#909,1.);
#909 = DIRECTION('',(-1.,-0.,-0.));
#910 = ORIENTED_EDGE('',*,*,#147,.F.);
#911 = ORIENTED_EDGE('',*,*,#912,.F.);
#912 = EDGE_CURVE('',#898,#148,#913,.T.);
#913 = LINE('',#914,#915);
#914 = CARTESIAN_POINT('',(6.,73.,-0.25));
#915 = VECTOR('',#916,1.);
#916 = DIRECTION('',(-1.,-0.,-0.));
#917 = PLANE('',#918);
#918 = AXIS2_PLACEMENT_3D('',#919,#920,#921);
#919 = CARTESIAN_POINT('',(8.,73.,1.25));
#920 = DIRECTION('',(0.,-1.,0.));
#921 = DIRECTION('',(0.,0.,-1.));
#922 = ADVANCED_FACE('',(#923),#942,.F.);
#923 = FACE_BOUND('',#924,.T.);
#924 = EDGE_LOOP('',(#925,#934,#940,#941));
#925 = ORIENTED_EDGE('',*,*,#926,.T.);
#926 = EDGE_CURVE('',#898,#927,#929,.T.);
#927 = VERTEX_POINT('',#928);
#928 = CARTESIAN_POINT('',(6.,74.,-1.25));
#929 = CIRCLE('',#930,1.);
#930 = AXIS2_PLACEMENT_3D('',#931,#932,#933);
#931 = CARTESIAN_POINT('',(6.,74.,-0.25));
#932 = DIRECTION('',(1.,-0.,0.));
#933 = DIRECTION('',(0.,0.,-1.));
#934 = ORIENTED_EDGE('',*,*,#935,.T.);
#935 = EDGE_CURVE('',#927,#158,#936,.T.);
#936 = LINE('',#937,#938);
#937 = CARTESIAN_POINT('',(6.,74.,-1.25));
#938 = VECTOR('',#939,1.);
#939 = DIRECTION('',(-1.,-0.,-0.));
#940 = ORIENTED_EDGE('',*,*,#157,.F.);
#941 = ORIENTED_EDGE('',*,*,#912,.F.);
#942 = CYLINDRICAL_SURFACE('',#943,1.);
#943 = AXIS2_PLACEMENT_3D('',#944,#945,#946);
#944 = CARTESIAN_POINT('',(6.,74.,-0.25));
#945 = DIRECTION('',(-1.,-0.,-0.));
#946 = DIRECTION('',(0.,-1.,0.));
#947 = ADVANCED_FACE('',(#948),#967,.F.);
#948 = FACE_BOUND('',#949,.F.);
#949 = EDGE_LOOP('',(#950,#959,#965,#966));
#950 = ORIENTED_EDGE('',*,*,#951,.T.);
#951 = EDGE_CURVE('',#896,#952,#954,.T.);
#952 = VERTEX_POINT('',#953);
#953 = CARTESIAN_POINT('',(6.,74.,1.25));
#954 = CIRCLE('',#955,1.);
#955 = AXIS2_PLACEMENT_3D('',#956,#957,#958);
#956 = CARTESIAN_POINT('',(6.,74.,0.25));
#957 = DIRECTION('',(-1.,-0.,-0.));
#958 = DIRECTION('',(0.,0.,-1.));
#959 = ORIENTED_EDGE('',*,*,#960,.T.);
#960 = EDGE_CURVE('',#952,#201,#961,.T.);
#961 = LINE('',#962,#963);
#962 = CARTESIAN_POINT('',(6.,74.,1.25));
#963 = VECTOR('',#964,1.);
#964 = DIRECTION('',(-1.,-0.,-0.));
#965 = ORIENTED_EDGE('',*,*,#208,.F.);
#966 = ORIENTED_EDGE('',*,*,#905,.F.);
#967 = CYLINDRICAL_SURFACE('',#968,1.);
#968 = AXIS2_PLACEMENT_3D('',#969,#970,#971);
#969 = CARTESIAN_POINT('',(6.,74.,0.25));
#970 = DIRECTION('',(-1.,-0.,-0.));
#971 = DIRECTION('',(0.,-1.,0.));
#972 = ADVANCED_FACE('',(#973),#991,.F.);
#973 = FACE_BOUND('',#974,.F.);
#974 = EDGE_LOOP('',(#975,#983,#984,#985));
#975 = ORIENTED_EDGE('',*,*,#976,.F.);
#976 = EDGE_CURVE('',#927,#977,#979,.T.);
#977 = VERTEX_POINT('',#978);
#978 = CARTESIAN_POINT('',(6.,76.,-1.25));
#979 = LINE('',#980,#981);
#980 = CARTESIAN_POINT('',(6.,36.5,-1.25));
#981 = VECTOR('',#982,1.);
#982 = DIRECTION('',(0.,1.,0.));
#983 = ORIENTED_EDGE('',*,*,#935,.T.);
#984 = ORIENTED_EDGE('',*,*,#166,.F.);
#985 = ORIENTED_EDGE('',*,*,#986,.F.);
#986 = EDGE_CURVE('',#977,#167,#987,.T.);
#987 = LINE('',#988,#989);
#988 = CARTESIAN_POINT('',(6.,76.,-1.25));
#989 = VECTOR('',#990,1.);
#990 = DIRECTION('',(-1.,-0.,-0.));
#991 = PLANE('',#992);
#992 = AXIS2_PLACEMENT_3D('',#993,#994,#995);
#993 = CARTESIAN_POINT('',(8.,73.,-1.25));
#994 = DIRECTION('',(0.,0.,-1.));
#995 = DIRECTION('',(0.,1.,0.));
#996 = ADVANCED_FACE('',(#997),#1015,.F.);
#997 = FACE_BOUND('',#998,.F.);
#998 = EDGE_LOOP('',(#999,#1007,#1013,#1014));
#999 = ORIENTED_EDGE('',*,*,#1000,.F.);
#1000 = EDGE_CURVE('',#1001,#952,#1003,.T.);
#1001 = VERTEX_POINT('',#1002);
#1002 = CARTESIAN_POINT('',(6.,76.,1.25));
#1003 = LINE('',#1004,#1005);
#1004 = CARTESIAN_POINT('',(6.,38.5,1.25));
#1005 = VECTOR('',#1006,1.);
#1006 = DIRECTION('',(0.,-1.,0.));
#1007 = ORIENTED_EDGE('',*,*,#1008,.T.);
#1008 = EDGE_CURVE('',#1001,#192,#1009,.T.);
#1009 = LINE('',#1010,#1011);
#1010 = CARTESIAN_POINT('',(6.,76.,1.25));
#1011 = VECTOR('',#1012,1.);
#1012 = DIRECTION('',(-1.,-0.,-0.));
#1013 = ORIENTED_EDGE('',*,*,#200,.F.);
#1014 = ORIENTED_EDGE('',*,*,#960,.F.);
#1015 = PLANE('',#1016);
#1016 = AXIS2_PLACEMENT_3D('',#1017,#1018,#1019);
#1017 = CARTESIAN_POINT('',(8.,77.,1.25));
#1018 = DIRECTION('',(0.,0.,1.));
#1019 = DIRECTION('',(0.,-1.,0.));
#1020 = ADVANCED_FACE('',(#1021),#1040,.F.);
#1021 = FACE_BOUND('',#1022,.F.);
#1022 = EDGE_LOOP('',(#1023,#1032,#1033,#1034));
#1023 = ORIENTED_EDGE('',*,*,#1024,.T.);
#1024 = EDGE_CURVE('',#1025,#977,#1027,.T.);
#1025 = VERTEX_POINT('',#1026);
#1026 = CARTESIAN_POINT('',(6.,77.,-0.25));
#1027 = CIRCLE('',#1028,1.);
#1028 = AXIS2_PLACEMENT_3D('',#1029,#1030,#1031);
#1029 = CARTESIAN_POINT('',(6.,76.,-0.25));
#1030 = DIRECTION('',(-1.,-0.,-0.));
#1031 = DIRECTION('',(0.,0.,-1.));
#1032 = ORIENTED_EDGE('',*,*,#986,.T.);
#1033 = ORIENTED_EDGE('',*,*,#174,.F.);
#1034 = ORIENTED_EDGE('',*,*,#1035,.F.);
#1035 = EDGE_CURVE('',#1025,#175,#1036,.T.);
#1036 = LINE('',#1037,#1038);
#1037 = CARTESIAN_POINT('',(6.,77.,-0.25));
#1038 = VECTOR('',#1039,1.);
#1039 = DIRECTION('',(-1.,-0.,-0.));
#1040 = CYLINDRICAL_SURFACE('',#1041,1.);
#1041 = AXIS2_PLACEMENT_3D('',#1042,#1043,#1044);
#1042 = CARTESIAN_POINT('',(6.,76.,-0.25));
#1043 = DIRECTION('',(-1.,-0.,-0.));
#1044 = DIRECTION('',(0.,1.,0.));
#1045 = ADVANCED_FACE('',(#1046),#1065,.F.);
#1046 = FACE_BOUND('',#1047,.F.);
#1047 = EDGE_LOOP('',(#1048,#1057,#1063,#1064));
#1048 = ORIENTED_EDGE('',*,*,#1049,.T.);
#1049 = EDGE_CURVE('',#1001,#1050,#1052,.T.);
#1050 = VERTEX_POINT('',#1051);
#1051 = CARTESIAN_POINT('',(6.,77.,0.25));
#1052 = CIRCLE('',#1053,1.);
#1053 = AXIS2_PLACEMENT_3D('',#1054,#1055,#1056);
#1054 = CARTESIAN_POINT('',(6.,76.,0.25));
#1055 = DIRECTION('',(-1.,-0.,-0.));
#1056 = DIRECTION('',(0.,0.,-1.));
#1057 = ORIENTED_EDGE('',*,*,#1058,.T.);
#1058 = EDGE_CURVE('',#1050,#184,#1059,.T.);
#1059 = LINE('',#1060,#1061);
#1060 = CARTESIAN_POINT('',(6.,77.,0.25));
#1061 = VECTOR('',#1062,1.);
#1062 = DIRECTION('',(-1.,-0.,-0.));
#1063 = ORIENTED_EDGE('',*,*,#191,.F.);
#1064 = ORIENTED_EDGE('',*,*,#1008,.F.);
#1065 = CYLINDRICAL_SURFACE('',#1066,1.);
#1066 = AXIS2_PLACEMENT_3D('',#1067,#1068,#1069);
#1067 = CARTESIAN_POINT('',(6.,76.,0.25));
#1068 = DIRECTION('',(-1.,-0.,-0.));
#1069 = DIRECTION('',(0.,0.,1.));
#1070 = ADVANCED_FACE('',(#1071),#1082,.F.);
#1071 = FACE_BOUND('',#1072,.F.);
#1072 = EDGE_LOOP('',(#1073,#1079,#1080,#1081));
#1073 = ORIENTED_EDGE('',*,*,#1074,.F.);
#1074 = EDGE_CURVE('',#1025,#1050,#1075,.T.);
#1075 = LINE('',#1076,#1077);
#1076 = CARTESIAN_POINT('',(6.,77.,-4.375));
#1077 = VECTOR('',#1078,1.);
#1078 = DIRECTION('',(0.,0.,1.));
#1079 = ORIENTED_EDGE('',*,*,#1035,.T.);
#1080 = ORIENTED_EDGE('',*,*,#183,.F.);
#1081 = ORIENTED_EDGE('',*,*,#1058,.F.);
#1082 = PLANE('',#1083);
#1083 = AXIS2_PLACEMENT_3D('',#1084,#1085,#1086);
#1084 = CARTESIAN_POINT('',(8.,77.,-1.25));
#1085 = DIRECTION('',(0.,1.,0.));
#1086 = DIRECTION('',(0.,0.,1.));
#1087 = ADVANCED_FACE('',(#1088),#1113,.T.);
#1088 = FACE_BOUND('',#1089,.T.);
#1089 = EDGE_LOOP('',(#1090,#1100,#1101,#1102));
#1090 = ORIENTED_EDGE('',*,*,#1091,.F.);
#1091 = EDGE_CURVE('',#349,#1092,#1094,.T.);
#1092 = VERTEX_POINT('',#1093);
#1093 = CARTESIAN_POINT('',(5.,21.074860913061,4.699165478367));
#1094 = B_SPLINE_CURVE_WITH_KNOTS('',2,(#1095,#1096,#1097,#1098,#1099),
  .UNSPECIFIED.,.F.,.F.,(3,1,1,3),(-0.7344,-1.376E-14,12.,12.7344),
  .UNSPECIFIED.);
#1095 = CARTESIAN_POINT('',(-6.7344,21.074860913061,4.699165478367));
#1096 = CARTESIAN_POINT('',(-6.3672,21.074860913061,4.699165478367));
#1097 = CARTESIAN_POINT('',(8.9E-16,21.074860913061,4.699165478367));
#1098 = CARTESIAN_POINT('',(6.3672,21.074860913061,4.699165478367));
#1099 = CARTESIAN_POINT('',(6.7344,21.074860913061,4.699165478367));
#1100 = ORIENTED_EDGE('',*,*,#359,.T.);
#1101 = ORIENTED_EDGE('',*,*,#281,.T.);
#1102 = ORIENTED_EDGE('',*,*,#1103,.T.);
#1103 = EDGE_CURVE('',#251,#1092,#1104,.T.);
#1104 = B_SPLINE_CURVE_WITH_KNOTS('',4,(#1105,#1106,#1107,#1108,#1109,
    #1110,#1111,#1112),.UNSPECIFIED.,.F.,.F.,(5,3,5),(-3.64888622714,
    -1.403019884329,4.944609739744),.UNSPECIFIED.);
#1105 = CARTESIAN_POINT('',(5.,14.005518061681,9.558241634792));
#1106 = CARTESIAN_POINT('',(5.,14.470159903741,9.238872473685));
#1107 = CARTESIAN_POINT('',(5.,14.933510867561,8.920390591042));
#1108 = CARTESIAN_POINT('',(5.,15.395570953143,8.602795986863));
#1109 = CARTESIAN_POINT('',(5.,17.158640397431,7.39095934533));
#1110 = CARTESIAN_POINT('',(5.,18.461999981002,6.4951018931));
#1111 = CARTESIAN_POINT('',(5.,19.76708794375,5.598056448403));
#1112 = CARTESIAN_POINT('',(5.,21.074860913061,4.699165478367));
#1113 = B_SPLINE_SURFACE_WITH_KNOTS('',1,2,(
    (#1114,#1115,#1116,#1117,#1118)
    ,(#1119,#1120,#1121,#1122,#1123
    )),.UNSPECIFIED.,.F.,.F.,.F.,(2,2),(3,1,1,3),(0.,12.),(-0.7344,
    -1.376E-14,12.,12.7344),.UNSPECIFIED.);
#1114 = CARTESIAN_POINT('',(-6.7344,21.074860913061,4.699165478367));
#1115 = CARTESIAN_POINT('',(-6.3672,21.074860913061,4.699165478367));
#1116 = CARTESIAN_POINT('',(8.9E-16,21.074860913061,4.699165478367));
#1117 = CARTESIAN_POINT('',(6.3672,21.074860913061,4.699165478367));
#1118 = CARTESIAN_POINT('',(6.7344,21.074860913061,4.699165478367));
#1119 = CARTESIAN_POINT('',(-6.7344,17.,7.5));
#1120 = CARTESIAN_POINT('',(-6.3672,17.,7.5));
#1121 = CARTESIAN_POINT('',(0.,17.,7.5));
#1122 = CARTESIAN_POINT('',(6.3672,17.,7.5));
#1123 = CARTESIAN_POINT('',(6.7344,17.,7.5));
#1124 = ADVANCED_FACE('',(#1125),#1148,.T.);
#1125 = FACE_BOUND('',#1126,.T.);
#1126 = EDGE_LOOP('',(#1127,#1128,#1141,#1147));
#1127 = ORIENTED_EDGE('',*,*,#250,.T.);
#1128 = ORIENTED_EDGE('',*,*,#1129,.T.);
#1129 = EDGE_CURVE('',#243,#1130,#1132,.T.);
#1130 = VERTEX_POINT('',#1131);
#1131 = CARTESIAN_POINT('',(6.,20.433147884081,3.932220637822));
#1132 = B_SPLINE_CURVE_WITH_KNOTS('',4,(#1133,#1134,#1135,#1136,#1137,
    #1138,#1139,#1140),.UNSPECIFIED.,.F.,.F.,(5,3,5),(-3.64888622714,
    -1.403019884329,4.944609739744),.UNSPECIFIED.);
#1133 = CARTESIAN_POINT('',(6.,13.387037760172,8.771619533232));
#1134 = CARTESIAN_POINT('',(6.,13.85382962602,8.450970604897));
#1135 = CARTESIAN_POINT('',(6.,14.317958355159,8.132151039914));
#1136 = CARTESIAN_POINT('',(6.,14.779423947588,7.815160838281));
#1137 = CARTESIAN_POINT('',(6.,16.534967889659,6.609241616347));
#1138 = CARTESIAN_POINT('',(6.,17.832533651392,5.718024744002));
#1139 = CARTESIAN_POINT('',(6.,19.13160340304,4.825900148231));
#1140 = CARTESIAN_POINT('',(6.,20.433147884081,3.932220637822));
#1141 = ORIENTED_EDGE('',*,*,#1142,.F.);
#1142 = EDGE_CURVE('',#1092,#1130,#1143,.T.);
#1143 = ( BOUNDED_CURVE() B_SPLINE_CURVE(2,(#1144,#1145,#1146),
.UNSPECIFIED.,.F.,.F.) B_SPLINE_CURVE_WITH_KNOTS((3,3),(0.,
6.347629624073),.PIECEWISE_BEZIER_KNOTS.) CURVE() 
GEOMETRIC_REPRESENTATION_ITEM() RATIONAL_B_SPLINE_CURVE((1.,
0.707106781187,1.)) REPRESENTATION_ITEM('') );
#1144 = CARTESIAN_POINT('',(5.,21.074860913061,4.699165478367));
#1145 = CARTESIAN_POINT('',(6.,21.074860913061,4.699165478367));
#1146 = CARTESIAN_POINT('',(6.,20.433147884081,3.932220637822));
#1147 = ORIENTED_EDGE('',*,*,#1103,.F.);
#1148 = ( BOUNDED_SURFACE() B_SPLINE_SURFACE(2,4,(
    (#1149,#1150,#1151,#1152,#1153,#1154,#1155,#1156)
    ,(#1157,#1158,#1159,#1160,#1161,#1162,#1163,#1164)
    ,(#1165,#1166,#1167,#1168,#1169,#1170,#1171,#1172
)),.UNSPECIFIED.,.F.,.F.,.F.) B_SPLINE_SURFACE_WITH_KNOTS((3,3),(5,3,5),
  (0.,6.347629624073),(-3.64888622714,-1.403019884329,4.944609739744),
.UNSPECIFIED.) GEOMETRIC_REPRESENTATION_ITEM() RATIONAL_B_SPLINE_SURFACE
((
    (1.,1.,1.,1.,1.,1.,1.,1.)
    ,(0.707106781187,0.707106781187,0.707106781187,0.707106781187
      ,0.707106781187,0.707106781187,0.707106781187,0.707106781187)
,(1.,1.,1.,1.,1.,1.,1.,1.))) REPRESENTATION_ITEM('') SURFACE() );
#1149 = CARTESIAN_POINT('',(5.,14.005518061681,9.558241634792));
#1150 = CARTESIAN_POINT('',(5.,14.470159903741,9.238872473685));
#1151 = CARTESIAN_POINT('',(5.,14.933510867561,8.920390591042));
#1152 = CARTESIAN_POINT('',(5.,15.395570953143,8.602795986863));
#1153 = CARTESIAN_POINT('',(5.,17.158640397431,7.39095934533));
#1154 = CARTESIAN_POINT('',(5.,18.461999981002,6.4951018931));
#1155 = CARTESIAN_POINT('',(5.,19.76708794375,5.598056448403));
#1156 = CARTESIAN_POINT('',(5.,21.074860913061,4.699165478367));
#1157 = CARTESIAN_POINT('',(6.,14.005518061681,9.558241634792));
#1158 = CARTESIAN_POINT('',(6.,14.470159903741,9.238872473685));
#1159 = CARTESIAN_POINT('',(6.,14.933510867561,8.920390591042));
#1160 = CARTESIAN_POINT('',(6.,15.395570953143,8.602795986863));
#1161 = CARTESIAN_POINT('',(6.,17.158640397431,7.39095934533));
#1162 = CARTESIAN_POINT('',(6.,18.461999981002,6.4951018931));
#1163 = CARTESIAN_POINT('',(6.,19.76708794375,5.598056448403));
#1164 = CARTESIAN_POINT('',(6.,21.074860913061,4.699165478367));
#1165 = CARTESIAN_POINT('',(6.,13.387037760172,8.771619533232));
#1166 = CARTESIAN_POINT('',(6.,13.85382962602,8.450970604897));
#1167 = CARTESIAN_POINT('',(6.,14.317958355159,8.132151039914));
#1168 = CARTESIAN_POINT('',(6.,14.779423947588,7.815160838281));
#1169 = CARTESIAN_POINT('',(6.,16.534967889659,6.609241616347));
#1170 = CARTESIAN_POINT('',(6.,17.832533651392,5.718024744002));
#1171 = CARTESIAN_POINT('',(6.,19.13160340304,4.825900148231));
#1172 = CARTESIAN_POINT('',(6.,20.433147884081,3.932220637822));
#1173 = ADVANCED_FACE('',(#1174,#1244),#1254,.T.);
#1174 = FACE_BOUND('',#1175,.T.);
#1175 = EDGE_LOOP('',(#1176,#1184,#1197,#1206,#1214,#1222,#1230,#1237,
    #1238,#1239,#1240,#1241,#1242,#1243));
#1176 = ORIENTED_EDGE('',*,*,#1177,.T.);
#1177 = EDGE_CURVE('',#766,#1178,#1180,.T.);
#1178 = VERTEX_POINT('',#1179);
#1179 = CARTESIAN_POINT('',(6.,15.238226403308,-7.5));
#1180 = LINE('',#1181,#1182);
#1181 = CARTESIAN_POINT('',(6.,-1.67E-15,-7.5));
#1182 = VECTOR('',#1183,1.);
#1183 = DIRECTION('',(0.,1.,-2.2E-16));
#1184 = ORIENTED_EDGE('',*,*,#1185,.F.);
#1185 = EDGE_CURVE('',#1186,#1178,#1188,.T.);
#1186 = VERTEX_POINT('',#1187);
#1187 = CARTESIAN_POINT('',(6.,20.433147884081,-3.932220637822));
#1188 = B_SPLINE_CURVE_WITH_KNOTS('',4,(#1189,#1190,#1191,#1192,#1193,
    #1194,#1195,#1196),.UNSPECIFIED.,.F.,.F.,(5,3,5),(133.40817360362,
    139.75580322769,142.00166957046),.UNSPECIFIED.);
#1189 = CARTESIAN_POINT('',(6.,20.433147884081,-3.932220637822));
#1190 = CARTESIAN_POINT('',(6.,19.13160340304,-4.825900148231));
#1191 = CARTESIAN_POINT('',(6.,17.832533651392,-5.718024744002));
#1192 = CARTESIAN_POINT('',(6.,16.534967889659,-6.609241616347));
#1193 = CARTESIAN_POINT('',(6.,14.779423947598,-7.815160838275));
#1194 = CARTESIAN_POINT('',(6.,14.317958355178,-8.132151039901));
#1195 = CARTESIAN_POINT('',(6.,13.853829626049,-8.450970604877));
#1196 = CARTESIAN_POINT('',(6.,13.38703776021,-8.771619533205));
#1197 = ORIENTED_EDGE('',*,*,#1198,.F.);
#1198 = EDGE_CURVE('',#1199,#1186,#1201,.T.);
#1199 = VERTEX_POINT('',#1200);
#1200 = CARTESIAN_POINT('',(6.,23.,-3.));
#1201 = CIRCLE('',#1202,4.);
#1202 = AXIS2_PLACEMENT_3D('',#1203,#1204,#1205);
#1203 = CARTESIAN_POINT('',(6.,23.,-7.));
#1204 = DIRECTION('',(1.,0.,-0.));
#1205 = DIRECTION('',(0.,0.,1.));
#1206 = ORIENTED_EDGE('',*,*,#1207,.F.);
#1207 = EDGE_CURVE('',#1208,#1199,#1210,.T.);
#1208 = VERTEX_POINT('',#1209);
#1209 = CARTESIAN_POINT('',(6.,78.,-3.));
#1210 = LINE('',#1211,#1212);
#1211 = CARTESIAN_POINT('',(6.,78.,-3.));
#1212 = VECTOR('',#1213,1.);
#1213 = DIRECTION('',(0.,-1.,0.));
#1214 = ORIENTED_EDGE('',*,*,#1215,.T.);
#1215 = EDGE_CURVE('',#1208,#1216,#1218,.T.);
#1216 = VERTEX_POINT('',#1217);
#1217 = CARTESIAN_POINT('',(6.,78.,3.));
#1218 = LINE('',#1219,#1220);
#1219 = CARTESIAN_POINT('',(6.,78.,-4.));
#1220 = VECTOR('',#1221,1.);
#1221 = DIRECTION('',(0.,2.2E-16,1.));
#1222 = ORIENTED_EDGE('',*,*,#1223,.F.);
#1223 = EDGE_CURVE('',#1224,#1216,#1226,.T.);
#1224 = VERTEX_POINT('',#1225);
#1225 = CARTESIAN_POINT('',(6.,23.,3.));
#1226 = LINE('',#1227,#1228);
#1227 = CARTESIAN_POINT('',(6.,23.,3.));
#1228 = VECTOR('',#1229,1.);
#1229 = DIRECTION('',(0.,1.,0.));
#1230 = ORIENTED_EDGE('',*,*,#1231,.F.);
#1231 = EDGE_CURVE('',#1130,#1224,#1232,.T.);
#1232 = CIRCLE('',#1233,4.);
#1233 = AXIS2_PLACEMENT_3D('',#1234,#1235,#1236);
#1234 = CARTESIAN_POINT('',(6.,23.,7.));
#1235 = DIRECTION('',(1.,0.,0.));
#1236 = DIRECTION('',(0.,-0.64171302898,-0.766944840544));
#1237 = ORIENTED_EDGE('',*,*,#1129,.F.);
#1238 = ORIENTED_EDGE('',*,*,#242,.F.);
#1239 = ORIENTED_EDGE('',*,*,#409,.T.);
#1240 = ORIENTED_EDGE('',*,*,#459,.F.);
#1241 = ORIENTED_EDGE('',*,*,#574,.F.);
#1242 = ORIENTED_EDGE('',*,*,#631,.F.);
#1243 = ORIENTED_EDGE('',*,*,#774,.T.);
#1244 = FACE_BOUND('',#1245,.T.);
#1245 = EDGE_LOOP('',(#1246,#1247,#1248,#1249,#1250,#1251,#1252,#1253));
#1246 = ORIENTED_EDGE('',*,*,#895,.F.);
#1247 = ORIENTED_EDGE('',*,*,#951,.T.);
#1248 = ORIENTED_EDGE('',*,*,#1000,.F.);
#1249 = ORIENTED_EDGE('',*,*,#1049,.T.);
#1250 = ORIENTED_EDGE('',*,*,#1074,.F.);
#1251 = ORIENTED_EDGE('',*,*,#1024,.T.);
#1252 = ORIENTED_EDGE('',*,*,#976,.F.);
#1253 = ORIENTED_EDGE('',*,*,#926,.F.);
#1254 = PLANE('',#1255);
#1255 = AXIS2_PLACEMENT_3D('',#1256,#1257,#1258);
#1256 = CARTESIAN_POINT('',(6.,-1.67E-15,-7.5));
#1257 = DIRECTION('',(1.,0.,0.));
#1258 = DIRECTION('',(0.,2.2E-16,1.));
#1259 = ADVANCED_FACE('',(#1260),#1276,.F.);
#1260 = FACE_BOUND('',#1261,.F.);
#1261 = EDGE_LOOP('',(#1262,#1263,#1269,#1270));
#1262 = ORIENTED_EDGE('',*,*,#322,.F.);
#1263 = ORIENTED_EDGE('',*,*,#1264,.T.);
#1264 = EDGE_CURVE('',#323,#479,#1265,.T.);
#1265 = LINE('',#1266,#1267);
#1266 = CARTESIAN_POINT('',(-7.35E-14,3.,7.5));
#1267 = VECTOR('',#1268,1.);
#1268 = DIRECTION('',(-0.,-0.,-1.));
#1269 = ORIENTED_EDGE('',*,*,#478,.T.);
#1270 = ORIENTED_EDGE('',*,*,#1271,.F.);
#1271 = EDGE_CURVE('',#325,#481,#1272,.T.);
#1272 = LINE('',#1273,#1274);
#1273 = CARTESIAN_POINT('',(7.429E-14,6.,7.5));
#1274 = VECTOR('',#1275,1.);
#1275 = DIRECTION('',(-0.,-0.,-1.));
#1276 = CYLINDRICAL_SURFACE('',#1277,1.5);
#1277 = AXIS2_PLACEMENT_3D('',#1278,#1279,#1280);
#1278 = CARTESIAN_POINT('',(0.,4.5,7.5));
#1279 = DIRECTION('',(0.,0.,1.));
#1280 = DIRECTION('',(1.,0.,0.));
#1281 = ADVANCED_FACE('',(#1282),#1289,.F.);
#1282 = FACE_BOUND('',#1283,.F.);
#1283 = EDGE_LOOP('',(#1284,#1285,#1286,#1287,#1288));
#1284 = ORIENTED_EDGE('',*,*,#333,.F.);
#1285 = ORIENTED_EDGE('',*,*,#1271,.T.);
#1286 = ORIENTED_EDGE('',*,*,#516,.F.);
#1287 = ORIENTED_EDGE('',*,*,#489,.F.);
#1288 = ORIENTED_EDGE('',*,*,#1264,.F.);
#1289 = SURFACE_OF_LINEAR_EXTRUSION('',#1290,#1295);
#1290 = ELLIPSE('',#1291,1.8,1.5);
#1291 = AXIS2_PLACEMENT_3D('',#1292,#1293,#1294);
#1292 = CARTESIAN_POINT('',(0.,4.5,7.5));
#1293 = DIRECTION('',(0.,0.,1.));
#1294 = DIRECTION('',(-1.,-1.339E-14,0.));
#1295 = VECTOR('',#1296,1.);
#1296 = DIRECTION('',(0.,0.,1.));
#1297 = ADVANCED_FACE('',(#1298),#1317,.F.);
#1298 = FACE_BOUND('',#1299,.F.);
#1299 = EDGE_LOOP('',(#1300,#1301,#1302,#1310));
#1300 = ORIENTED_EDGE('',*,*,#1091,.F.);
#1301 = ORIENTED_EDGE('',*,*,#442,.F.);
#1302 = ORIENTED_EDGE('',*,*,#1303,.F.);
#1303 = EDGE_CURVE('',#1304,#434,#1306,.T.);
#1304 = VERTEX_POINT('',#1305);
#1305 = CARTESIAN_POINT('',(5.,23.,4.));
#1306 = LINE('',#1307,#1308);
#1307 = CARTESIAN_POINT('',(6.,23.,4.));
#1308 = VECTOR('',#1309,1.);
#1309 = DIRECTION('',(-1.,-0.,-0.));
#1310 = ORIENTED_EDGE('',*,*,#1311,.F.);
#1311 = EDGE_CURVE('',#1092,#1304,#1312,.T.);
#1312 = CIRCLE('',#1313,3.);
#1313 = AXIS2_PLACEMENT_3D('',#1314,#1315,#1316);
#1314 = CARTESIAN_POINT('',(5.,23.,7.));
#1315 = DIRECTION('',(1.,0.,0.));
#1316 = DIRECTION('',(0.,-0.64171302898,-0.766944840544));
#1317 = CYLINDRICAL_SURFACE('',#1318,3.);
#1318 = AXIS2_PLACEMENT_3D('',#1319,#1320,#1321);
#1319 = CARTESIAN_POINT('',(6.,23.,7.));
#1320 = DIRECTION('',(-1.,-0.,-0.));
#1321 = DIRECTION('',(0.,0.,-1.));
#1322 = ADVANCED_FACE('',(#1323),#1343,.T.);
#1323 = FACE_BOUND('',#1324,.F.);
#1324 = EDGE_LOOP('',(#1325,#1334,#1341,#1342));
#1325 = ORIENTED_EDGE('',*,*,#1326,.F.);
#1326 = EDGE_CURVE('',#1327,#600,#1329,.T.);
#1327 = VERTEX_POINT('',#1328);
#1328 = CARTESIAN_POINT('',(-4.,79.,4.));
#1329 = CIRCLE('',#1330,1.);
#1330 = AXIS2_PLACEMENT_3D('',#1331,#1332,#1333);
#1331 = CARTESIAN_POINT('',(-4.,79.,3.));
#1332 = DIRECTION('',(-1.,0.,0.));
#1333 = DIRECTION('',(0.,0.,1.));
#1334 = ORIENTED_EDGE('',*,*,#1335,.T.);
#1335 = EDGE_CURVE('',#1327,#550,#1336,.T.);
#1336 = CIRCLE('',#1337,1.);
#1337 = AXIS2_PLACEMENT_3D('',#1338,#1339,#1340);
#1338 = CARTESIAN_POINT('',(-4.,78.,4.));
#1339 = DIRECTION('',(0.,-0.,1.));
#1340 = DIRECTION('',(0.,1.,0.));
#1341 = ORIENTED_EDGE('',*,*,#549,.T.);
#1342 = ORIENTED_EDGE('',*,*,#599,.F.);
#1343 = TOROIDAL_SURFACE('',#1344,1.,1.);
#1344 = AXIS2_PLACEMENT_3D('',#1345,#1346,#1347);
#1345 = CARTESIAN_POINT('',(-4.,78.,3.));
#1346 = DIRECTION('',(0.,0.,-1.));
#1347 = DIRECTION('',(0.,1.,0.));
#1348 = ADVANCED_FACE('',(#1349),#1377,.F.);
#1349 = FACE_BOUND('',#1350,.F.);
#1350 = EDGE_LOOP('',(#1351,#1352,#1353,#1354,#1362,#1371));
#1351 = ORIENTED_EDGE('',*,*,#1303,.T.);
#1352 = ORIENTED_EDGE('',*,*,#560,.F.);
#1353 = ORIENTED_EDGE('',*,*,#1335,.F.);
#1354 = ORIENTED_EDGE('',*,*,#1355,.F.);
#1355 = EDGE_CURVE('',#1356,#1327,#1358,.T.);
#1356 = VERTEX_POINT('',#1357);
#1357 = CARTESIAN_POINT('',(4.,79.,4.));
#1358 = LINE('',#1359,#1360);
#1359 = CARTESIAN_POINT('',(4.,79.,4.));
#1360 = VECTOR('',#1361,1.);
#1361 = DIRECTION('',(-1.,0.,0.));
#1362 = ORIENTED_EDGE('',*,*,#1363,.F.);
#1363 = EDGE_CURVE('',#1364,#1356,#1366,.T.);
#1364 = VERTEX_POINT('',#1365);
#1365 = CARTESIAN_POINT('',(5.,78.,4.));
#1366 = CIRCLE('',#1367,1.);
#1367 = AXIS2_PLACEMENT_3D('',#1368,#1369,#1370);
#1368 = CARTESIAN_POINT('',(4.,78.,4.));
#1369 = DIRECTION('',(0.,0.,1.));
#1370 = DIRECTION('',(1.,0.,0.));
#1371 = ORIENTED_EDGE('',*,*,#1372,.F.);
#1372 = EDGE_CURVE('',#1304,#1364,#1373,.T.);
#1373 = LINE('',#1374,#1375);
#1374 = CARTESIAN_POINT('',(5.,23.,4.));
#1375 = VECTOR('',#1376,1.);
#1376 = DIRECTION('',(0.,1.,0.));
#1377 = PLANE('',#1378);
#1378 = AXIS2_PLACEMENT_3D('',#1379,#1380,#1381);
#1379 = CARTESIAN_POINT('',(6.5,20.,4.));
#1380 = DIRECTION('',(0.,0.,-1.));
#1381 = DIRECTION('',(0.,1.,0.));
#1382 = ADVANCED_FACE('',(#1383),#1403,.T.);
#1383 = FACE_BOUND('',#1384,.F.);
#1384 = EDGE_LOOP('',(#1385,#1386,#1395,#1402));
#1385 = ORIENTED_EDGE('',*,*,#740,.F.);
#1386 = ORIENTED_EDGE('',*,*,#1387,.T.);
#1387 = EDGE_CURVE('',#741,#1388,#1390,.T.);
#1388 = VERTEX_POINT('',#1389);
#1389 = CARTESIAN_POINT('',(-4.,79.,-4.));
#1390 = CIRCLE('',#1391,1.);
#1391 = AXIS2_PLACEMENT_3D('',#1392,#1393,#1394);
#1392 = CARTESIAN_POINT('',(-4.,78.,-4.));
#1393 = DIRECTION('',(0.,0.,-1.));
#1394 = DIRECTION('',(-1.,0.,0.));
#1395 = ORIENTED_EDGE('',*,*,#1396,.T.);
#1396 = EDGE_CURVE('',#1388,#609,#1397,.T.);
#1397 = CIRCLE('',#1398,1.);
#1398 = AXIS2_PLACEMENT_3D('',#1399,#1400,#1401);
#1399 = CARTESIAN_POINT('',(-4.,79.,-3.));
#1400 = DIRECTION('',(1.,6.E-17,-0.));
#1401 = DIRECTION('',(-6.E-17,1.,0.));
#1402 = ORIENTED_EDGE('',*,*,#616,.F.);
#1403 = TOROIDAL_SURFACE('',#1404,1.,1.);
#1404 = AXIS2_PLACEMENT_3D('',#1405,#1406,#1407);
#1405 = CARTESIAN_POINT('',(-4.,78.,-3.));
#1406 = DIRECTION('',(0.,0.,1.));
#1407 = DIRECTION('',(-1.,0.,0.));
#1408 = ADVANCED_FACE('',(#1409),#1434,.T.);
#1409 = FACE_BOUND('',#1410,.T.);
#1410 = EDGE_LOOP('',(#1411,#1412,#1420,#1428));
#1411 = ORIENTED_EDGE('',*,*,#608,.F.);
#1412 = ORIENTED_EDGE('',*,*,#1413,.F.);
#1413 = EDGE_CURVE('',#1414,#600,#1416,.T.);
#1414 = VERTEX_POINT('',#1415);
#1415 = CARTESIAN_POINT('',(4.,80.,3.));
#1416 = LINE('',#1417,#1418);
#1417 = CARTESIAN_POINT('',(4.,80.,3.));
#1418 = VECTOR('',#1419,1.);
#1419 = DIRECTION('',(-1.,0.,0.));
#1420 = ORIENTED_EDGE('',*,*,#1421,.F.);
#1421 = EDGE_CURVE('',#1422,#1414,#1424,.T.);
#1422 = VERTEX_POINT('',#1423);
#1423 = CARTESIAN_POINT('',(4.,80.,-3.));
#1424 = LINE('',#1425,#1426);
#1425 = CARTESIAN_POINT('',(4.,80.,-4.));
#1426 = VECTOR('',#1427,1.);
#1427 = DIRECTION('',(0.,2.2E-16,1.));
#1428 = ORIENTED_EDGE('',*,*,#1429,.F.);
#1429 = EDGE_CURVE('',#609,#1422,#1430,.T.);
#1430 = LINE('',#1431,#1432);
#1431 = CARTESIAN_POINT('',(-4.,80.,-3.));
#1432 = VECTOR('',#1433,1.);
#1433 = DIRECTION('',(1.,0.,0.));
#1434 = PLANE('',#1435);
#1435 = AXIS2_PLACEMENT_3D('',#1436,#1437,#1438);
#1436 = CARTESIAN_POINT('',(1.05E-15,80.,-1.721E-14));
#1437 = DIRECTION('',(0.,1.,0.));
#1438 = DIRECTION('',(0.,0.,1.));
#1439 = ADVANCED_FACE('',(#1440),#1512,.F.);
#1440 = FACE_BOUND('',#1441,.F.);
#1441 = EDGE_LOOP('',(#1442,#1443,#1444,#1452,#1479,#1506));
#1442 = ORIENTED_EDGE('',*,*,#659,.T.);
#1443 = ORIENTED_EDGE('',*,*,#697,.T.);
#1444 = ORIENTED_EDGE('',*,*,#1445,.T.);
#1445 = EDGE_CURVE('',#689,#1446,#1448,.T.);
#1446 = VERTEX_POINT('',#1447);
#1447 = CARTESIAN_POINT('',(7.4E-14,6.,-5.3));
#1448 = LINE('',#1449,#1450);
#1449 = CARTESIAN_POINT('',(7.429E-14,6.,7.5));
#1450 = VECTOR('',#1451,1.);
#1451 = DIRECTION('',(-0.,-0.,-1.));
#1452 = ORIENTED_EDGE('',*,*,#1453,.F.);
#1453 = EDGE_CURVE('',#1454,#1446,#1456,.T.);
#1454 = VERTEX_POINT('',#1455);
#1455 = CARTESIAN_POINT('',(-1.8,4.5,-5.3));
#1456 = B_SPLINE_CURVE_WITH_KNOTS('',6,(#1457,#1458,#1459,#1460,#1461,
    #1462,#1463,#1464,#1465,#1466,#1467,#1468,#1469,#1470,#1471,#1472,
    #1473,#1474,#1475,#1476,#1477,#1478),.UNSPECIFIED.,.F.,.F.,(7,5,5,5,
    7),(0.,0.271190859278,0.425098690156,0.598401186325,1.),
  .UNSPECIFIED.);
#1457 = CARTESIAN_POINT('',(-1.8,4.5,-5.3));
#1458 = CARTESIAN_POINT('',(-1.8,4.61420779571,-5.3));
#1459 = CARTESIAN_POINT('',(-1.787478087417,4.728454236689,-5.3));
#1460 = CARTESIAN_POINT('',(-1.76242002525,4.841079307977,-5.3));
#1461 = CARTESIAN_POINT('',(-1.725363666808,4.950621124562,-5.3));
#1462 = CARTESIAN_POINT('',(-1.677159491075,5.055829005069,-5.3));
#1463 = CARTESIAN_POINT('',(-1.585882399155,5.212338069874,-5.3));
#1464 = CARTESIAN_POINT('',(-1.549596621568,5.267291177823,-5.3));
#1465 = CARTESIAN_POINT('',(-1.510264357408,5.320359531666,-5.3));
#1466 = CARTESIAN_POINT('',(-1.468090410514,5.371402635579,-5.3));
#1467 = CARTESIAN_POINT('',(-1.423283691251,5.420308005232,-5.3));
#1468 = CARTESIAN_POINT('',(-1.32286152079,5.519546608412,-5.3));
#1469 = CARTESIAN_POINT('',(-1.266595872464,5.569282852169,-5.3));
#1470 = CARTESIAN_POINT('',(-1.207542036759,5.616070229691,-5.3));
#1471 = CARTESIAN_POINT('',(-1.145984047124,5.659818758087,-5.3));
#1472 = CARTESIAN_POINT('',(-1.082193300096,5.700465355086,-5.3));
#1473 = CARTESIAN_POINT('',(-0.864008657039,5.824867273588,-5.3));
#1474 = CARTESIAN_POINT('',(-0.701040592383,5.894829018979,-5.3));
#1475 = CARTESIAN_POINT('',(-0.530538788527,5.947419377127,-5.3));
#1476 = CARTESIAN_POINT('',(-0.355246713117,5.982466815245,-5.3));
#1477 = CARTESIAN_POINT('',(-0.177652198579,6.,-5.3));
#1478 = CARTESIAN_POINT('',(1.4815E-13,6.,-5.3));
#1479 = ORIENTED_EDGE('',*,*,#1480,.F.);
#1480 = EDGE_CURVE('',#1481,#1454,#1483,.T.);
#1481 = VERTEX_POINT('',#1482);
#1482 = CARTESIAN_POINT('',(-7.4E-14,3.,-5.3));
#1483 = B_SPLINE_CURVE_WITH_KNOTS('',6,(#1484,#1485,#1486,#1487,#1488,
    #1489,#1490,#1491,#1492,#1493,#1494,#1495,#1496,#1497,#1498,#1499,
    #1500,#1501,#1502,#1503,#1504,#1505),.UNSPECIFIED.,.F.,.F.,(7,5,5,5,
    7),(0.,0.401598813675,0.574901309844,0.728809140722,1.),
  .UNSPECIFIED.);
#1484 = CARTESIAN_POINT('',(-1.4672E-13,3.,-5.3));
#1485 = CARTESIAN_POINT('',(-0.177652198579,3.,-5.3));
#1486 = CARTESIAN_POINT('',(-0.355246713117,3.017533184755,-5.3));
#1487 = CARTESIAN_POINT('',(-0.530538788527,3.052580622873,-5.3));
#1488 = CARTESIAN_POINT('',(-0.701040592383,3.105170981021,-5.3));
#1489 = CARTESIAN_POINT('',(-0.864008657039,3.175132726412,-5.3));
#1490 = CARTESIAN_POINT('',(-1.082193300096,3.299534644914,-5.3));
#1491 = CARTESIAN_POINT('',(-1.145984047124,3.340181241913,-5.3));
#1492 = CARTESIAN_POINT('',(-1.207542036759,3.383929770309,-5.3));
#1493 = CARTESIAN_POINT('',(-1.266595872464,3.430717147831,-5.3));
#1494 = CARTESIAN_POINT('',(-1.32286152079,3.480453391588,-5.3));
#1495 = CARTESIAN_POINT('',(-1.423283691251,3.579691994768,-5.3));
#1496 = CARTESIAN_POINT('',(-1.468090410514,3.628597364421,-5.3));
#1497 = CARTESIAN_POINT('',(-1.510264357408,3.679640468334,-5.3));
#1498 = CARTESIAN_POINT('',(-1.549596621568,3.732708822177,-5.3));
#1499 = CARTESIAN_POINT('',(-1.585882399155,3.787661930126,-5.3));
#1500 = CARTESIAN_POINT('',(-1.677159491075,3.944170994931,-5.3));
#1501 = CARTESIAN_POINT('',(-1.725363666808,4.049378875438,-5.3));
#1502 = CARTESIAN_POINT('',(-1.76242002525,4.158920692023,-5.3));
#1503 = CARTESIAN_POINT('',(-1.787478087417,4.27154576331,-5.3));
#1504 = CARTESIAN_POINT('',(-1.8,4.38579220429,-5.3));
#1505 = CARTESIAN_POINT('',(-1.8,4.5,-5.3));
#1506 = ORIENTED_EDGE('',*,*,#1507,.F.);
#1507 = EDGE_CURVE('',#660,#1481,#1508,.T.);
#1508 = LINE('',#1509,#1510);
#1509 = CARTESIAN_POINT('',(-7.35E-14,3.,7.5));
#1510 = VECTOR('',#1511,1.);
#1511 = DIRECTION('',(-0.,-0.,-1.));
#1512 = SURFACE_OF_LINEAR_EXTRUSION('',#1513,#1518);
#1513 = ELLIPSE('',#1514,1.8,1.5);
#1514 = AXIS2_PLACEMENT_3D('',#1515,#1516,#1517);
#1515 = CARTESIAN_POINT('',(0.,4.5,7.5));
#1516 = DIRECTION('',(0.,0.,1.));
#1517 = DIRECTION('',(-1.,-1.339E-14,0.));
#1518 = VECTOR('',#1519,1.);
#1519 = DIRECTION('',(0.,0.,1.));
#1520 = ADVANCED_FACE('',(#1521),#1533,.F.);
#1521 = FACE_BOUND('',#1522,.F.);
#1522 = EDGE_LOOP('',(#1523,#1524,#1525,#1532));
#1523 = ORIENTED_EDGE('',*,*,#688,.F.);
#1524 = ORIENTED_EDGE('',*,*,#1507,.T.);
#1525 = ORIENTED_EDGE('',*,*,#1526,.T.);
#1526 = EDGE_CURVE('',#1481,#1446,#1527,.T.);
#1527 = CIRCLE('',#1528,1.5);
#1528 = AXIS2_PLACEMENT_3D('',#1529,#1530,#1531);
#1529 = CARTESIAN_POINT('',(0.,4.5,-5.3));
#1530 = DIRECTION('',(0.,0.,1.));
#1531 = DIRECTION('',(1.,0.,-0.));
#1532 = ORIENTED_EDGE('',*,*,#1445,.F.);
#1533 = CYLINDRICAL_SURFACE('',#1534,1.5);
#1534 = AXIS2_PLACEMENT_3D('',#1535,#1536,#1537);
#1535 = CARTESIAN_POINT('',(0.,4.5,7.5));
#1536 = DIRECTION('',(0.,0.,1.));
#1537 = DIRECTION('',(1.,0.,0.));
#1538 = ADVANCED_FACE('',(#1539),#1574,.F.);
#1539 = FACE_BOUND('',#1540,.F.);
#1540 = EDGE_LOOP('',(#1541,#1549,#1557,#1566,#1572,#1573));
#1541 = ORIENTED_EDGE('',*,*,#1542,.F.);
#1542 = EDGE_CURVE('',#1543,#731,#1545,.T.);
#1543 = VERTEX_POINT('',#1544);
#1544 = CARTESIAN_POINT('',(5.,23.,-4.));
#1545 = LINE('',#1546,#1547);
#1546 = CARTESIAN_POINT('',(6.,23.,-4.));
#1547 = VECTOR('',#1548,1.);
#1548 = DIRECTION('',(-1.,-0.,-0.));
#1549 = ORIENTED_EDGE('',*,*,#1550,.F.);
#1550 = EDGE_CURVE('',#1551,#1543,#1553,.T.);
#1551 = VERTEX_POINT('',#1552);
#1552 = CARTESIAN_POINT('',(5.,78.,-4.));
#1553 = LINE('',#1554,#1555);
#1554 = CARTESIAN_POINT('',(5.,78.,-4.));
#1555 = VECTOR('',#1556,1.);
#1556 = DIRECTION('',(0.,-1.,0.));
#1557 = ORIENTED_EDGE('',*,*,#1558,.F.);
#1558 = EDGE_CURVE('',#1559,#1551,#1561,.T.);
#1559 = VERTEX_POINT('',#1560);
#1560 = CARTESIAN_POINT('',(4.,79.,-4.));
#1561 = CIRCLE('',#1562,1.);
#1562 = AXIS2_PLACEMENT_3D('',#1563,#1564,#1565);
#1563 = CARTESIAN_POINT('',(4.,78.,-4.));
#1564 = DIRECTION('',(0.,0.,-1.));
#1565 = DIRECTION('',(0.,1.,0.));
#1566 = ORIENTED_EDGE('',*,*,#1567,.F.);
#1567 = EDGE_CURVE('',#1388,#1559,#1568,.T.);
#1568 = LINE('',#1569,#1570);
#1569 = CARTESIAN_POINT('',(-4.,79.,-4.));
#1570 = VECTOR('',#1571,1.);
#1571 = DIRECTION('',(1.,0.,0.));
#1572 = ORIENTED_EDGE('',*,*,#1387,.F.);
#1573 = ORIENTED_EDGE('',*,*,#749,.F.);
#1574 = PLANE('',#1575);
#1575 = AXIS2_PLACEMENT_3D('',#1576,#1577,#1578);
#1576 = CARTESIAN_POINT('',(6.5,85.,-4.));
#1577 = DIRECTION('',(0.,0.,1.));
#1578 = DIRECTION('',(0.,-1.,0.));
#1579 = ADVANCED_FACE('',(#1580),#1601,.F.);
#1580 = FACE_BOUND('',#1581,.T.);
#1581 = EDGE_LOOP('',(#1582,#1592,#1593,#1594));
#1582 = ORIENTED_EDGE('',*,*,#1583,.T.);
#1583 = EDGE_CURVE('',#1584,#799,#1586,.T.);
#1584 = VERTEX_POINT('',#1585);
#1585 = CARTESIAN_POINT('',(5.,21.074860913061,-4.699165478367));
#1586 = B_SPLINE_CURVE_WITH_KNOTS('',2,(#1587,#1588,#1589,#1590,#1591),
  .UNSPECIFIED.,.F.,.F.,(3,1,1,3),(-0.7344,-1.451E-14,12.,12.7344),
  .UNSPECIFIED.);
#1587 = CARTESIAN_POINT('',(6.7344,21.074860913061,-4.699165478367));
#1588 = CARTESIAN_POINT('',(6.3672,21.074860913061,-4.699165478367));
#1589 = CARTESIAN_POINT('',(1.78E-15,21.074860913061,-4.699165478367));
#1590 = CARTESIAN_POINT('',(-6.3672,21.074860913061,-4.699165478367));
#1591 = CARTESIAN_POINT('',(-6.7344,21.074860913061,-4.699165478367));
#1592 = ORIENTED_EDGE('',*,*,#806,.T.);
#1593 = ORIENTED_EDGE('',*,*,#1542,.F.);
#1594 = ORIENTED_EDGE('',*,*,#1595,.T.);
#1595 = EDGE_CURVE('',#1543,#1584,#1596,.T.);
#1596 = CIRCLE('',#1597,3.);
#1597 = AXIS2_PLACEMENT_3D('',#1598,#1599,#1600);
#1598 = CARTESIAN_POINT('',(5.,23.,-7.));
#1599 = DIRECTION('',(1.,0.,-0.));
#1600 = DIRECTION('',(0.,0.,1.));
#1601 = CYLINDRICAL_SURFACE('',#1602,3.);
#1602 = AXIS2_PLACEMENT_3D('',#1603,#1604,#1605);
#1603 = CARTESIAN_POINT('',(6.,23.,-7.));
#1604 = DIRECTION('',(-1.,-0.,-0.));
#1605 = DIRECTION('',(0.,0.,1.));
#1606 = ADVANCED_FACE('',(#1607),#1659,.T.);
#1607 = FACE_BOUND('',#1608,.T.);
#1608 = EDGE_LOOP('',(#1609,#1616,#1617,#1648));
#1609 = ORIENTED_EDGE('',*,*,#1610,.T.);
#1610 = EDGE_CURVE('',#1584,#1186,#1611,.T.);
#1611 = CIRCLE('',#1612,1.);
#1612 = AXIS2_PLACEMENT_3D('',#1613,#1614,#1615);
#1613 = CARTESIAN_POINT('',(5.,20.433147884081,-3.932220637822));
#1614 = DIRECTION('',(-0.,-0.766944840544,-0.64171302898));
#1615 = DIRECTION('',(0.,-0.64171302898,0.766944840544));
#1616 = ORIENTED_EDGE('',*,*,#1185,.T.);
#1617 = ORIENTED_EDGE('',*,*,#1618,.F.);
#1618 = EDGE_CURVE('',#1619,#1178,#1621,.T.);
#1619 = VERTEX_POINT('',#1620);
#1620 = CARTESIAN_POINT('',(5.,17.,-7.5));
#1621 = B_SPLINE_CURVE_WITH_KNOTS('',7,(#1622,#1623,#1624,#1625,#1626,
    #1627,#1628,#1629,#1630,#1631,#1632,#1633,#1634,#1635,#1636,#1637,
    #1638,#1639,#1640,#1641,#1642,#1643,#1644,#1645,#1646,#1647),
  .UNSPECIFIED.,.F.,.F.,(8,6,6,6,8),(0.,0.206584186394,0.527056820522,
    0.863410830205,1.),.UNSPECIFIED.);
#1622 = CARTESIAN_POINT('',(5.,17.,-7.5));
#1623 = CARTESIAN_POINT('',(5.044330064948,17.,-7.5));
#1624 = CARTESIAN_POINT('',(5.089568521582,16.995962441646,-7.5));
#1625 = CARTESIAN_POINT('',(5.13550377483,16.987589987687,-7.5));
#1626 = CARTESIAN_POINT('',(5.181880586581,16.974631730541,-7.5));
#1627 = CARTESIAN_POINT('',(5.228404423326,16.956915151665,-7.5));
#1628 = CARTESIAN_POINT('',(5.274754087612,16.934369413688,-7.5));
#1629 = CARTESIAN_POINT('',(5.391727168426,16.86464403023,-7.5));
#1630 = CARTESIAN_POINT('',(5.46166852345,16.81072228177,-7.5));
#1631 = CARTESIAN_POINT('',(5.529187111959,16.745439319066,-7.5));
#1632 = CARTESIAN_POINT('',(5.593116345381,16.669575997215,-7.5));
#1633 = CARTESIAN_POINT('',(5.652539471562,16.584432932394,-7.5));
#1634 = CARTESIAN_POINT('',(5.706833045586,16.491514413278,-7.5));
#1635 = CARTESIAN_POINT('',(5.806830247765,16.288305272297,-7.5));
#1636 = CARTESIAN_POINT('',(5.851981834367,16.177367849064,-7.5));
#1637 = CARTESIAN_POINT('',(5.890682799937,16.061255471379,-7.5));
#1638 = CARTESIAN_POINT('',(5.92281118103,15.941690968131,-7.5));
#1639 = CARTESIAN_POINT('',(5.948453805654,15.820269856422,-7.5));
#1640 = CARTESIAN_POINT('',(5.967847162033,15.698387782164,-7.5));
#1641 = CARTESIAN_POINT('',(5.986795474351,15.528049491478,-7.5));
#1642 = CARTESIAN_POINT('',(5.991291714165,15.478979600542,-7.5));
#1643 = CARTESIAN_POINT('',(5.994834063481,15.430116949947,-7.5));
#1644 = CARTESIAN_POINT('',(5.997447553179,15.381539446897,-7.5));
#1645 = CARTESIAN_POINT('',(5.999159661467,15.333320390258,-7.5));
#1646 = CARTESIAN_POINT('',(6.,15.285528242777,-7.5));
#1647 = CARTESIAN_POINT('',(6.,15.238226403308,-7.5));
#1648 = ORIENTED_EDGE('',*,*,#1649,.F.);
#1649 = EDGE_CURVE('',#1584,#1619,#1650,.T.);
#1650 = B_SPLINE_CURVE_WITH_KNOTS('',4,(#1651,#1652,#1653,#1654,#1655,
    #1656,#1657,#1658),.UNSPECIFIED.,.F.,.F.,(5,3,5),(133.40817360362,
    139.75580322769,142.00166957046),.UNSPECIFIED.);
#1651 = CARTESIAN_POINT('',(5.,21.074860913061,-4.699165478367));
#1652 = CARTESIAN_POINT('',(5.,19.76708794375,-5.598056448403));
#1653 = CARTESIAN_POINT('',(5.,18.461999981002,-6.4951018931));
#1654 = CARTESIAN_POINT('',(5.,17.15864039743,-7.39095934533));
#1655 = CARTESIAN_POINT('',(5.,15.395570953152,-8.602795986857));
#1656 = CARTESIAN_POINT('',(5.,14.93351086758,-8.920390591029));
#1657 = CARTESIAN_POINT('',(5.,14.470159903769,-9.238872473665));
#1658 = CARTESIAN_POINT('',(5.,14.005518061719,-9.558241634766));
#1659 = ( BOUNDED_SURFACE() B_SPLINE_SURFACE(2,4,(
    (#1660,#1661,#1662,#1663,#1664,#1665,#1666,#1667)
    ,(#1668,#1669,#1670,#1671,#1672,#1673,#1674,#1675)
    ,(#1676,#1677,#1678,#1679,#1680,#1681,#1682,#1683
)),.UNSPECIFIED.,.F.,.F.,.F.) B_SPLINE_SURFACE_WITH_KNOTS((3,3),(5,3,5),
  (0.,6.347629624073),(133.40817360362,139.75580322769,142.00166957046),
.UNSPECIFIED.) GEOMETRIC_REPRESENTATION_ITEM() RATIONAL_B_SPLINE_SURFACE
((
    (1.,1.,1.,1.,1.,1.,1.,1.)
    ,(0.707106781187,0.707106781187,0.707106781187,0.707106781187
      ,0.707106781187,0.707106781187,0.707106781187,0.707106781187)
,(1.,1.,1.,1.,1.,1.,1.,1.))) REPRESENTATION_ITEM('') SURFACE() );
#1660 = CARTESIAN_POINT('',(5.,21.074860913061,-4.699165478367));
#1661 = CARTESIAN_POINT('',(5.,19.76708794375,-5.598056448403));
#1662 = CARTESIAN_POINT('',(5.,18.461999981002,-6.4951018931));
#1663 = CARTESIAN_POINT('',(5.,17.15864039743,-7.39095934533));
#1664 = CARTESIAN_POINT('',(5.,15.395570953152,-8.602795986857));
#1665 = CARTESIAN_POINT('',(5.,14.93351086758,-8.920390591029));
#1666 = CARTESIAN_POINT('',(5.,14.470159903769,-9.238872473665));
#1667 = CARTESIAN_POINT('',(5.,14.005518061719,-9.558241634766));
#1668 = CARTESIAN_POINT('',(6.,21.074860913061,-4.699165478367));
#1669 = CARTESIAN_POINT('',(6.,19.76708794375,-5.598056448403));
#1670 = CARTESIAN_POINT('',(6.,18.461999981002,-6.4951018931));
#1671 = CARTESIAN_POINT('',(6.,17.15864039743,-7.39095934533));
#1672 = CARTESIAN_POINT('',(6.,15.395570953152,-8.602795986857));
#1673 = CARTESIAN_POINT('',(6.,14.93351086758,-8.920390591029));
#1674 = CARTESIAN_POINT('',(6.,14.470159903769,-9.238872473665));
#1675 = CARTESIAN_POINT('',(6.,14.005518061719,-9.558241634766));
#1676 = CARTESIAN_POINT('',(6.,20.433147884081,-3.932220637822));
#1677 = CARTESIAN_POINT('',(6.,19.13160340304,-4.825900148231));
#1678 = CARTESIAN_POINT('',(6.,17.832533651392,-5.718024744002));
#1679 = CARTESIAN_POINT('',(6.,16.534967889659,-6.609241616347));
#1680 = CARTESIAN_POINT('',(6.,14.779423947598,-7.815160838275));
#1681 = CARTESIAN_POINT('',(6.,14.317958355178,-8.132151039901));
#1682 = CARTESIAN_POINT('',(6.,13.853829626049,-8.450970604877));
#1683 = CARTESIAN_POINT('',(6.,13.38703776021,-8.771619533205));
#1684 = ADVANCED_FACE('',(#1685),#1698,.T.);
#1685 = FACE_BOUND('',#1686,.T.);
#1686 = EDGE_LOOP('',(#1687,#1688,#1689,#1697));
#1687 = ORIENTED_EDGE('',*,*,#1583,.F.);
#1688 = ORIENTED_EDGE('',*,*,#1649,.T.);
#1689 = ORIENTED_EDGE('',*,*,#1690,.T.);
#1690 = EDGE_CURVE('',#1619,#824,#1691,.T.);
#1691 = B_SPLINE_CURVE_WITH_KNOTS('',2,(#1692,#1693,#1694,#1695,#1696),
  .UNSPECIFIED.,.F.,.F.,(3,1,1,3),(-0.7344,-1.451E-14,12.,12.7344),
  .UNSPECIFIED.);
#1692 = CARTESIAN_POINT('',(6.7344,17.,-7.5));
#1693 = CARTESIAN_POINT('',(6.3672,17.,-7.5));
#1694 = CARTESIAN_POINT('',(0.,17.,-7.5));
#1695 = CARTESIAN_POINT('',(-6.3672,17.,-7.5));
#1696 = CARTESIAN_POINT('',(-6.7344,17.,-7.5));
#1697 = ORIENTED_EDGE('',*,*,#856,.T.);
#1698 = B_SPLINE_SURFACE_WITH_KNOTS('',1,2,(
    (#1699,#1700,#1701,#1702,#1703)
    ,(#1704,#1705,#1706,#1707,#1708
    )),.UNSPECIFIED.,.F.,.F.,.F.,(2,2),(3,1,1,3),(0.,12.),(-0.7344,
    -1.451E-14,12.,12.7344),.UNSPECIFIED.);
#1699 = CARTESIAN_POINT('',(6.7344,21.074860913061,-4.699165478367));
#1700 = CARTESIAN_POINT('',(6.3672,21.074860913061,-4.699165478367));
#1701 = CARTESIAN_POINT('',(1.78E-15,21.074860913061,-4.699165478367));
#1702 = CARTESIAN_POINT('',(-6.3672,21.074860913061,-4.699165478367));
#1703 = CARTESIAN_POINT('',(-6.7344,21.074860913061,-4.699165478367));
#1704 = CARTESIAN_POINT('',(6.7344,17.,-7.5));
#1705 = CARTESIAN_POINT('',(6.3672,17.,-7.5));
#1706 = CARTESIAN_POINT('',(0.,17.,-7.5));
#1707 = CARTESIAN_POINT('',(-6.3672,17.,-7.5));
#1708 = CARTESIAN_POINT('',(-6.7344,17.,-7.5));
#1709 = ADVANCED_FACE('',(#1710),#1722,.T.);
#1710 = FACE_BOUND('',#1711,.F.);
#1711 = EDGE_LOOP('',(#1712,#1713,#1714,#1721));
#1712 = ORIENTED_EDGE('',*,*,#1142,.F.);
#1713 = ORIENTED_EDGE('',*,*,#1311,.T.);
#1714 = ORIENTED_EDGE('',*,*,#1715,.T.);
#1715 = EDGE_CURVE('',#1304,#1224,#1716,.T.);
#1716 = CIRCLE('',#1717,1.);
#1717 = AXIS2_PLACEMENT_3D('',#1718,#1719,#1720);
#1718 = CARTESIAN_POINT('',(5.,23.,3.));
#1719 = DIRECTION('',(0.,1.,-1.28E-15));
#1720 = DIRECTION('',(0.,-1.28E-15,-1.));
#1721 = ORIENTED_EDGE('',*,*,#1231,.F.);
#1722 = TOROIDAL_SURFACE('',#1723,4.,1.);
#1723 = AXIS2_PLACEMENT_3D('',#1724,#1725,#1726);
#1724 = CARTESIAN_POINT('',(5.,23.,7.));
#1725 = DIRECTION('',(-1.,0.,0.));
#1726 = DIRECTION('',(0.,-0.64171302898,-0.766944840544));
#1727 = ADVANCED_FACE('',(#1728),#1740,.T.);
#1728 = FACE_BOUND('',#1729,.F.);
#1729 = EDGE_LOOP('',(#1730,#1737,#1738,#1739));
#1730 = ORIENTED_EDGE('',*,*,#1731,.F.);
#1731 = EDGE_CURVE('',#1543,#1199,#1732,.T.);
#1732 = CIRCLE('',#1733,1.);
#1733 = AXIS2_PLACEMENT_3D('',#1734,#1735,#1736);
#1734 = CARTESIAN_POINT('',(5.,23.,-3.));
#1735 = DIRECTION('',(0.,-1.,0.));
#1736 = DIRECTION('',(0.,0.,-1.));
#1737 = ORIENTED_EDGE('',*,*,#1595,.T.);
#1738 = ORIENTED_EDGE('',*,*,#1610,.T.);
#1739 = ORIENTED_EDGE('',*,*,#1198,.F.);
#1740 = TOROIDAL_SURFACE('',#1741,4.,1.);
#1741 = AXIS2_PLACEMENT_3D('',#1742,#1743,#1744);
#1742 = CARTESIAN_POINT('',(5.,23.,-7.));
#1743 = DIRECTION('',(-1.,0.,0.));
#1744 = DIRECTION('',(0.,0.,1.));
#1745 = ADVANCED_FACE('',(#1746),#1758,.T.);
#1746 = FACE_BOUND('',#1747,.T.);
#1747 = EDGE_LOOP('',(#1748,#1755,#1756,#1757));
#1748 = ORIENTED_EDGE('',*,*,#1749,.T.);
#1749 = EDGE_CURVE('',#1551,#1208,#1750,.T.);
#1750 = CIRCLE('',#1751,1.);
#1751 = AXIS2_PLACEMENT_3D('',#1752,#1753,#1754);
#1752 = CARTESIAN_POINT('',(5.,78.,-3.));
#1753 = DIRECTION('',(6.E-17,-1.,0.));
#1754 = DIRECTION('',(1.,6.E-17,0.));
#1755 = ORIENTED_EDGE('',*,*,#1207,.T.);
#1756 = ORIENTED_EDGE('',*,*,#1731,.F.);
#1757 = ORIENTED_EDGE('',*,*,#1550,.F.);
#1758 = CYLINDRICAL_SURFACE('',#1759,1.);
#1759 = AXIS2_PLACEMENT_3D('',#1760,#1761,#1762);
#1760 = CARTESIAN_POINT('',(5.,78.,-3.));
#1761 = DIRECTION('',(0.,-1.,0.));
#1762 = DIRECTION('',(0.,0.,-1.));
#1763 = ADVANCED_FACE('',(#1764),#1782,.T.);
#1764 = FACE_BOUND('',#1765,.F.);
#1765 = EDGE_LOOP('',(#1766,#1767,#1774,#1775));
#1766 = ORIENTED_EDGE('',*,*,#1421,.F.);
#1767 = ORIENTED_EDGE('',*,*,#1768,.T.);
#1768 = EDGE_CURVE('',#1422,#1208,#1769,.T.);
#1769 = CIRCLE('',#1770,2.);
#1770 = AXIS2_PLACEMENT_3D('',#1771,#1772,#1773);
#1771 = CARTESIAN_POINT('',(4.,78.,-3.));
#1772 = DIRECTION('',(0.,0.,-1.));
#1773 = DIRECTION('',(0.,1.,0.));
#1774 = ORIENTED_EDGE('',*,*,#1215,.T.);
#1775 = ORIENTED_EDGE('',*,*,#1776,.T.);
#1776 = EDGE_CURVE('',#1216,#1414,#1777,.T.);
#1777 = CIRCLE('',#1778,2.);
#1778 = AXIS2_PLACEMENT_3D('',#1779,#1780,#1781);
#1779 = CARTESIAN_POINT('',(4.,78.,3.));
#1780 = DIRECTION('',(0.,0.,1.));
#1781 = DIRECTION('',(1.,0.,0.));
#1782 = CYLINDRICAL_SURFACE('',#1783,2.);
#1783 = AXIS2_PLACEMENT_3D('',#1784,#1785,#1786);
#1784 = CARTESIAN_POINT('',(4.,78.,-4.));
#1785 = DIRECTION('',(0.,2.2E-16,1.));
#1786 = DIRECTION('',(0.,1.,-2.2E-16));
#1787 = ADVANCED_FACE('',(#1788),#1800,.T.);
#1788 = FACE_BOUND('',#1789,.T.);
#1789 = EDGE_LOOP('',(#1790,#1791,#1792,#1799));
#1790 = ORIENTED_EDGE('',*,*,#1715,.T.);
#1791 = ORIENTED_EDGE('',*,*,#1223,.T.);
#1792 = ORIENTED_EDGE('',*,*,#1793,.F.);
#1793 = EDGE_CURVE('',#1364,#1216,#1794,.T.);
#1794 = CIRCLE('',#1795,1.);
#1795 = AXIS2_PLACEMENT_3D('',#1796,#1797,#1798);
#1796 = CARTESIAN_POINT('',(5.,78.,3.));
#1797 = DIRECTION('',(0.,1.,0.));
#1798 = DIRECTION('',(0.,0.,1.));
#1799 = ORIENTED_EDGE('',*,*,#1372,.F.);
#1800 = CYLINDRICAL_SURFACE('',#1801,1.);
#1801 = AXIS2_PLACEMENT_3D('',#1802,#1803,#1804);
#1802 = CARTESIAN_POINT('',(5.,23.,3.));
#1803 = DIRECTION('',(0.,1.,0.));
#1804 = DIRECTION('',(0.,0.,1.));
#1805 = ADVANCED_FACE('',(#1806),#1818,.T.);
#1806 = FACE_BOUND('',#1807,.T.);
#1807 = EDGE_LOOP('',(#1808,#1815,#1816,#1817));
#1808 = ORIENTED_EDGE('',*,*,#1809,.T.);
#1809 = EDGE_CURVE('',#1356,#1414,#1810,.T.);
#1810 = CIRCLE('',#1811,1.);
#1811 = AXIS2_PLACEMENT_3D('',#1812,#1813,#1814);
#1812 = CARTESIAN_POINT('',(4.,79.,3.));
#1813 = DIRECTION('',(-1.,6.E-17,0.));
#1814 = DIRECTION('',(6.E-17,1.,0.));
#1815 = ORIENTED_EDGE('',*,*,#1413,.T.);
#1816 = ORIENTED_EDGE('',*,*,#1326,.F.);
#1817 = ORIENTED_EDGE('',*,*,#1355,.F.);
#1818 = CYLINDRICAL_SURFACE('',#1819,1.);
#1819 = AXIS2_PLACEMENT_3D('',#1820,#1821,#1822);
#1820 = CARTESIAN_POINT('',(4.,79.,3.));
#1821 = DIRECTION('',(-1.,0.,0.));
#1822 = DIRECTION('',(0.,0.,1.));
#1823 = ADVANCED_FACE('',(#1824),#1830,.T.);
#1824 = FACE_BOUND('',#1825,.F.);
#1825 = EDGE_LOOP('',(#1826,#1827,#1828,#1829));
#1826 = ORIENTED_EDGE('',*,*,#1793,.F.);
#1827 = ORIENTED_EDGE('',*,*,#1363,.T.);
#1828 = ORIENTED_EDGE('',*,*,#1809,.T.);
#1829 = ORIENTED_EDGE('',*,*,#1776,.F.);
#1830 = TOROIDAL_SURFACE('',#1831,1.,1.);
#1831 = AXIS2_PLACEMENT_3D('',#1832,#1833,#1834);
#1832 = CARTESIAN_POINT('',(4.,78.,3.));
#1833 = DIRECTION('',(0.,0.,-1.));
#1834 = DIRECTION('',(1.,0.,0.));
#1835 = ADVANCED_FACE('',(#1836),#1848,.T.);
#1836 = FACE_BOUND('',#1837,.T.);
#1837 = EDGE_LOOP('',(#1838,#1839,#1840,#1847));
#1838 = ORIENTED_EDGE('',*,*,#1396,.T.);
#1839 = ORIENTED_EDGE('',*,*,#1429,.T.);
#1840 = ORIENTED_EDGE('',*,*,#1841,.F.);
#1841 = EDGE_CURVE('',#1559,#1422,#1842,.T.);
#1842 = CIRCLE('',#1843,1.);
#1843 = AXIS2_PLACEMENT_3D('',#1844,#1845,#1846);
#1844 = CARTESIAN_POINT('',(4.,79.,-3.));
#1845 = DIRECTION('',(1.,-0.,0.));
#1846 = DIRECTION('',(0.,0.,-1.));
#1847 = ORIENTED_EDGE('',*,*,#1567,.F.);
#1848 = CYLINDRICAL_SURFACE('',#1849,1.);
#1849 = AXIS2_PLACEMENT_3D('',#1850,#1851,#1852);
#1850 = CARTESIAN_POINT('',(-4.,79.,-3.));
#1851 = DIRECTION('',(1.,0.,0.));
#1852 = DIRECTION('',(0.,0.,-1.));
#1853 = ADVANCED_FACE('',(#1854),#1859,.T.);
#1854 = FACE_BOUND('',#1855,.T.);
#1855 = EDGE_LOOP('',(#1856,#1857,#1858));
#1856 = ORIENTED_EDGE('',*,*,#1480,.F.);
#1857 = ORIENTED_EDGE('',*,*,#1526,.T.);
#1858 = ORIENTED_EDGE('',*,*,#1453,.F.);
#1859 = PLANE('',#1860);
#1860 = AXIS2_PLACEMENT_3D('',#1861,#1862,#1863);
#1861 = CARTESIAN_POINT('',(-1.7E-16,4.5,-5.3));
#1862 = DIRECTION('',(0.,0.,1.));
#1863 = DIRECTION('',(1.,0.,0.));
#1864 = ADVANCED_FACE('',(#1865),#1871,.T.);
#1865 = FACE_BOUND('',#1866,.F.);
#1866 = EDGE_LOOP('',(#1867,#1868,#1869,#1870));
#1867 = ORIENTED_EDGE('',*,*,#1841,.F.);
#1868 = ORIENTED_EDGE('',*,*,#1558,.T.);
#1869 = ORIENTED_EDGE('',*,*,#1749,.T.);
#1870 = ORIENTED_EDGE('',*,*,#1768,.F.);
#1871 = TOROIDAL_SURFACE('',#1872,1.,1.);
#1872 = AXIS2_PLACEMENT_3D('',#1873,#1874,#1875);
#1873 = CARTESIAN_POINT('',(4.,78.,-3.));
#1874 = DIRECTION('',(0.,0.,1.));
#1875 = DIRECTION('',(0.,1.,0.));
#1876 = ADVANCED_FACE('',(#1877),#1886,.T.);
#1877 = FACE_BOUND('',#1878,.T.);
#1878 = EDGE_LOOP('',(#1879,#1880,#1881,#1882,#1883,#1884,#1885));
#1879 = ORIENTED_EDGE('',*,*,#1177,.F.);
#1880 = ORIENTED_EDGE('',*,*,#763,.F.);
#1881 = ORIENTED_EDGE('',*,*,#783,.F.);
#1882 = ORIENTED_EDGE('',*,*,#99,.T.);
#1883 = ORIENTED_EDGE('',*,*,#823,.F.);
#1884 = ORIENTED_EDGE('',*,*,#1690,.F.);
#1885 = ORIENTED_EDGE('',*,*,#1618,.T.);
#1886 = PLANE('',#1887);
#1887 = AXIS2_PLACEMENT_3D('',#1888,#1889,#1890);
#1888 = CARTESIAN_POINT('',(2.02E-15,9.32134144045,-7.5));
#1889 = DIRECTION('',(-0.,-0.,-1.));
#1890 = DIRECTION('',(-1.,0.,0.));
#1891 = ( GEOMETRIC_REPRESENTATION_CONTEXT(3) 
GLOBAL_UNCERTAINTY_ASSIGNED_CONTEXT((#1895)) 
GLOBAL_UNIT_ASSIGNED_CONTEXT((#1892,#1893,#1894)) REPRESENTATION_CONTEXT
('Context #1','3D Context with UNIT and UNCERTAINTY') );
#1892 = ( LENGTH_UNIT() NAMED_UNIT(*) SI_UNIT(.MILLI.,.METRE.) );
#1893 = ( NAMED_UNIT(*) PLANE_ANGLE_UNIT() SI_UNIT($,.RADIAN.) );
#1894 = ( NAMED_UNIT(*) SI_UNIT($,.STERADIAN.) SOLID_ANGLE_UNIT() );
#1895 = UNCERTAINTY_MEASURE_WITH_UNIT(LENGTH_MEASURE(2.E-05),#1892,
  'distance_accuracy_value','confusion accuracy');
#1896 = PRODUCT_RELATED_PRODUCT_CATEGORY('part',$,(#7));
#1897 = MECHANICAL_DESIGN_GEOMETRIC_PRESENTATION_REPRESENTATION('',(
    #1898),#1891);
#1898 = STYLED_ITEM('color',(#1899),#15);
#1899 = PRESENTATION_STYLE_ASSIGNMENT((#1900,#1906));
#1900 = SURFACE_STYLE_USAGE(.BOTH.,#1901);
#1901 = SURFACE_SIDE_STYLE('',(#1902));
#1902 = SURFACE_STYLE_FILL_AREA(#1903);
#1903 = FILL_AREA_STYLE('',(#1904));
#1904 = FILL_AREA_STYLE_COLOUR('',#1905);
#1905 = COLOUR_RGB('',0.447058818107,0.474509808674,0.501960817233);
#1906 = CURVE_STYLE('',#1907,POSITIVE_LENGTH_MEASURE(0.1),#1908);
#1907 = DRAUGHTING_PRE_DEFINED_CURVE_FONT('continuous');
#1908 = COLOUR_RGB('',9.803921802644E-02,9.803921802644E-02,
  9.803921802644E-02);
ENDSEC;
END-ISO-10303-21;
