ISO-10303-21;
HEADER;
FILE_DESCRIPTION(('FreeCAD Model'),'2;1');
FILE_NAME('Open CASCADE Shape Model','2025-11-24T19:22:50',(''),(''),
  'Open CASCADE STEP processor 7.8','FreeCAD','Unknown');
FILE_SCHEMA(('AUTOMOTIVE_DESIGN { 1 0 10303 214 1 1 1 1 }'));
ENDSEC;
DATA;
#1 = APPLICATION_PROTOCOL_DEFINITION('international standard',
  'automotive_design',2000,#2);
#2 = APPLICATION_CONTEXT(
  'core data for automotive mechanical design processes');
#3 = SHAPE_DEFINITION_REPRESENTATION(#4,#10);
#4 = PRODUCT_DEFINITION_SHAPE('','',#5);
#5 = PRODUCT_DEFINITION('design','',#6,#9);
#6 = PRODUCT_DEFINITION_FORMATION('','',#7);
#7 = PRODUCT('Fillet001','Fillet001','',(#8));
#8 = PRODUCT_CONTEXT('',#2,'mechanical');
#9 = PRODUCT_DEFINITION_CONTEXT('part definition',#2,'design');
#10 = ADVANCED_BREP_SHAPE_REPRESENTATION('',(#11,#15),#826);
#11 = AXIS2_PLACEMENT_3D('',#12,#13,#14);
#12 = CARTESIAN_POINT('',(0.,0.,0.));
#13 = DIRECTION('',(0.,0.,1.));
#14 = DIRECTION('',(1.,0.,-0.));
#15 = MANIFOLD_SOLID_BREP('',#16);
#16 = CLOSED_SHELL('',(#17,#185,#216,#241,#266,#290,#314,#339,#364,#381,
    #412,#437,#462,#507,#552,#577,#602,#619,#644,#669,#707,#731,#743,
    #755,#777,#792,#809));
#17 = ADVANCED_FACE('',(#18,#88,#158,#169),#180,.T.);
#18 = FACE_BOUND('',#19,.T.);
#19 = EDGE_LOOP('',(#20,#30,#39,#47,#56,#64,#73,#81));
#20 = ORIENTED_EDGE('',*,*,#21,.F.);
#21 = EDGE_CURVE('',#22,#24,#26,.T.);
#22 = VERTEX_POINT('',#23);
#23 = CARTESIAN_POINT('',(-17.5,0.,2.5));
#24 = VERTEX_POINT('',#25);
#25 = CARTESIAN_POINT('',(-17.5,-3.944304526105E-31,-2.5));
#26 = LINE('',#27,#28);
#27 = CARTESIAN_POINT('',(-17.5,0.,7.5));
#28 = VECTOR('',#29,1.);
#29 = DIRECTION('',(0.,0.,-1.));
#30 = ORIENTED_EDGE('',*,*,#31,.T.);
#31 = EDGE_CURVE('',#22,#32,#34,.T.);
#32 = VERTEX_POINT('',#33);
#33 = CARTESIAN_POINT('',(-12.5,1.972152263053E-31,7.5));
#34 = CIRCLE('',#35,5.);
#35 = AXIS2_PLACEMENT_3D('',#36,#37,#38);
#36 = CARTESIAN_POINT('',(-12.5,0.,2.5));
#37 = DIRECTION('',(-0.,1.,-2.2E-16));
#38 = DIRECTION('',(0.,-2.2E-16,-1.));
#39 = ORIENTED_EDGE('',*,*,#40,.F.);
#40 = EDGE_CURVE('',#41,#32,#43,.T.);
#41 = VERTEX_POINT('',#42);
#42 = CARTESIAN_POINT('',(12.5,1.972152263053E-31,7.5));
#43 = LINE('',#44,#45);
#44 = CARTESIAN_POINT('',(17.5,0.,7.5));
#45 = VECTOR('',#46,1.);
#46 = DIRECTION('',(-1.,0.,0.));
#47 = ORIENTED_EDGE('',*,*,#48,.T.);
#48 = EDGE_CURVE('',#41,#49,#51,.T.);
#49 = VERTEX_POINT('',#50);
#50 = CARTESIAN_POINT('',(17.5,9.860761315263E-32,2.5));
#51 = CIRCLE('',#52,5.);
#52 = AXIS2_PLACEMENT_3D('',#53,#54,#55);
#53 = CARTESIAN_POINT('',(12.5,0.,2.5));
#54 = DIRECTION('',(-0.,1.,-2.2E-16));
#55 = DIRECTION('',(0.,-2.2E-16,-1.));
#56 = ORIENTED_EDGE('',*,*,#57,.F.);
#57 = EDGE_CURVE('',#58,#49,#60,.T.);
#58 = VERTEX_POINT('',#59);
#59 = CARTESIAN_POINT('',(17.5,9.860761315263E-32,-2.5));
#60 = LINE('',#61,#62);
#61 = CARTESIAN_POINT('',(17.5,0.,-7.5));
#62 = VECTOR('',#63,1.);
#63 = DIRECTION('',(0.,0.,1.));
#64 = ORIENTED_EDGE('',*,*,#65,.F.);
#65 = EDGE_CURVE('',#66,#58,#68,.T.);
#66 = VERTEX_POINT('',#67);
#67 = CARTESIAN_POINT('',(12.5,-1.972152263053E-31,-7.5));
#68 = CIRCLE('',#69,5.);
#69 = AXIS2_PLACEMENT_3D('',#70,#71,#72);
#70 = CARTESIAN_POINT('',(12.5,0.,-2.5));
#71 = DIRECTION('',(0.,-1.,2.2E-16));
#72 = DIRECTION('',(0.,-2.2E-16,-1.));
#73 = ORIENTED_EDGE('',*,*,#74,.F.);
#74 = EDGE_CURVE('',#75,#66,#77,.T.);
#75 = VERTEX_POINT('',#76);
#76 = CARTESIAN_POINT('',(-12.5,-1.972152263053E-31,-7.5));
#77 = LINE('',#78,#79);
#78 = CARTESIAN_POINT('',(-17.5,0.,-7.5));
#79 = VECTOR('',#80,1.);
#80 = DIRECTION('',(1.,0.,0.));
#81 = ORIENTED_EDGE('',*,*,#82,.F.);
#82 = EDGE_CURVE('',#24,#75,#83,.T.);
#83 = CIRCLE('',#84,5.);
#84 = AXIS2_PLACEMENT_3D('',#85,#86,#87);
#85 = CARTESIAN_POINT('',(-12.5,0.,-2.5));
#86 = DIRECTION('',(0.,-1.,2.2E-16));
#87 = DIRECTION('',(0.,-2.2E-16,-1.));
#88 = FACE_BOUND('',#89,.T.);
#89 = EDGE_LOOP('',(#90,#100,#109,#117,#126,#134,#143,#151));
#90 = ORIENTED_EDGE('',*,*,#91,.F.);
#91 = EDGE_CURVE('',#92,#94,#96,.T.);
#92 = VERTEX_POINT('',#93);
#93 = CARTESIAN_POINT('',(-6.,0.,-2.));
#94 = VERTEX_POINT('',#95);
#95 = CARTESIAN_POINT('',(-6.,0.,2.));
#96 = LINE('',#97,#98);
#97 = CARTESIAN_POINT('',(-6.,0.,-3.));
#98 = VECTOR('',#99,1.);
#99 = DIRECTION('',(0.,0.,1.));
#100 = ORIENTED_EDGE('',*,*,#101,.T.);
#101 = EDGE_CURVE('',#92,#102,#104,.T.);
#102 = VERTEX_POINT('',#103);
#103 = CARTESIAN_POINT('',(-5.,0.,-3.));
#104 = CIRCLE('',#105,1.);
#105 = AXIS2_PLACEMENT_3D('',#106,#107,#108);
#106 = CARTESIAN_POINT('',(-5.,0.,-2.));
#107 = DIRECTION('',(0.,-1.,0.));
#108 = DIRECTION('',(0.,0.,1.));
#109 = ORIENTED_EDGE('',*,*,#110,.F.);
#110 = EDGE_CURVE('',#111,#102,#113,.T.);
#111 = VERTEX_POINT('',#112);
#112 = CARTESIAN_POINT('',(5.,0.,-3.));
#113 = LINE('',#114,#115);
#114 = CARTESIAN_POINT('',(6.,0.,-3.));
#115 = VECTOR('',#116,1.);
#116 = DIRECTION('',(-1.,0.,0.));
#117 = ORIENTED_EDGE('',*,*,#118,.F.);
#118 = EDGE_CURVE('',#119,#111,#121,.T.);
#119 = VERTEX_POINT('',#120);
#120 = CARTESIAN_POINT('',(6.,0.,-2.));
#121 = CIRCLE('',#122,1.);
#122 = AXIS2_PLACEMENT_3D('',#123,#124,#125);
#123 = CARTESIAN_POINT('',(5.,0.,-2.));
#124 = DIRECTION('',(-0.,1.,0.));
#125 = DIRECTION('',(0.,0.,-1.));
#126 = ORIENTED_EDGE('',*,*,#127,.T.);
#127 = EDGE_CURVE('',#119,#128,#130,.T.);
#128 = VERTEX_POINT('',#129);
#129 = CARTESIAN_POINT('',(6.,0.,2.));
#130 = LINE('',#131,#132);
#131 = CARTESIAN_POINT('',(6.,0.,-3.));
#132 = VECTOR('',#133,1.);
#133 = DIRECTION('',(0.,0.,1.));
#134 = ORIENTED_EDGE('',*,*,#135,.T.);
#135 = EDGE_CURVE('',#128,#136,#138,.T.);
#136 = VERTEX_POINT('',#137);
#137 = CARTESIAN_POINT('',(5.,0.,3.));
#138 = CIRCLE('',#139,1.);
#139 = AXIS2_PLACEMENT_3D('',#140,#141,#142);
#140 = CARTESIAN_POINT('',(5.,0.,2.));
#141 = DIRECTION('',(0.,-1.,0.));
#142 = DIRECTION('',(0.,0.,-1.));
#143 = ORIENTED_EDGE('',*,*,#144,.T.);
#144 = EDGE_CURVE('',#136,#145,#147,.T.);
#145 = VERTEX_POINT('',#146);
#146 = CARTESIAN_POINT('',(-5.,0.,3.));
#147 = LINE('',#148,#149);
#148 = CARTESIAN_POINT('',(6.,0.,3.));
#149 = VECTOR('',#150,1.);
#150 = DIRECTION('',(-1.,0.,0.));
#151 = ORIENTED_EDGE('',*,*,#152,.F.);
#152 = EDGE_CURVE('',#94,#145,#153,.T.);
#153 = CIRCLE('',#154,1.);
#154 = AXIS2_PLACEMENT_3D('',#155,#156,#157);
#155 = CARTESIAN_POINT('',(-5.,0.,2.));
#156 = DIRECTION('',(0.,1.,0.));
#157 = DIRECTION('',(0.,0.,1.));
#158 = FACE_BOUND('',#159,.T.);
#159 = EDGE_LOOP('',(#160));
#160 = ORIENTED_EDGE('',*,*,#161,.F.);
#161 = EDGE_CURVE('',#162,#162,#164,.T.);
#162 = VERTEX_POINT('',#163);
#163 = CARTESIAN_POINT('',(10.45,0.,0.));
#164 = CIRCLE('',#165,2.55);
#165 = AXIS2_PLACEMENT_3D('',#166,#167,#168);
#166 = CARTESIAN_POINT('',(13.,0.,0.));
#167 = DIRECTION('',(0.,1.,-0.));
#168 = DIRECTION('',(-1.,0.,0.));
#169 = FACE_BOUND('',#170,.T.);
#170 = EDGE_LOOP('',(#171));
#171 = ORIENTED_EDGE('',*,*,#172,.F.);
#172 = EDGE_CURVE('',#173,#173,#175,.T.);
#173 = VERTEX_POINT('',#174);
#174 = CARTESIAN_POINT('',(-15.55,0.,0.));
#175 = CIRCLE('',#176,2.55);
#176 = AXIS2_PLACEMENT_3D('',#177,#178,#179);
#177 = CARTESIAN_POINT('',(-13.,0.,0.));
#178 = DIRECTION('',(0.,1.,-0.));
#179 = DIRECTION('',(-1.,0.,0.));
#180 = PLANE('',#181);
#181 = AXIS2_PLACEMENT_3D('',#182,#183,#184);
#182 = CARTESIAN_POINT('',(0.,0.,0.));
#183 = DIRECTION('',(0.,1.,0.));
#184 = DIRECTION('',(0.,0.,1.));
#185 = ADVANCED_FACE('',(#186),#211,.F.);
#186 = FACE_BOUND('',#187,.F.);
#187 = EDGE_LOOP('',(#188,#189,#197,#205));
#188 = ORIENTED_EDGE('',*,*,#21,.F.);
#189 = ORIENTED_EDGE('',*,*,#190,.T.);
#190 = EDGE_CURVE('',#22,#191,#193,.T.);
#191 = VERTEX_POINT('',#192);
#192 = CARTESIAN_POINT('',(-17.5,-6.,2.5));
#193 = LINE('',#194,#195);
#194 = CARTESIAN_POINT('',(-17.5,5.7E-16,2.5));
#195 = VECTOR('',#196,1.);
#196 = DIRECTION('',(0.,-1.,2.2E-16));
#197 = ORIENTED_EDGE('',*,*,#198,.T.);
#198 = EDGE_CURVE('',#191,#199,#201,.T.);
#199 = VERTEX_POINT('',#200);
#200 = CARTESIAN_POINT('',(-17.5,-6.,-2.5));
#201 = LINE('',#202,#203);
#202 = CARTESIAN_POINT('',(-17.5,-6.,7.5));
#203 = VECTOR('',#204,1.);
#204 = DIRECTION('',(0.,0.,-1.));
#205 = ORIENTED_EDGE('',*,*,#206,.F.);
#206 = EDGE_CURVE('',#24,#199,#207,.T.);
#207 = LINE('',#208,#209);
#208 = CARTESIAN_POINT('',(-17.5,-5.7E-16,-2.5));
#209 = VECTOR('',#210,1.);
#210 = DIRECTION('',(0.,-1.,2.2E-16));
#211 = PLANE('',#212);
#212 = AXIS2_PLACEMENT_3D('',#213,#214,#215);
#213 = CARTESIAN_POINT('',(-17.5,1.67E-15,7.5));
#214 = DIRECTION('',(1.,0.,0.));
#215 = DIRECTION('',(0.,-2.2E-16,-1.));
#216 = ADVANCED_FACE('',(#217),#236,.T.);
#217 = FACE_BOUND('',#218,.F.);
#218 = EDGE_LOOP('',(#219,#220,#228,#235));
#219 = ORIENTED_EDGE('',*,*,#31,.T.);
#220 = ORIENTED_EDGE('',*,*,#221,.T.);
#221 = EDGE_CURVE('',#32,#222,#224,.T.);
#222 = VERTEX_POINT('',#223);
#223 = CARTESIAN_POINT('',(-12.5,-6.,7.5));
#224 = LINE('',#225,#226);
#225 = CARTESIAN_POINT('',(-12.5,1.67E-15,7.5));
#226 = VECTOR('',#227,1.);
#227 = DIRECTION('',(0.,-1.,2.2E-16));
#228 = ORIENTED_EDGE('',*,*,#229,.F.);
#229 = EDGE_CURVE('',#191,#222,#230,.T.);
#230 = CIRCLE('',#231,5.);
#231 = AXIS2_PLACEMENT_3D('',#232,#233,#234);
#232 = CARTESIAN_POINT('',(-12.5,-6.,2.5));
#233 = DIRECTION('',(-0.,1.,-2.2E-16));
#234 = DIRECTION('',(0.,-2.2E-16,-1.));
#235 = ORIENTED_EDGE('',*,*,#190,.F.);
#236 = CYLINDRICAL_SURFACE('',#237,5.);
#237 = AXIS2_PLACEMENT_3D('',#238,#239,#240);
#238 = CARTESIAN_POINT('',(-12.5,5.7E-16,2.5));
#239 = DIRECTION('',(0.,-1.,2.2E-16));
#240 = DIRECTION('',(-1.,-0.,0.));
#241 = ADVANCED_FACE('',(#242),#261,.T.);
#242 = FACE_BOUND('',#243,.T.);
#243 = EDGE_LOOP('',(#244,#245,#253,#260));
#244 = ORIENTED_EDGE('',*,*,#82,.T.);
#245 = ORIENTED_EDGE('',*,*,#246,.T.);
#246 = EDGE_CURVE('',#75,#247,#249,.T.);
#247 = VERTEX_POINT('',#248);
#248 = CARTESIAN_POINT('',(-12.5,-6.,-7.5));
#249 = LINE('',#250,#251);
#250 = CARTESIAN_POINT('',(-12.5,-1.67E-15,-7.5));
#251 = VECTOR('',#252,1.);
#252 = DIRECTION('',(0.,-1.,2.2E-16));
#253 = ORIENTED_EDGE('',*,*,#254,.F.);
#254 = EDGE_CURVE('',#199,#247,#255,.T.);
#255 = CIRCLE('',#256,5.);
#256 = AXIS2_PLACEMENT_3D('',#257,#258,#259);
#257 = CARTESIAN_POINT('',(-12.5,-6.,-2.5));
#258 = DIRECTION('',(0.,-1.,2.2E-16));
#259 = DIRECTION('',(0.,-2.2E-16,-1.));
#260 = ORIENTED_EDGE('',*,*,#206,.F.);
#261 = CYLINDRICAL_SURFACE('',#262,5.);
#262 = AXIS2_PLACEMENT_3D('',#263,#264,#265);
#263 = CARTESIAN_POINT('',(-12.5,-5.7E-16,-2.5));
#264 = DIRECTION('',(0.,-1.,2.2E-16));
#265 = DIRECTION('',(-1.,-0.,0.));
#266 = ADVANCED_FACE('',(#267),#285,.F.);
#267 = FACE_BOUND('',#268,.F.);
#268 = EDGE_LOOP('',(#269,#270,#278,#284));
#269 = ORIENTED_EDGE('',*,*,#40,.F.);
#270 = ORIENTED_EDGE('',*,*,#271,.T.);
#271 = EDGE_CURVE('',#41,#272,#274,.T.);
#272 = VERTEX_POINT('',#273);
#273 = CARTESIAN_POINT('',(12.5,-6.,7.5));
#274 = LINE('',#275,#276);
#275 = CARTESIAN_POINT('',(12.5,1.67E-15,7.5));
#276 = VECTOR('',#277,1.);
#277 = DIRECTION('',(0.,-1.,2.2E-16));
#278 = ORIENTED_EDGE('',*,*,#279,.T.);
#279 = EDGE_CURVE('',#272,#222,#280,.T.);
#280 = LINE('',#281,#282);
#281 = CARTESIAN_POINT('',(17.5,-6.,7.5));
#282 = VECTOR('',#283,1.);
#283 = DIRECTION('',(-1.,0.,0.));
#284 = ORIENTED_EDGE('',*,*,#221,.F.);
#285 = PLANE('',#286);
#286 = AXIS2_PLACEMENT_3D('',#287,#288,#289);
#287 = CARTESIAN_POINT('',(17.5,1.67E-15,7.5));
#288 = DIRECTION('',(-0.,-2.2E-16,-1.));
#289 = DIRECTION('',(-1.,0.,0.));
#290 = ADVANCED_FACE('',(#291),#309,.F.);
#291 = FACE_BOUND('',#292,.F.);
#292 = EDGE_LOOP('',(#293,#294,#295,#303));
#293 = ORIENTED_EDGE('',*,*,#74,.F.);
#294 = ORIENTED_EDGE('',*,*,#246,.T.);
#295 = ORIENTED_EDGE('',*,*,#296,.T.);
#296 = EDGE_CURVE('',#247,#297,#299,.T.);
#297 = VERTEX_POINT('',#298);
#298 = CARTESIAN_POINT('',(12.5,-6.,-7.5));
#299 = LINE('',#300,#301);
#300 = CARTESIAN_POINT('',(-17.5,-6.,-7.5));
#301 = VECTOR('',#302,1.);
#302 = DIRECTION('',(1.,0.,0.));
#303 = ORIENTED_EDGE('',*,*,#304,.F.);
#304 = EDGE_CURVE('',#66,#297,#305,.T.);
#305 = LINE('',#306,#307);
#306 = CARTESIAN_POINT('',(12.5,-1.67E-15,-7.5));
#307 = VECTOR('',#308,1.);
#308 = DIRECTION('',(0.,-1.,2.2E-16));
#309 = PLANE('',#310);
#310 = AXIS2_PLACEMENT_3D('',#311,#312,#313);
#311 = CARTESIAN_POINT('',(-17.5,-1.67E-15,-7.5));
#312 = DIRECTION('',(0.,2.2E-16,1.));
#313 = DIRECTION('',(1.,0.,0.));
#314 = ADVANCED_FACE('',(#315),#334,.T.);
#315 = FACE_BOUND('',#316,.F.);
#316 = EDGE_LOOP('',(#317,#318,#326,#333));
#317 = ORIENTED_EDGE('',*,*,#48,.T.);
#318 = ORIENTED_EDGE('',*,*,#319,.T.);
#319 = EDGE_CURVE('',#49,#320,#322,.T.);
#320 = VERTEX_POINT('',#321);
#321 = CARTESIAN_POINT('',(17.5,-6.,2.5));
#322 = LINE('',#323,#324);
#323 = CARTESIAN_POINT('',(17.5,5.7E-16,2.5));
#324 = VECTOR('',#325,1.);
#325 = DIRECTION('',(0.,-1.,2.2E-16));
#326 = ORIENTED_EDGE('',*,*,#327,.F.);
#327 = EDGE_CURVE('',#272,#320,#328,.T.);
#328 = CIRCLE('',#329,5.);
#329 = AXIS2_PLACEMENT_3D('',#330,#331,#332);
#330 = CARTESIAN_POINT('',(12.5,-6.,2.5));
#331 = DIRECTION('',(-0.,1.,-2.2E-16));
#332 = DIRECTION('',(0.,-2.2E-16,-1.));
#333 = ORIENTED_EDGE('',*,*,#271,.F.);
#334 = CYLINDRICAL_SURFACE('',#335,5.);
#335 = AXIS2_PLACEMENT_3D('',#336,#337,#338);
#336 = CARTESIAN_POINT('',(12.5,5.7E-16,2.5));
#337 = DIRECTION('',(0.,-1.,2.2E-16));
#338 = DIRECTION('',(0.,2.2E-16,1.));
#339 = ADVANCED_FACE('',(#340),#359,.T.);
#340 = FACE_BOUND('',#341,.T.);
#341 = EDGE_LOOP('',(#342,#343,#351,#358));
#342 = ORIENTED_EDGE('',*,*,#65,.T.);
#343 = ORIENTED_EDGE('',*,*,#344,.T.);
#344 = EDGE_CURVE('',#58,#345,#347,.T.);
#345 = VERTEX_POINT('',#346);
#346 = CARTESIAN_POINT('',(17.5,-6.,-2.5));
#347 = LINE('',#348,#349);
#348 = CARTESIAN_POINT('',(17.5,-5.7E-16,-2.5));
#349 = VECTOR('',#350,1.);
#350 = DIRECTION('',(0.,-1.,2.2E-16));
#351 = ORIENTED_EDGE('',*,*,#352,.F.);
#352 = EDGE_CURVE('',#297,#345,#353,.T.);
#353 = CIRCLE('',#354,5.);
#354 = AXIS2_PLACEMENT_3D('',#355,#356,#357);
#355 = CARTESIAN_POINT('',(12.5,-6.,-2.5));
#356 = DIRECTION('',(0.,-1.,2.2E-16));
#357 = DIRECTION('',(0.,-2.2E-16,-1.));
#358 = ORIENTED_EDGE('',*,*,#304,.F.);
#359 = CYLINDRICAL_SURFACE('',#360,5.);
#360 = AXIS2_PLACEMENT_3D('',#361,#362,#363);
#361 = CARTESIAN_POINT('',(12.5,-5.7E-16,-2.5));
#362 = DIRECTION('',(0.,-1.,2.2E-16));
#363 = DIRECTION('',(0.,-2.2E-16,-1.));
#364 = ADVANCED_FACE('',(#365),#376,.F.);
#365 = FACE_BOUND('',#366,.F.);
#366 = EDGE_LOOP('',(#367,#368,#369,#375));
#367 = ORIENTED_EDGE('',*,*,#57,.F.);
#368 = ORIENTED_EDGE('',*,*,#344,.T.);
#369 = ORIENTED_EDGE('',*,*,#370,.T.);
#370 = EDGE_CURVE('',#345,#320,#371,.T.);
#371 = LINE('',#372,#373);
#372 = CARTESIAN_POINT('',(17.5,-6.,-7.5));
#373 = VECTOR('',#374,1.);
#374 = DIRECTION('',(0.,0.,1.));
#375 = ORIENTED_EDGE('',*,*,#319,.F.);
#376 = PLANE('',#377);
#377 = AXIS2_PLACEMENT_3D('',#378,#379,#380);
#378 = CARTESIAN_POINT('',(17.5,-1.67E-15,-7.5));
#379 = DIRECTION('',(-1.,0.,0.));
#380 = DIRECTION('',(0.,2.2E-16,1.));
#381 = ADVANCED_FACE('',(#382),#407,.T.);
#382 = FACE_BOUND('',#383,.T.);
#383 = EDGE_LOOP('',(#384,#385,#393,#401));
#384 = ORIENTED_EDGE('',*,*,#91,.T.);
#385 = ORIENTED_EDGE('',*,*,#386,.T.);
#386 = EDGE_CURVE('',#94,#387,#389,.T.);
#387 = VERTEX_POINT('',#388);
#388 = CARTESIAN_POINT('',(-6.,6.,2.));
#389 = LINE('',#390,#391);
#390 = CARTESIAN_POINT('',(-6.,0.,2.));
#391 = VECTOR('',#392,1.);
#392 = DIRECTION('',(0.,1.,0.));
#393 = ORIENTED_EDGE('',*,*,#394,.F.);
#394 = EDGE_CURVE('',#395,#387,#397,.T.);
#395 = VERTEX_POINT('',#396);
#396 = CARTESIAN_POINT('',(-6.,6.,-2.));
#397 = LINE('',#398,#399);
#398 = CARTESIAN_POINT('',(-6.,6.,-3.));
#399 = VECTOR('',#400,1.);
#400 = DIRECTION('',(0.,0.,1.));
#401 = ORIENTED_EDGE('',*,*,#402,.F.);
#402 = EDGE_CURVE('',#92,#395,#403,.T.);
#403 = LINE('',#404,#405);
#404 = CARTESIAN_POINT('',(-6.,0.,-2.));
#405 = VECTOR('',#406,1.);
#406 = DIRECTION('',(0.,1.,0.));
#407 = PLANE('',#408);
#408 = AXIS2_PLACEMENT_3D('',#409,#410,#411);
#409 = CARTESIAN_POINT('',(-6.,0.,-3.));
#410 = DIRECTION('',(-1.,0.,0.));
#411 = DIRECTION('',(0.,1.,0.));
#412 = ADVANCED_FACE('',(#413),#432,.T.);
#413 = FACE_BOUND('',#414,.F.);
#414 = EDGE_LOOP('',(#415,#416,#424,#431));
#415 = ORIENTED_EDGE('',*,*,#101,.T.);
#416 = ORIENTED_EDGE('',*,*,#417,.T.);
#417 = EDGE_CURVE('',#102,#418,#420,.T.);
#418 = VERTEX_POINT('',#419);
#419 = CARTESIAN_POINT('',(-5.,6.,-3.));
#420 = LINE('',#421,#422);
#421 = CARTESIAN_POINT('',(-5.,0.,-3.));
#422 = VECTOR('',#423,1.);
#423 = DIRECTION('',(0.,1.,0.));
#424 = ORIENTED_EDGE('',*,*,#425,.F.);
#425 = EDGE_CURVE('',#395,#418,#426,.T.);
#426 = CIRCLE('',#427,1.);
#427 = AXIS2_PLACEMENT_3D('',#428,#429,#430);
#428 = CARTESIAN_POINT('',(-5.,6.,-2.));
#429 = DIRECTION('',(-0.,-1.,-0.));
#430 = DIRECTION('',(-1.,0.,0.));
#431 = ORIENTED_EDGE('',*,*,#402,.F.);
#432 = CYLINDRICAL_SURFACE('',#433,1.);
#433 = AXIS2_PLACEMENT_3D('',#434,#435,#436);
#434 = CARTESIAN_POINT('',(-5.,0.,-2.));
#435 = DIRECTION('',(0.,1.,0.));
#436 = DIRECTION('',(-1.,0.,0.));
#437 = ADVANCED_FACE('',(#438),#457,.T.);
#438 = FACE_BOUND('',#439,.T.);
#439 = EDGE_LOOP('',(#440,#441,#449,#456));
#440 = ORIENTED_EDGE('',*,*,#152,.T.);
#441 = ORIENTED_EDGE('',*,*,#442,.T.);
#442 = EDGE_CURVE('',#145,#443,#445,.T.);
#443 = VERTEX_POINT('',#444);
#444 = CARTESIAN_POINT('',(-5.,6.,3.));
#445 = LINE('',#446,#447);
#446 = CARTESIAN_POINT('',(-5.,0.,3.));
#447 = VECTOR('',#448,1.);
#448 = DIRECTION('',(0.,1.,0.));
#449 = ORIENTED_EDGE('',*,*,#450,.F.);
#450 = EDGE_CURVE('',#387,#443,#451,.T.);
#451 = CIRCLE('',#452,1.);
#452 = AXIS2_PLACEMENT_3D('',#453,#454,#455);
#453 = CARTESIAN_POINT('',(-5.,6.,2.));
#454 = DIRECTION('',(0.,1.,-0.));
#455 = DIRECTION('',(-1.,0.,0.));
#456 = ORIENTED_EDGE('',*,*,#386,.F.);
#457 = CYLINDRICAL_SURFACE('',#458,1.);
#458 = AXIS2_PLACEMENT_3D('',#459,#460,#461);
#459 = CARTESIAN_POINT('',(-5.,0.,2.));
#460 = DIRECTION('',(0.,1.,0.));
#461 = DIRECTION('',(-1.,0.,0.));
#462 = ADVANCED_FACE('',(#463,#482),#502,.F.);
#463 = FACE_BOUND('',#464,.F.);
#464 = EDGE_LOOP('',(#465,#466,#474,#481));
#465 = ORIENTED_EDGE('',*,*,#110,.F.);
#466 = ORIENTED_EDGE('',*,*,#467,.F.);
#467 = EDGE_CURVE('',#468,#111,#470,.T.);
#468 = VERTEX_POINT('',#469);
#469 = CARTESIAN_POINT('',(5.,6.,-3.));
#470 = LINE('',#471,#472);
#471 = CARTESIAN_POINT('',(5.,6.,-3.));
#472 = VECTOR('',#473,1.);
#473 = DIRECTION('',(0.,-1.,0.));
#474 = ORIENTED_EDGE('',*,*,#475,.F.);
#475 = EDGE_CURVE('',#418,#468,#476,.T.);
#476 = CIRCLE('',#477,5.);
#477 = AXIS2_PLACEMENT_3D('',#478,#479,#480);
#478 = CARTESIAN_POINT('',(0.,6.,-3.));
#479 = DIRECTION('',(0.,0.,-1.));
#480 = DIRECTION('',(-1.,1.480297366167E-16,0.));
#481 = ORIENTED_EDGE('',*,*,#417,.F.);
#482 = FACE_BOUND('',#483,.T.);
#483 = EDGE_LOOP('',(#484,#495));
#484 = ORIENTED_EDGE('',*,*,#485,.T.);
#485 = EDGE_CURVE('',#486,#488,#490,.T.);
#486 = VERTEX_POINT('',#487);
#487 = CARTESIAN_POINT('',(-1.6,5.999999942,-3.));
#488 = VERTEX_POINT('',#489);
#489 = CARTESIAN_POINT('',(1.6,5.999998930661,-3.));
#490 = CIRCLE('',#491,1.6);
#491 = AXIS2_PLACEMENT_3D('',#492,#493,#494);
#492 = CARTESIAN_POINT('',(1.590671378981E-28,6.,-3.));
#493 = DIRECTION('',(0.,0.,1.));
#494 = DIRECTION('',(1.,0.,0.));
#495 = ORIENTED_EDGE('',*,*,#496,.T.);
#496 = EDGE_CURVE('',#488,#486,#497,.T.);
#497 = ELLIPSE('',#498,1.8,1.6);
#498 = AXIS2_PLACEMENT_3D('',#499,#500,#501);
#499 = CARTESIAN_POINT('',(1.590671378981E-28,6.,-3.));
#500 = DIRECTION('',(0.,0.,1.));
#501 = DIRECTION('',(-6.801990994642E-28,1.,0.));
#502 = PLANE('',#503);
#503 = AXIS2_PLACEMENT_3D('',#504,#505,#506);
#504 = CARTESIAN_POINT('',(3.240867456935E-10,5.135817944399,-3.));
#505 = DIRECTION('',(0.,0.,1.));
#506 = DIRECTION('',(1.,0.,0.));
#507 = ADVANCED_FACE('',(#508,#527),#547,.T.);
#508 = FACE_BOUND('',#509,.T.);
#509 = EDGE_LOOP('',(#510,#511,#519,#526));
#510 = ORIENTED_EDGE('',*,*,#144,.F.);
#511 = ORIENTED_EDGE('',*,*,#512,.F.);
#512 = EDGE_CURVE('',#513,#136,#515,.T.);
#513 = VERTEX_POINT('',#514);
#514 = CARTESIAN_POINT('',(5.,6.,3.));
#515 = LINE('',#516,#517);
#516 = CARTESIAN_POINT('',(5.,6.,3.));
#517 = VECTOR('',#518,1.);
#518 = DIRECTION('',(0.,-1.,0.));
#519 = ORIENTED_EDGE('',*,*,#520,.F.);
#520 = EDGE_CURVE('',#443,#513,#521,.T.);
#521 = CIRCLE('',#522,5.);
#522 = AXIS2_PLACEMENT_3D('',#523,#524,#525);
#523 = CARTESIAN_POINT('',(0.,6.,3.));
#524 = DIRECTION('',(0.,0.,-1.));
#525 = DIRECTION('',(-1.,1.480297366167E-16,0.));
#526 = ORIENTED_EDGE('',*,*,#442,.F.);
#527 = FACE_BOUND('',#528,.F.);
#528 = EDGE_LOOP('',(#529,#540));
#529 = ORIENTED_EDGE('',*,*,#530,.T.);
#530 = EDGE_CURVE('',#531,#533,#535,.T.);
#531 = VERTEX_POINT('',#532);
#532 = CARTESIAN_POINT('',(-1.6,5.999999942,3.));
#533 = VERTEX_POINT('',#534);
#534 = CARTESIAN_POINT('',(1.6,5.999998930661,3.));
#535 = CIRCLE('',#536,1.6);
#536 = AXIS2_PLACEMENT_3D('',#537,#538,#539);
#537 = CARTESIAN_POINT('',(1.590671378981E-28,6.,3.));
#538 = DIRECTION('',(0.,0.,1.));
#539 = DIRECTION('',(1.,0.,0.));
#540 = ORIENTED_EDGE('',*,*,#541,.T.);
#541 = EDGE_CURVE('',#533,#531,#542,.T.);
#542 = ELLIPSE('',#543,1.8,1.6);
#543 = AXIS2_PLACEMENT_3D('',#544,#545,#546);
#544 = CARTESIAN_POINT('',(1.590671378981E-28,6.,3.));
#545 = DIRECTION('',(0.,0.,1.));
#546 = DIRECTION('',(-6.801990994642E-28,1.,0.));
#547 = PLANE('',#548);
#548 = AXIS2_PLACEMENT_3D('',#549,#550,#551);
#549 = CARTESIAN_POINT('',(3.240867456935E-10,5.135817944399,3.));
#550 = DIRECTION('',(0.,0.,1.));
#551 = DIRECTION('',(1.,0.,0.));
#552 = ADVANCED_FACE('',(#553),#572,.T.);
#553 = FACE_BOUND('',#554,.F.);
#554 = EDGE_LOOP('',(#555,#564,#565,#566));
#555 = ORIENTED_EDGE('',*,*,#556,.T.);
#556 = EDGE_CURVE('',#557,#468,#559,.T.);
#557 = VERTEX_POINT('',#558);
#558 = CARTESIAN_POINT('',(6.,6.,-2.));
#559 = CIRCLE('',#560,1.);
#560 = AXIS2_PLACEMENT_3D('',#561,#562,#563);
#561 = CARTESIAN_POINT('',(5.,6.,-2.));
#562 = DIRECTION('',(2.556505670195E-17,1.,0.));
#563 = DIRECTION('',(1.,-2.556505670195E-17,0.));
#564 = ORIENTED_EDGE('',*,*,#467,.T.);
#565 = ORIENTED_EDGE('',*,*,#118,.F.);
#566 = ORIENTED_EDGE('',*,*,#567,.F.);
#567 = EDGE_CURVE('',#557,#119,#568,.T.);
#568 = LINE('',#569,#570);
#569 = CARTESIAN_POINT('',(6.,6.,-2.));
#570 = VECTOR('',#571,1.);
#571 = DIRECTION('',(0.,-1.,0.));
#572 = CYLINDRICAL_SURFACE('',#573,1.);
#573 = AXIS2_PLACEMENT_3D('',#574,#575,#576);
#574 = CARTESIAN_POINT('',(5.,6.,-2.));
#575 = DIRECTION('',(0.,-1.,0.));
#576 = DIRECTION('',(1.,0.,0.));
#577 = ADVANCED_FACE('',(#578),#597,.T.);
#578 = FACE_BOUND('',#579,.T.);
#579 = EDGE_LOOP('',(#580,#589,#590,#591));
#580 = ORIENTED_EDGE('',*,*,#581,.T.);
#581 = EDGE_CURVE('',#582,#513,#584,.T.);
#582 = VERTEX_POINT('',#583);
#583 = CARTESIAN_POINT('',(6.,6.,2.));
#584 = CIRCLE('',#585,1.);
#585 = AXIS2_PLACEMENT_3D('',#586,#587,#588);
#586 = CARTESIAN_POINT('',(5.,6.,2.));
#587 = DIRECTION('',(-2.556505670195E-17,-1.,0.));
#588 = DIRECTION('',(1.,-2.556505670195E-17,0.));
#589 = ORIENTED_EDGE('',*,*,#512,.T.);
#590 = ORIENTED_EDGE('',*,*,#135,.F.);
#591 = ORIENTED_EDGE('',*,*,#592,.F.);
#592 = EDGE_CURVE('',#582,#128,#593,.T.);
#593 = LINE('',#594,#595);
#594 = CARTESIAN_POINT('',(6.,6.,2.));
#595 = VECTOR('',#596,1.);
#596 = DIRECTION('',(0.,-1.,0.));
#597 = CYLINDRICAL_SURFACE('',#598,1.);
#598 = AXIS2_PLACEMENT_3D('',#599,#600,#601);
#599 = CARTESIAN_POINT('',(5.,6.,2.));
#600 = DIRECTION('',(0.,-1.,0.));
#601 = DIRECTION('',(1.,0.,0.));
#602 = ADVANCED_FACE('',(#603),#614,.T.);
#603 = FACE_BOUND('',#604,.T.);
#604 = EDGE_LOOP('',(#605,#611,#612,#613));
#605 = ORIENTED_EDGE('',*,*,#606,.T.);
#606 = EDGE_CURVE('',#557,#582,#607,.T.);
#607 = LINE('',#608,#609);
#608 = CARTESIAN_POINT('',(6.,6.,-3.));
#609 = VECTOR('',#610,1.);
#610 = DIRECTION('',(0.,0.,1.));
#611 = ORIENTED_EDGE('',*,*,#592,.T.);
#612 = ORIENTED_EDGE('',*,*,#127,.F.);
#613 = ORIENTED_EDGE('',*,*,#567,.F.);
#614 = PLANE('',#615);
#615 = AXIS2_PLACEMENT_3D('',#616,#617,#618);
#616 = CARTESIAN_POINT('',(6.,6.,-3.));
#617 = DIRECTION('',(1.,0.,0.));
#618 = DIRECTION('',(0.,-1.,0.));
#619 = ADVANCED_FACE('',(#620),#639,.F.);
#620 = FACE_BOUND('',#621,.T.);
#621 = EDGE_LOOP('',(#622,#630,#631,#632));
#622 = ORIENTED_EDGE('',*,*,#623,.F.);
#623 = EDGE_CURVE('',#162,#624,#626,.T.);
#624 = VERTEX_POINT('',#625);
#625 = CARTESIAN_POINT('',(11.45,-1.,0.));
#626 = LINE('',#627,#628);
#627 = CARTESIAN_POINT('',(11.45,-1.,0.));
#628 = VECTOR('',#629,1.);
#629 = DIRECTION('',(0.707106781187,-0.707106781187,0.));
#630 = ORIENTED_EDGE('',*,*,#161,.T.);
#631 = ORIENTED_EDGE('',*,*,#623,.T.);
#632 = ORIENTED_EDGE('',*,*,#633,.F.);
#633 = EDGE_CURVE('',#624,#624,#634,.T.);
#634 = CIRCLE('',#635,1.55);
#635 = AXIS2_PLACEMENT_3D('',#636,#637,#638);
#636 = CARTESIAN_POINT('',(13.,-1.,0.));
#637 = DIRECTION('',(0.,1.,-0.));
#638 = DIRECTION('',(-1.,0.,0.));
#639 = CONICAL_SURFACE('',#640,1.55,0.785398163397);
#640 = AXIS2_PLACEMENT_3D('',#641,#642,#643);
#641 = CARTESIAN_POINT('',(13.,-1.,0.));
#642 = DIRECTION('',(0.,1.,0.));
#643 = DIRECTION('',(-1.,0.,0.));
#644 = ADVANCED_FACE('',(#645),#664,.F.);
#645 = FACE_BOUND('',#646,.T.);
#646 = EDGE_LOOP('',(#647,#655,#656,#657));
#647 = ORIENTED_EDGE('',*,*,#648,.F.);
#648 = EDGE_CURVE('',#173,#649,#651,.T.);
#649 = VERTEX_POINT('',#650);
#650 = CARTESIAN_POINT('',(-14.55,-1.,0.));
#651 = LINE('',#652,#653);
#652 = CARTESIAN_POINT('',(-14.55,-1.,0.));
#653 = VECTOR('',#654,1.);
#654 = DIRECTION('',(0.707106781187,-0.707106781187,0.));
#655 = ORIENTED_EDGE('',*,*,#172,.T.);
#656 = ORIENTED_EDGE('',*,*,#648,.T.);
#657 = ORIENTED_EDGE('',*,*,#658,.F.);
#658 = EDGE_CURVE('',#649,#649,#659,.T.);
#659 = CIRCLE('',#660,1.55);
#660 = AXIS2_PLACEMENT_3D('',#661,#662,#663);
#661 = CARTESIAN_POINT('',(-13.,-1.,0.));
#662 = DIRECTION('',(0.,1.,-0.));
#663 = DIRECTION('',(-1.,0.,0.));
#664 = CONICAL_SURFACE('',#665,1.55,0.785398163397);
#665 = AXIS2_PLACEMENT_3D('',#666,#667,#668);
#666 = CARTESIAN_POINT('',(-13.,-1.,0.));
#667 = DIRECTION('',(0.,1.,0.));
#668 = DIRECTION('',(-1.,0.,0.));
#669 = ADVANCED_FACE('',(#670,#680,#691),#702,.F.);
#670 = FACE_BOUND('',#671,.F.);
#671 = EDGE_LOOP('',(#672,#673,#674,#675,#676,#677,#678,#679));
#672 = ORIENTED_EDGE('',*,*,#198,.F.);
#673 = ORIENTED_EDGE('',*,*,#229,.T.);
#674 = ORIENTED_EDGE('',*,*,#279,.F.);
#675 = ORIENTED_EDGE('',*,*,#327,.T.);
#676 = ORIENTED_EDGE('',*,*,#370,.F.);
#677 = ORIENTED_EDGE('',*,*,#352,.F.);
#678 = ORIENTED_EDGE('',*,*,#296,.F.);
#679 = ORIENTED_EDGE('',*,*,#254,.F.);
#680 = FACE_BOUND('',#681,.F.);
#681 = EDGE_LOOP('',(#682));
#682 = ORIENTED_EDGE('',*,*,#683,.F.);
#683 = EDGE_CURVE('',#684,#684,#686,.T.);
#684 = VERTEX_POINT('',#685);
#685 = CARTESIAN_POINT('',(-14.55,-6.,1.33226762955E-15));
#686 = CIRCLE('',#687,1.55);
#687 = AXIS2_PLACEMENT_3D('',#688,#689,#690);
#688 = CARTESIAN_POINT('',(-13.,-6.,1.33226762955E-15));
#689 = DIRECTION('',(0.,1.,-2.22044604925E-16));
#690 = DIRECTION('',(-1.,0.,0.));
#691 = FACE_BOUND('',#692,.F.);
#692 = EDGE_LOOP('',(#693));
#693 = ORIENTED_EDGE('',*,*,#694,.F.);
#694 = EDGE_CURVE('',#695,#695,#697,.T.);
#695 = VERTEX_POINT('',#696);
#696 = CARTESIAN_POINT('',(11.45,-6.,1.33226762955E-15));
#697 = CIRCLE('',#698,1.55);
#698 = AXIS2_PLACEMENT_3D('',#699,#700,#701);
#699 = CARTESIAN_POINT('',(13.,-6.,1.33226762955E-15));
#700 = DIRECTION('',(0.,1.,-2.22044604925E-16));
#701 = DIRECTION('',(-1.,0.,0.));
#702 = PLANE('',#703);
#703 = AXIS2_PLACEMENT_3D('',#704,#705,#706);
#704 = CARTESIAN_POINT('',(0.,-6.,1.E-15));
#705 = DIRECTION('',(0.,1.,0.));
#706 = DIRECTION('',(0.,0.,1.));
#707 = ADVANCED_FACE('',(#708),#726,.T.);
#708 = FACE_BOUND('',#709,.F.);
#709 = EDGE_LOOP('',(#710,#711,#718,#719));
#710 = ORIENTED_EDGE('',*,*,#606,.T.);
#711 = ORIENTED_EDGE('',*,*,#712,.F.);
#712 = EDGE_CURVE('',#387,#582,#713,.T.);
#713 = CIRCLE('',#714,6.);
#714 = AXIS2_PLACEMENT_3D('',#715,#716,#717);
#715 = CARTESIAN_POINT('',(0.,6.,2.));
#716 = DIRECTION('',(0.,0.,-1.));
#717 = DIRECTION('',(-1.,1.480297366167E-16,0.));
#718 = ORIENTED_EDGE('',*,*,#394,.F.);
#719 = ORIENTED_EDGE('',*,*,#720,.T.);
#720 = EDGE_CURVE('',#395,#557,#721,.T.);
#721 = CIRCLE('',#722,6.);
#722 = AXIS2_PLACEMENT_3D('',#723,#724,#725);
#723 = CARTESIAN_POINT('',(0.,6.,-2.));
#724 = DIRECTION('',(0.,0.,-1.));
#725 = DIRECTION('',(-1.,1.480297366167E-16,0.));
#726 = CYLINDRICAL_SURFACE('',#727,6.);
#727 = AXIS2_PLACEMENT_3D('',#728,#729,#730);
#728 = CARTESIAN_POINT('',(1.590671378981E-28,6.,-3.));
#729 = DIRECTION('',(-0.,-0.,-1.));
#730 = DIRECTION('',(1.,0.,0.));
#731 = ADVANCED_FACE('',(#732),#738,.T.);
#732 = FACE_BOUND('',#733,.T.);
#733 = EDGE_LOOP('',(#734,#735,#736,#737));
#734 = ORIENTED_EDGE('',*,*,#425,.F.);
#735 = ORIENTED_EDGE('',*,*,#720,.T.);
#736 = ORIENTED_EDGE('',*,*,#556,.T.);
#737 = ORIENTED_EDGE('',*,*,#475,.F.);
#738 = TOROIDAL_SURFACE('',#739,5.,1.);
#739 = AXIS2_PLACEMENT_3D('',#740,#741,#742);
#740 = CARTESIAN_POINT('',(0.,6.,-2.));
#741 = DIRECTION('',(-0.,-0.,-1.));
#742 = DIRECTION('',(-1.,1.480297366167E-16,0.));
#743 = ADVANCED_FACE('',(#744),#750,.T.);
#744 = FACE_BOUND('',#745,.F.);
#745 = EDGE_LOOP('',(#746,#747,#748,#749));
#746 = ORIENTED_EDGE('',*,*,#450,.F.);
#747 = ORIENTED_EDGE('',*,*,#712,.T.);
#748 = ORIENTED_EDGE('',*,*,#581,.T.);
#749 = ORIENTED_EDGE('',*,*,#520,.F.);
#750 = TOROIDAL_SURFACE('',#751,5.,1.);
#751 = AXIS2_PLACEMENT_3D('',#752,#753,#754);
#752 = CARTESIAN_POINT('',(0.,6.,2.));
#753 = DIRECTION('',(0.,0.,1.));
#754 = DIRECTION('',(-1.,1.480297366167E-16,0.));
#755 = ADVANCED_FACE('',(#756),#772,.F.);
#756 = FACE_BOUND('',#757,.T.);
#757 = EDGE_LOOP('',(#758,#764,#765,#771));
#758 = ORIENTED_EDGE('',*,*,#759,.T.);
#759 = EDGE_CURVE('',#486,#531,#760,.T.);
#760 = LINE('',#761,#762);
#761 = CARTESIAN_POINT('',(-1.6,5.999999942,-3.));
#762 = VECTOR('',#763,1.);
#763 = DIRECTION('',(0.,0.,1.));
#764 = ORIENTED_EDGE('',*,*,#530,.T.);
#765 = ORIENTED_EDGE('',*,*,#766,.F.);
#766 = EDGE_CURVE('',#488,#533,#767,.T.);
#767 = LINE('',#768,#769);
#768 = CARTESIAN_POINT('',(1.6,5.999998930661,-3.));
#769 = VECTOR('',#770,1.);
#770 = DIRECTION('',(0.,0.,1.));
#771 = ORIENTED_EDGE('',*,*,#485,.F.);
#772 = CYLINDRICAL_SURFACE('',#773,1.6);
#773 = AXIS2_PLACEMENT_3D('',#774,#775,#776);
#774 = CARTESIAN_POINT('',(1.590671378981E-28,6.,-3.));
#775 = DIRECTION('',(-0.,-0.,-1.));
#776 = DIRECTION('',(1.,0.,0.));
#777 = ADVANCED_FACE('',(#778),#784,.T.);
#778 = FACE_BOUND('',#779,.T.);
#779 = EDGE_LOOP('',(#780,#781,#782,#783));
#780 = ORIENTED_EDGE('',*,*,#766,.T.);
#781 = ORIENTED_EDGE('',*,*,#541,.T.);
#782 = ORIENTED_EDGE('',*,*,#759,.F.);
#783 = ORIENTED_EDGE('',*,*,#496,.F.);
#784 = SURFACE_OF_LINEAR_EXTRUSION('',#785,#790);
#785 = ELLIPSE('',#786,1.8,1.6);
#786 = AXIS2_PLACEMENT_3D('',#787,#788,#789);
#787 = CARTESIAN_POINT('',(1.590671378981E-28,6.,-3.));
#788 = DIRECTION('',(0.,0.,1.));
#789 = DIRECTION('',(-6.801990994642E-28,1.,0.));
#790 = VECTOR('',#791,1.);
#791 = DIRECTION('',(-0.,-0.,-1.));
#792 = ADVANCED_FACE('',(#793),#804,.F.);
#793 = FACE_BOUND('',#794,.F.);
#794 = EDGE_LOOP('',(#795,#801,#802,#803));
#795 = ORIENTED_EDGE('',*,*,#796,.F.);
#796 = EDGE_CURVE('',#624,#695,#797,.T.);
#797 = LINE('',#798,#799);
#798 = CARTESIAN_POINT('',(11.45,0.,0.));
#799 = VECTOR('',#800,1.);
#800 = DIRECTION('',(0.,-1.,2.22044604925E-16));
#801 = ORIENTED_EDGE('',*,*,#633,.F.);
#802 = ORIENTED_EDGE('',*,*,#796,.T.);
#803 = ORIENTED_EDGE('',*,*,#694,.T.);
#804 = CYLINDRICAL_SURFACE('',#805,1.55);
#805 = AXIS2_PLACEMENT_3D('',#806,#807,#808);
#806 = CARTESIAN_POINT('',(13.,0.,0.));
#807 = DIRECTION('',(0.,1.,-2.22044604925E-16));
#808 = DIRECTION('',(-1.,0.,0.));
#809 = ADVANCED_FACE('',(#810),#821,.F.);
#810 = FACE_BOUND('',#811,.F.);
#811 = EDGE_LOOP('',(#812,#818,#819,#820));
#812 = ORIENTED_EDGE('',*,*,#813,.F.);
#813 = EDGE_CURVE('',#649,#684,#814,.T.);
#814 = LINE('',#815,#816);
#815 = CARTESIAN_POINT('',(-14.55,0.,0.));
#816 = VECTOR('',#817,1.);
#817 = DIRECTION('',(0.,-1.,2.22044604925E-16));
#818 = ORIENTED_EDGE('',*,*,#658,.F.);
#819 = ORIENTED_EDGE('',*,*,#813,.T.);
#820 = ORIENTED_EDGE('',*,*,#683,.T.);
#821 = CYLINDRICAL_SURFACE('',#822,1.55);
#822 = AXIS2_PLACEMENT_3D('',#823,#824,#825);
#823 = CARTESIAN_POINT('',(-13.,0.,0.));
#824 = DIRECTION('',(0.,1.,-2.22044604925E-16));
#825 = DIRECTION('',(-1.,0.,0.));
#826 = ( GEOMETRIC_REPRESENTATION_CONTEXT(3) 
GLOBAL_UNCERTAINTY_ASSIGNED_CONTEXT((#830)) GLOBAL_UNIT_ASSIGNED_CONTEXT
((#827,#828,#829)) REPRESENTATION_CONTEXT('Context #1',
  '3D Context with UNIT and UNCERTAINTY') );
#827 = ( LENGTH_UNIT() NAMED_UNIT(*) SI_UNIT(.MILLI.,.METRE.) );
#828 = ( NAMED_UNIT(*) PLANE_ANGLE_UNIT() SI_UNIT($,.RADIAN.) );
#829 = ( NAMED_UNIT(*) SI_UNIT($,.STERADIAN.) SOLID_ANGLE_UNIT() );
#830 = UNCERTAINTY_MEASURE_WITH_UNIT(LENGTH_MEASURE(1.E-07),#827,
  'distance_accuracy_value','confusion accuracy');
#831 = PRODUCT_RELATED_PRODUCT_CATEGORY('part',$,(#7));
#832 = MECHANICAL_DESIGN_GEOMETRIC_PRESENTATION_REPRESENTATION('',(#833)
  ,#826);
#833 = STYLED_ITEM('color',(#834),#15);
#834 = PRESENTATION_STYLE_ASSIGNMENT((#835,#841));
#835 = SURFACE_STYLE_USAGE(.BOTH.,#836);
#836 = SURFACE_SIDE_STYLE('',(#837));
#837 = SURFACE_STYLE_FILL_AREA(#838);
#838 = FILL_AREA_STYLE('',(#839));
#839 = FILL_AREA_STYLE_COLOUR('',#840);
#840 = COLOUR_RGB('',0.447058818107,0.474509808674,0.501960817233);
#841 = CURVE_STYLE('',#842,POSITIVE_LENGTH_MEASURE(0.1),#843);
#842 = DRAUGHTING_PRE_DEFINED_CURVE_FONT('continuous');
#843 = COLOUR_RGB('',9.803921802644E-02,9.803921802644E-02,
  9.803921802644E-02);
ENDSEC;
END-ISO-10303-21;
